<mxfile host="65bd71144e">
    <diagram id="Xt9Y1iaYD5ZcsvxtfMRe" name="Page-1">
        <mxGraphModel dx="4510" dy="2786" grid="1" gridSize="10" guides="1" tooltips="1" connect="1" arrows="1" fold="1" page="1" pageScale="1" pageWidth="850" pageHeight="1100" background="#ffffff" math="0" shadow="0">
            <root>
                <mxCell id="0"/>
                <mxCell id="1" parent="0"/>
                <mxCell id="2" value="" style="shape=image;verticalLabelPosition=bottom;labelBackgroundColor=default;verticalAlign=top;aspect=fixed;imageAspect=0;image=data:image/png,iVBORw0KGgoAAAANSUhEUgAAB/cAAASfCAIAAAB3PemjAAAAKnRFWHRjb3B5bGVmdABHZW5lcmF0ZWQgYnkgaHR0cHM6Ly9wbGFudHVtbC5jb212zsofAAADc2lUWHRwbGFudHVtbAABAAAAeJztVktvGjEQvvtXTLk0HBI1SVW1HKq8SJoIAgISqafI7A7Eyq699YOEW/9G/15/ScdeFjYkNOQhVZUWcViP5/WNv7Fnz1iurUsT9i7GkZAI3U5vcNXqHO4PTjvnV4NOF6x2ON8+6PSOmr2r/uB7qwlaORljzBiPrNJQO+aRS+wU1AgOVZo5K+T4989fBvrWxSitqQGfL540amFknUadWxWrdWNBDzONhr64FRMkJScjkUAb02HhcybLRTPH+3EqpDBWc1oZrxUkjA09WK6nUGupsZDQ5WPMM/NLv2KRklarBGpdbsyt0jElYdBSnCBPUAeDYjdsLvYW5s2UU6Z91BMR5TGCZCYoZZIrnsqhuluohSUj4ILKU7swSKCiiGwsHHHLh9zkPv1OIWCsKNvm1wWgBhwmIrqBWg6jyLsGiZA3bK7mbVZgasCRMFnCp5AVJdHBl8YfDo2FkdIpW2Hs/c7SWukn2JdyX5lHU1ryqHFMZ4saY8BQOx7H5Mj8LYWVLi9Ri9F0yRFPbH4MhQQE/eWEJyJmQL/ngEWtiZIpefFl3mjeRZhZoSRs1xkmBh9GWivOSkQnKJGIj8tVDuf9hNMyRRtEXlmU+FbY64WHstrcLFCWYGNCrapzu6BdOtmy4uE1Ei1zNQp0j71lvU6Gcqa2Dkdytj+G/RX08PbAnb32HRlRTwaKdB8GmR8fcKqdVBbwLhNE1WfTRuLtAkXokKVaPtElZfsXc6nvhqmwb+Pr0pfF8/KBN1/L8zLcpW57s47brQd/oeuWA64drnzlNuAiC5gcCd/TSzO7o0O7PMD5XBzGRZG/EgoknlJEJaJTZA1YBfTYjIROeQCX+dcrwKNmChBX8POljFxZ1p362tzszZ6Me+zO01tcGK+69R7x/MKbz3v6J7df6e2mT2qFR/i0R0Z+5GN78+mvmuCqCa6a4KoJrprgqgmumuCqCa6a4P6PCa6bcGkv2i2gsCY8K1s7H3Z2t74M0fLtjQt5I9WtJKqkmUgQrEixzjZOui0wymlCEPtBSQydP8o6O+MTDj3iMOk1wK82Bu069JuFkK6XidBKpn78O7ts50rwTdl+pmxQ/vRx84BuDV8iKsVlmx3hiDv/pspIxTTjUdsMjjc/sxaXYxdwomR+kLN6Snt99gdKcVEvCM5g8AAAgABJREFUeF7s3Qt4FcXd+PGEIJILiQSIIUGBchNEFDUNal9Jg1b7tiKIVhCRYl+rFaj6t4rYAspF8SViuUjq7VUUbyCFFwT0EaEVRUCUyytY7kIMCSCXhASCEPY/b0b2XfaWzTmbZOec7+c5D8+e2dnZ2ZnfzJ4znJwTowEAAAAAAAAAADXFmBMAAAAAAAAAAIAiWOUHAAAAAAAAAEBVrPIDAAAAAAAAAKAqVvkBAAAAAAAAAFAVq/yq2rJl63PPTZkwYaJ4PP30M9OmTdu2bZs5ExApRHhPmTL1qaeeEQEv/hXbBDyAcHAbBYKDuzwAAAAQJlb51bNnz3ePPz56+vRXNm8u2LPniHyI7RdffO3JJ8fu3bvXfACgMhHSo0c/MWPGf5kCXqSIdAIeQE1xGwWCg7s8AAAA4AtW+RWzZs2Xjz02eseO/fobIeNj164DTz45bv369ebDADWtW7fuL395wingRbrYK/KYDwMAB9xGgeDgLg8AAAD4hVV+lezeXfDYY6Ot74KMj4KCI2PHjuejT4gAIozF23trkJseIg8BD8ALbqNAcHCXBwAAAHzEKr8yTp/WRoz4i9PHnYyP3bu/Hzt2rPl4QDWjRo3xEvAij8hpPhgAzsZtFAgU7vIAAACAj1jlV8aGDZtmzHjV+ubH9jFz5qytW7eaiwDUIQL4b397zRrbtg+Rk4AH4I7bKBAc3OUBAAAAf7HKr4xJk/5q/F0y98eOHUUzZswwFwGoY9q06d4DXuQU+c1FAIABt1EgOLjLAwAAAP5ilV8ZY8ZMsL7tcXoUFpbm5eWZiwDU8dRTz1gD2+Uh8puLAAADbqNAcHCXBwAAAPzFKr8yRo8eb33P4/QoKDjC8gSUNmHCRGtguzxEfnMRAGDAbRQIDu7yAAAAgL9Y5VcGH0JEVOFTfgD8xW0UCA7u8gAAAIC/WOVXBl8ojKjCN/YC8Be3USA4uMsDAAAA/mKVXxkbNmyaMeNV6zsf28fMmbO2bt1qLgJQhwjgv/3tNWts2z5ETgIegDtuo0BwcJcHAAAA/MUqvzJOn9ZGjPjLjh37rW9+TI/du78fO3as+XhANaNGjfES8CKPyGk+GADOxm0UCBTu8gAAAICPWOVXye7dBY89Ntr6/sf4KCg4Mnbs+L1795oPBlQjwvgvf3nCGuSmh8hDwAPwgtsoEBzc5QEAAAAfscqvmDVrvnzssdFOH33atevAk0+OW79+vfkwQE3r1q0Tb++dAl6ki70ij/kwAHDAbRQIDu7yAAAAgF9Y5VfPnj3fPf746OnTXzH+apnYfvHF1558ciwfd0KEESE9evQTM2b8lyngRYpIJ+AB1BS3USA4uMsDAAAAvmCVX1Vbtmx97rkpEyZMvPPOu55++plp06Zt27bNnAmIFCK8p0yZ+tRTz4iAF/+KbQIeQDi4jQLBwV0eAAAACBOr/MrLy8szJwGRi4AH4C9mFSA4GI8AAABAaFjlVx5vhxBVCHgA/mJWAYKD8QgAAACEhlV+5fF2CFGFgAfgL2YVIDgYjwAAAEBoWOVXHm+HEFUIeAD+YlYBgoPxCAAAAISGVX7l8XYIUYWAB+AvZhUgOBiPAAAAQGhY5Vceb4cQVQh4AP5iVgGCg/EIAAAAhIZVfuXxdghRhYAH4C9mFSA4GI8AAABAaFjlD6533303z4NbbrnFnGRHlGY+ARAkBDwAfzGrAMHBeAQAAABqFav8ysvjQ0+IJgQ8AH8xqwDBwXgEUHsqKyvNSYAKCF0AHrHKrzzeDiGqEPAA/MWsAgQH4xFALfmf//mf999/35wKBB6hC8A7VvmVx9shRBUCHoC/mFWA4GA8AvDdyZMnR44c2blz58OHD5v3AQFG6AKoKVb5lcfbIUQVAh6Av5hVgOBgPALwV0lJSY8ePVq2bDls2DDzPiDACF0AIWCVX3m8HUJUIeAB+ItZBQgOxiMAH33zzTft27fPzMzs3LnzqlWrzLuBoCJ0AYSGVX7l8XYIUYWAB+AvZhUgOBiPAPyyYMGCzMzM9PT0gQMHXnvttebdQFARugBCxiq/8ng7hKhCwAPwF7MKEByMRwC+mDBhQvoZAwcOfPHFF805gEAidAGEg1V+5fF2CFGFgAfgL2YVIDgYj9K7775rTgrJ6dPa998fefPN2U888dSYMRNGjRov/hXbIkWki71ARDp06HC7du1atmwpl0ovuOCChx56dOzYp955572SklJzbiAwCF0rboiRh76oVazyK4+3Q4gqBDwAfzGrAMHBeJR8aYdNm7aOHDlm3Lj/XLp01Z49R4wPkSLSxV6Rx3wYoLJTpyrXrds8YsToBx74U8eOnVq3bpOenp6Vlf2f/zlVj/xRo57ctm27+UigXhG6TrghRhj6oraxyq88X2Y9QBUEPAB/MasAwcF4lMJsh1OnTj3zzORJk6bt3HnA9Bba+BB7RR6RU+Q3FwEoqKysYsKEPD3y163b9m//ltOuXfs2bdr06HG1MfLz8qY/99yUyspKcxFAfSB0XXBDjBj0Rd1glV95Yc56gFoIeAD+YlYBgoPxKIXTDiUlRx9++LF//nOt9Z2z7UPkFPnFUeaCAKXs23fowQcfNUX+9u377rzzt+3bd2jb9icLFnxsivzHHnu8rKzMXBBQtwhdd9wQIwN9UWdY5VdeOLMeoBwCHoC/mFWA4GA8SiG3w6lTleJd8caNu6xvmF0eIr84ShxrLg5QRFlZxYMPPuoU+aNHT2jZsuWQIfdaI3/kyD9H1ceiETSEbrW4IUYA+qIuscqvvJBnPUBFBDwAfzGrAMHBeJRCbodJk/7q/YNyxoc4ShxrLg5QwalTlRMm5LlH/syZczp1uujrr3eb0j/55MupU6eZSwTqBKHrBTfECEBf1CVW+ZUX8qwHqIiAB+AvZhUgOBiPUmjtsH37jry8adY3yR4f4lhRgrlQIPDWrftm0qTqI3/p0s9fe222NX3q1Pxdu3aZCwVqH6HrBTdE1dEXdYxVfuWFNusBiiLgAfiLWQUIDsajFFo7jBr15I4d+63vkD0+xLGiBHOhQLCdOlU5YsRoj5H/7beHrIni2PHjx5vLBWoZoesRN0TV0Rd1jFV+5YU26wGKIuAB+ItZBQgOxqMUQjscPXp0/PhJ1rfHNXqIEkQ55qKBACsuPjhu3H9ag7lGj7y854h81DFC1yNuiEqjL+oeq/zKC2HWA9RFwAPwF7MKEByMRymEdvj73+cvXbrK+t64Rg9RgijHXDQQYLNmzQk/8les+GLBggXmooHaROh6xA1RafRF3WOVX3khzHqAugh4AP5iVgGCg/EohdAOTz/9jPWNcQgPUY65aCDAxoyZYA3jmj727i0NYdAB4SB0PQrhArkhBgd9UfdY5VfbsWPH+vfvL/417wAiEQEPwF/MKkBwMB51ISxqTJgw0fquOISHKMdcNBBgo0f7sFRaUFASwqADwkHoehTCBXJDDA76ou6xyq+wysrKUaNGbdq0Sfwrts27gchCwAPwF7MKEByMR6MHHnggr4aGD3/Q+q44hAdvpKEWlkqhKELXI26ISmOVv+6xyq8wMX9t3bpVbIh/8yJ9cgcIeAD+YlYBgoPxaBRCC/BH8YhOfO0JFEXoehTCBXJDDA76ou6xyq+qmTNnfvbZZ/pTsS1SDPuBiELAA/AXswoQHIxHkxAWNZ555j+t74pDeIhyzEUDAfbkk09Zw7imj/37y0IYdEA4CF2PQrhAbojBQV/UPVb5lfTBBx/MnTvXlChSRLopEYgABDwAfzGrAMHBeLQKYVFjwYIFy5evtr4xrtFDlCDKMRcNBNjs2X9funSVNZhr9FizZh2RjzpG6HrEDVFp9EXdY5VfPevXr58xY4Y5tYpIF3vNqYDKCHgA/mJWAYKD8WgrhEWNo0ePPvPMs9b3xjV6iBJEOeaigQA7cqRk3LhwPyv6179OIfJRxwhdj7ghKo2+qHus8iumoKBg3Lhx5lQDsVfkMacCaiLgAfiLWQUIDsajkxAWNbT/ba7xO3fut7499vgQx4oSzIUCgTdq1JM7doQe+UVFRyZMmGAuFKh9hK4X3BBVR1/UMVb5VVJSUvL444//8MMP5h0GYq/II3KadwCqIeAB+ItZBQgOxqOL0BY1du3aNW1avvUdsseHOFaUYC4UCLzt23fk5U23hrSXR0FByYsvvkTko14Qul5wQ1QdfVHHWOVXhvf3OV7eNQEBR8AD8BezChAcjEd3oS1qCNOmTf/883XWN8nVPsRR4lhzcYAinntuyj//udYa2NU+NmzYNH06kY96Q+hWixtiBKAv6hKr/Mqo0d8sV/sX0EDAEfAA/MWsAgQH49FdyIsalZWVf/nLqG++2WN9q+zyEPnFUeJYc3GAIkT0PvbY4xs37rKGt+ujaNQoIh/1idCtFjfECEBf1CVW+dUQwu+PufyaGRBwBDwAfzGrAMHBeKxWyIsaQllZ2ahRo1atWm99w2z7EDlFfnGUuSBAKSKGR4788yeffGkNcuujoKBkw4ZNRD6CgNB1xw0xMtAXdYZVfgXMnTv3gw8+MKd6II4Sx5pTgWAj4AH4i1kFCA7GoxfhLGpoVR+amz59+owZL+zZc9D6ztnwOCjyiJx8UA6RQUTy1KnTpk7N37nzgCXa/+9RXPy/X2hO5CM4CF0X3BAjBn1RN1jlD7rPPvts5syZ5lTPxLGiBHMqEFQEPAB/MasAwcF49CjMRQ1p586dEyZMmDz5rytXfllcfLSwsFS8eRb/im2RItLFXpHHfBigOBHV48ePz8t77tNPv9i7t7SgoEQ8xMaBA2Vr1qz761+nEPkIJkLXFjfECENf1DZW+QNt69at4U9qogRRjjkVCB4CHoC/mFWA4GA8evfuu++ak0JVVlY2f/78vLOJFP4KHpGNyIeiCF0TbogRib6oPazyB9f+/ft9+U0VUYIoR5Rm3gEECQEPwF/MKkBwMB4BAACAWsUqf3C9+uqrx44dM6eGRJQjSjOnAkFCwAPwF7MKEByMRwAAgKjyzjvvmD6wHxof/6Qj4rHKDwAAAAAAAACAqljlBwAAAAAAAABAVazyAwAAAAAAAACgKrVX+ZcvXx4TE3PgwAHzDv+88MILbdq0adCggTiReZ9S6qCt6oC8isOHD5t3RIE66EGiHUFTB11J2AdKNE/y9SUyIkdnvJx6v7R6r0A4QhuMHi/ZYzYY0WiISKFNNQjUzQ7VCkJ/1dd5a5WPDRvm4YgkqgdD7S5qyNYxeuCBB8yZwmAd1f6+RPjuu+8aNGiQn59fWFhYVFRk3q1pBQUFv//97y+44IJzzjmnRYsWt95665o1a8yZ6pxtU5w4cUJcwunTp42JNSKL/f7778077Gzfvv22225r3rx5XFxcs2bNrr322iVLlshdttXzKJxjpfBLcEK01wvbpqjjaDd2TZhsLyfICPt6YdsUdRz26k7yxqBNTk6+4YYbNm3aZM6kjmqv18g2c/iRY1TvQ8Z4OfJ6rZOzTG/SpEl5ebmeuHnzZhkVHhvTC6cK1K8vv/xS1Orqq6827zibbbRUy2M4VZsttLPrwjzcL/4GQLWNZiUrIDVt2nTAgAH79+83Z0JEULevnUar8Ypq9WbtVAEj329tXk7qzji9+DvVRC1jyOm++eYbc76QeHlx4vLS2hch3ER8Ue8N65Ru4jFbLbGeXaaEM0u48/hqsI5Ve9V6OMXGxqakpGRlZY0dO7a0tNScz6Lako2s3aGWuljlF7fkojO8dIB3xtavUbd59M9//lOUeejQIfOOKmIiTktL6927t8i2Z8+etWvXjhw58t///d/N+epcbTSFVvWJ18svv9ycauf48eOtWrX65S9/uWrVqu+++27dunVTpkx566235N5wqhfOsVL4JTgh2utFbTSFVpNo13y9DYRzOSdPnjQnOatRZheEfb2ojabQahL2Sk/yxqAVL3Cvv/76Tp06mTOFza8hVq1qr9eoRplDELQhI6/XOjnL9AsuuOC1117TEx9++OELL7zQ3/ZxqkBN+RtOf/jDH8SbogYNGmzevNm8z6C2o8Wdl7O7NIuXw124lFwjfgVAyGQF5HT3+eefX3zxxWLeNmdCRFClr62Dy2m0Gq+o9m7WmnMFdLVxa6v2pJpdWxkZp5fQphr38qOQMeR0p06dMucLm21/ub+09i6A3Vq/DeuSbuIxWy2xnl2muM8SHtlGhcdXg3Ws2qs2htOWLVvefvvt7t27t2/fvtr/2K62ZCNrd6ilLlb5ra0j3lZdeumljRo1Ou+88wYOHKi3dWVl5TPPPNOuXbtzzjmnZcuWTz75pGYpxNg9xl0xZxMp4nDxEkceJV199dXDhw83pmhVQf/nP/9ZzKripB07dnz55Zf1XdYyjX7xi19Yb/D6tbgUK6v9wQcfXHHFFeeee252drZ49SAm9CuvvFI8Ff9u3brVmPOjjz666qqrxC7x/nPatGnGXbbNcnatf6y2Mb/c/vDDDy+//HLRC+KM//rXv2S2EydOPPjgg82bN09ISOjTp4+4tejF3nLLLQsXLpTZ/va3v4m3x3FxcRkZGZMnT5aJOvHiUhy1a9cuU7p0du3+t3ou1yKaUbzxlvW56aab3njjDX2XIG5+om1FC2dmZo4aNUq/W7hc4Nkn/7Fx3C/HI9NV6Ij2mIiOds1SPSOnELXtfc3uclyuXW4vXrxY3KFFObLCTme0Zq72urxwunbCPiaiw165Sd7IVBnRTeKpeHOlZ3A/qW1n6Xs9jken5nXKX9PrdRqAtpn1BnnhhRfS0tKM77sGDBggOkVuO9XNKLQh4xIeLhduO5mYSjOVrJPp4iquvfZamfLDDz+Iax89erR+as35kuXhYQ5wyf0Uvs/YwrFjx1JSUhYtWnTdddeJoWfc5TIYa3rJ1U5Exmy2lxZzNuNRxmapUag7RaBtyba1qinjZRq51MRlivbYtkamCsyePVtckYh2zXmWcKmA5hyxqHch9LVtkFsTlyxZkpSUJBeJtm3bJs5y7733yswijHv16qW5hrR1cLlMNUamK/J+s7Zegnv+qkni/+j5daHd2jTXcWp7Utu2ci/c9mbndKXW8vXSoFma0brLy03Qabi59Jfk/tJa89ytQ4cOdXotZzyv04sozflEIbO9XuOuWm1Y2zy2o1LucnrN5jQY9+/fn56e/sQTT8inGzZsEMeKGVg/0CNr5WWKvNKaTmvyWJfB7vJq0Ck2nNKdWsZ0RcbLcemFmLPJRCNrQ4lr6dSp0x/+8Af51ClUbEt2yuweDE5H1bSbao9Nw/nI2gfS66+//vHHH+/Zs+cf//hH165d77zzTpn+6KOPNm3a9O233xa7vvjiC/kZq2rjQ+6aO3eu2N6yZYv870Gt6m/rRBOvXr1aHihCR2QQA08+1d1///0tWrRYsGDB7t27X3rpJdGL//Vf/yV3WcvUff/997GxsSI0jYlGLsXKavfo0WPlypWiVldffbWY13JycsSMJp/KF0x6zvbt21vLcWkW22ob88ttcSJxO/nmm29ETcTZZbb77rtPDFox4MXpXnnllfPPP18vViduP+Lan3766W+//VZ0k6ibca8g0kWGiRMnyleEJtbquVzLH//4R3Gjkpf/wgsviFeE+q4xY8aI8SwmL9HRYgS2adPm8ccfN5Zge4HWs1d7OR6ZrkJHtMdEdLRrlurpXELUtvc1u8txuXa5fdlll4nQEtUTeVzOaMr81VdfVXtdXjhdO2EfE9Fhr9Ykb2KszJEjRwYNGtS5c2d9b7Unte0sfa+X8ejUvE759cK9X6/TALTNrDfIoUOHxAtW/c/Djx49mpCQ8O6772quddOFPGRcwsPlwm0nE1NpppJ1Ml20Q+PGjcX7SZHy97///Sc/+cmyZcu8h1+YA9zLKXyfsbWq2BDvQMRbNfEWVHSHXASUXAZjTS+52olIz+Y0HFxi1TjKahTqThFoLdmvBje2hpFLTVymaI9ta2SqwH//93+L66qoqNCcZwmXCrhELOpdTfvadujZJop7QcOGDUWkiW0RrmJm0D9Tf80114wbN05zDWnrsHWZaoyMV+T9Zm17CS75NYfpQhfyrU1zHae2J7W2VbWFW292LldqLV+mQzINIusuLzdB2+Gml2DtL923ri+tvXfrtm3bnF7LGc/r9CLK5UQhs71e465abVjbPLajUu5yes3mMhg/+OCDc845R1zCsWPHunTp8tvf/lam14i18jJFzI0hTGvyWJfB7vJq0Ck2nNKdWsZ0Rfrl6Nu2vWA7NxpZG0p47rnnxEsXue0UKrYlO2V2Dwbbo0LoptoTY07wlWydRAPRRqY88+bNE+mnT58uLS0Vbffqq6+aMlQbH8YRa3qJ8Ktf/Ur/uIGIyyuvvNK4V6t60SDGpOgnPUVk01+72JYpialH7BJdZd5RxUuxIjLkUzG0xNNPPvlEfypeS8n/4ZE5TeVcdNFF+i6XZjFV29pW4t2s3CXmfXFGcUcpKSkR1RZDVz/qsccesxYlojbGbinNaMqUKeKOkpSU9LOf/ezhhx8Wh+i7rNVzuhZRH3GXMl7+n/70J7mrvLw8Pj5eTKb6rrfeeis1NVVuO12gvst4di+X44UsmWjX7IqN7Gg3VU9yCVGn3tfsLqfaa9dvIS5ntGb2cl1eyGIJe82u2MgOe4UmeROZQYar2OjYsaNc59W8DSLbztL3ehmPts3rkl8L73r1Aag5ZJaJsnf69Omjv8B94403kpOTjx8/7l43XchDxlgB/akx1K0X7jSZaGeXZirZmuc3v/mNfKktZpJx48bpp3a/ZJktzAHu5RS+z9hCz549xfsN7cyfL8yZM0emuwxGreaX7D4RGbM5XZreF9ZEvVlM3EPdJQI1S8lOtaopY2voXGriPkV7bFsj4yHiX9H74r20KY9maDqXCrhHLOpdTfvaNshtE4Xs7OynnnpKbAwcOPCJJ55o3Ljx3r17RUiISWPFihUuIa1ZBpf7VGMkD6zpzdr2Elzya3bThVHItzbNdZzantTUVl4KN93svFyp0xQKY8hJmZmZxl1eboJG1ruS+4sTp5fWNe1W29dyek5xXqcXUe4nClm9N6w1j8uotH3N5j4YhQceeKBt27a//e1v27Vrd/ToUT3dO2vlZYqYJUKe1lwGu9OrQafYcEp3aRnTFemXo2+79ILThKxZipWWLFkiEk+cOGFM1OxCxaVka2bbYDBxv6u6d1PtqYtV/jVr1mw7Q3bep59+2qtXrxYtWohZTLxQEHlE3KxevVpsWFeIqo0P44g1ddv8+fNTUlKOHTsmZoeWLVvm5+cb92pn7tzGky5atEikyM8+2JYpud/yvRS7b98+uUs+PXjwoPGpGDD6tm05xmvXcxqbxfZ1g7GtTBUQZ5TV3rNnj36UPJ2pKNGJWVlZomHF/UNMvtaZVxJ9+v7774u3zdddd11sbOxzzz0n063Vc7oWa0jo9RFBFXP23UIGkpxVnS7QWLhepsfLqZYsmWjX7IqN7Gg3VU9yCVGn3tfsLqfaay8sLJS7XM5ozezluryQxRL2ml2xkR32mjqTvInMIMr/17/+NWPGDPHadO7cuXKXl5Naa2vsdC/j0bZ5XfLrhXu/XtsB6JRZJsreEa/yxSHlVb9Je+ONNw4ZMkSrrm66kIeMsQLa2ZV0unBr5OiMpZlKtub58MMPW7VqJUZEo0aNRM31U7tfsm2tajrAvZzC9xlbTNFxcXF6fcQ7FtHLctvapMbJoaaX7D4RGbM5XZrMYBurerNoNQl1lwjU8/ve4MbW0LnUxH2KNpYmt23b1kimywATs/SVV165ZcsWucu26Vwq4B6xqHc17WvbILdNFEaMGPGLX/xCbIgJU8wVPXv2fOuttz766KOEhIQTJ064hLRmGVzuU42RPLCmN2vbS3DJr5/IWgEp5Fub5jpObU9qaisvhZtudl6u1DiFwki2j/FNzc6dO427vNwEbYebnsf9xYnm8NK6pt1q+1pOzynOax2GkvuJQlbvDWvN4zIqbUec+2AUxEanTp0aNGggcup5asRaeZkiZomQpzWnwV6jV4Pu6S4tY7oi/XL0bZdecJqQNbuGEhYvXhxzZpXfPVRq9I7J9rqcjgqhm2pPXazym/pAtGyTJk0GDx68cuXKrVu3zpw5Uza3U+j84x//MBby8ccf691jLN+220Rbt2zZ8o033liwYIF4IVJSUmLcq7nGpeZQpuT+53teirWNeNNTuW19tS3KqbZZbF832M6Aen7r6xg5YKwt8MMPPyxcuHDo0KFNmzbt06ePaa/V2LFjxRiorKzU7KrndC0yJKyXr1d1xYoV+t1CMp7CeoGmbV1NL8eW6aQS0e7SF6anctva3cGPdtMpJJcQdep9ze5yqr12fZfLGa2ZNQ/X5YW1WI2wtzSL6SzGp3JbxbA3Cfgkb2Q69oEHHrjwwgvlX6p6Oam1trad7l6UtXnd89foeg87DEDbzHqiLFxci3h5+tZbb4lX3g0bNpSfrnKvmy7kIeMUHprzhTtNJnoe24FgzSMuQfR+Tk6OfHujl+9+yU61sj6V27YxU6NTaHYxE4IRI0aIYuPOaFBFVs9lMGqW+lR7ybbt75TN9tJMpzAm6gXWKNRdIlDP73uDW4vVXGviPkUbSzOVbL1eY7p4k7l9+3YxQvV0p6ZzqYB7xKLe1bSvNYcgt01csmRJYmLi5s2bk5OTT506NWbMmHvuuefPZ76U3yWkNUusuk81RqYDvd+srZfgnt9p+Egh39o0yyUYT2R7UlN+74Xr216u1DQjQefSPqZdpu7Tn7oMN9v+OlO8Pf2ldU271fa1nDGn04so9xOFzFpDp116S5qehtmwLnmMZ5Tb1tlJvzs7DUat6mtjxftQ8crqrZr/YLL02WefiQK/++47PUV+Pv3YsWNaqNOatSmkal8NWmPDKd2lZUJ4eW/atmV7ac8++2xGRobmesuzllxtZttgcDmqpt1Ue+phlV9GsN5kkyZNku3i9GcgX331lcjwzTffyKdTpkyxjY9PPvkkxvBff7qRI0f+/Oc/F6181113mXZpZ/421ulvMayhYHT99df/8pe/NCXKzF6KtQ1r01O5/cYbb8hdWtWYlOW4NIttUxhP6lSBI1V/cfPOO+/oR4nWc2kB7czfVcnZx8X8+fNjz3w7pLV6Ttci/6jTePmPPPKI3HX06NHGjRu/+eab+i4jpwvU7M5u5PFybJlOKhHtLn1heiq3VYx20ykklxB16n3N7nJcrt10XpczapbMRk7X5YVtsYS9U9RZn8ptFcPeRJVJXrMcK16Y6i/KvZzUtrP0vR7Ho05vXvf8NbpepwFom1mzFH733Xf/6le/mjp1aqtWreRrUPe6GYU2ZJzCQ7PUTb9wp8lEcx0ItnnkL+7KP1XWy3e/ZKdaWZ/KbduYqdEpjDwOSauTJ0+mp6c//fTT/2Nw2WWXyd9PcxmMmqU+1V6ybfs7ZdMZL81LrNYo1F0iULOUbBRyg2sOxbrUxH2K9ti2RrYV0JybzqUC7hGLelfTvjbmsQ1yY+LRqq/m/+1vfyt/hFacq3379vqX8ruEtMxsrJj7VGNkOtD7zVrn8Q5rnS5MQru1aZZLMI5T25Na28pj4fq2+5WayoeJS/u4dKXxqctws+0vmc2J/tI6hG61vpYz5nR6EeV+opDZ1tB2l96SpqdhNqxLHuMZ5bbtazb3wfjDDz9cfvnl/fv3f+6558477zzrUrgXxcXForsXL16sp4gXbHLl2sjjtObUFFp1rwadYsMp3aVlQnh5rznMjUbWSztW9eu7999/v+Z6y7OW7JLZJRhcjtJ57KbaUw+r/IWFheImLe7ou3btmjdv3gUXXKC3i4iJ1NRU8eJyj+EnHU6cONG8efM77rhD5F+yZEm7du1s40MMJ7EtIm///v3GM+7YsaNBgwbipck///lPPdFI/hD5woULxUlffvnlcy0/a2PqM93WrVtbtGjRu3dvUbI4VsTxqFGj5KsfzUOxtmFteiq3O3To8P7774tyXnnlFREl8nerXZrFtimMJ3WpwH333SdmEzG/iNOJ9hdTQIzlT4BXr149bdo0MWK3bds2aNCgzMxM+fVVuk8//VRMc3PnzhUZRDmi8mLg6S1jrZ7LtQwbNuz8888XJYijxIWLBtd3PfHEEyJaxJwif2dGhI3+S98uF2g9e7WX45HppBLR7tIXpqdyW7lo186UKf5dZyBeUbmEqG3va3aX43LtpkvTajIovFyXF9Y6aIS9pVlMZzE+ldvKhb1ak7yJ6Vit6gtM9e8vrvaktp2l7/UyHp2a1ym/tXD363UZgNbM1sKXLVsmRlOXLl1ECTJFc62bUWhDxiU8XC7cdjIxHWLtFGse8d7sQNWH+vX0cMLP9FRuO8WM91M4xUyNzJ8/X/Ss8UO+wsSJE9u0aSNLcxmMNb1k2/a3zeZ0aV5itaah7hSB1pKdalVTstjllpcHLjVxmaI9tq2RKZvOpelcKuASsah3Ne1r2yC3TZTlZGdniwlk0qRJYvv48eNiKhPFrlixQu51CWlrxVymGiPrgV5u1k6X4JRfc5gujEK7tWmWSzCOU9uTWi/ZY+HGbZcrtZYPI9k+mzZtkj/OKcnvAHHpSuNTp+FmKsG2I9xfWte0W21fyxlzOr2IcjlRyOq3Yd3zGM8ot51es7kMxhEjRogqiULEbHPDDTf07NkztE9qiymuc+fOYp4pKCgQlyk6IuRpzakpNA+vBp1iwyndqWVCe3lvOzcaycwynMTkLOrTvXv39u3bi/ya8y1PsyvZJbNLMDgdFUI31Z56WOUXRDO1bNlStFSvXr1EfOitKcbDU089JSJMNJxoF/kBAeHDDz8UYSEiJjc3VzSQU3yMHz9eFNugQQOReOZU/+vnP/+56CFjitHJkycff/xxcbpzzjmnY8eOL730kr7LGHC2RJf/x3/8hzhWDBVx+7/tttu+/PJLuavaYm3D2vRUbovLFy+txOWLGJoyZYpejlOzaHZNYTypSwXEaHzggQdEICYkJPz6178WwyDG8LdI0ubNm0WTNmnSRFyaqJgIaONeYe/eveJNgpikRN1EnrZt2z744IMlhm/SsFbP6VrE2++HHnqoWbNm8fHxv/zlL9944w3jZb7wwgvdunVr1KhRYmLiT3/6U72RXS5Qs5y92svxyHRSHdHu0hfGp3JbuWjXzpRpcrTq29acQtSp9zW7y3G6dtOlSU5nNGX2cl1e2NZBI+ydo870VG4rF/ZqTfImpmO1M39D+sWZXzlzP6lTZ1mL1RyKcmle2/yapfBqr9dpANpmNhUuBmmrVq1iLL8f5VQ3k9CGjFN4uFy402RiPMS2U6pNDzP8jE/ltlPMaJ5P4RIz3t10003XX3+9KXHHjh2yhprrYKzpJdu2v202l0urNla1Goa6SwSaSnapVY3IYk2OVn11uFNNXKZoj21rZG0xnVPTuVRAc45Y1Lua9rVtkNsmSvIbHvQbZc+ePeWX8sunLiFtrZjLVGNkPdDLzdrlEmzzS9bpwiS0W5v7OLWe1HrJHgs3Heh0pdbyYSTbx2TJkiX6LqeuND61HW6mEmw7otqX1jXqVtvXcsacTi+iNOcThax+G9Y9j/EUctvpNZvTYPzHP/4hpgVxrHxaVFQkpgj5c+U1Jbr73nvvTUtLEwW2bt167Nix8rvdQ5jWnJpC8/Bq0Ck2nNKdWkYL6eW9Zjc3GsnMQmxsbHJy8pVXXvnkk08aR4pTqGh2JTtldg8G26NC6KbaY9NwkadTp04TJ040p6rAZXzWjQkTJogpxpyKACPaQ0a0q4uwDxlh7129dxaAaFPvU3S9VwAAAADeRfgq//79+59//vn4+Hj9F5zVUvdrCuvXr3/jjTe2b9++a9eul156KTExUdG1syhEtNcU0R4BCPuaIuxDVvedBSDa1PsUXe8VAAAAQMgifJVfvCFv3ry5/qVRyqn7NQXx4v7KK68Ur+kbNmzYvn178co+tK8VQ90j2muKaI8AhH1NEfYhq/vOAhBt6n2KrvcKAAAAIGQRvsofDT777DNzEhC5CHgA/mJWAYKD8egLmhHQMRygLqI3TDSgEugmf7HKr7y8vDxzEhC5CHgA/mJWAYKD8egLmhHQMRygLqI3TDSgEugmf7HKrzyGBKIKAQ/AX8wqQHAwHn1BMwI6hgPURfSGiQZUAt3kL1b5lceQQFQh4AH4i1kFCA7Goy9oRkDHcIC6iN4w0YBKoJv8xSq/8hgSiCoEPAB/MasAwcF49AXNCOgYDlAX0RsmGlAJdJO/WOVXHj9VgahCwAPwF7MKEByMR1/QjICO4QB1Eb1hogGVQDf5i1V+AAAAAAAAAABUxSo/AAAAAAAAAACqYpUfAAAAAAAAAABVscoPAAAAAAAAAICqWOVXHj9VgahCwAPwF7MKEByMR1/QjICO4QB1Eb1hogGVQDf5i1V+5eXl5ZmTgMhFwAPwF7MKEByMR1/QjICO4QB1Eb1hogGVQDf5i1V+5TEkEFUIeAD+YlYBgoPx6AuaEdAxHKAuojdMNKAS6CZ/scqvPIYEogoBD8BfzCpAcDAefUEzAjqGA9RF9IaJBlQC3eQvVvmVx5BAVCHgAfiLWQUIDsajL2hGQMdwgLqI3jDRgEqgm/zFKr/y+KkKRBUCHoC/mFWA4GA8+oJmBHQMB6iL6A0TDagEuslfrPJHnS+++CImJub48eNfffVVYmJiRUWFOUcVPZt5B8Im2/bkyZPmHQYeu0mjpwAAAAAAAIDoxip/JFu7du3NN9/crFmzhISE1q1bDxs27MCBAx4XhavNJjOsWLFCLljLp4lVkpOTr7/++q+//tp8TBhc6mM8dUpKyq9+9att27aZMwWJvspvakNrHtvrNfGeEwAAAAAAAEDkYZU/Yi1fvjwpKWnKlCklJSXi6e7du0eMGLFkyRKPi8LVZrNd5Zf5jxw5MmTIkEsuucR8TBhc6mPcdejQoTvvvLN79+7mTPXnxIkTphRW+QEAAAAAAAD4hVX+iNW1a9cJEyaYUw2LwsbV4aNHj953331paWmJiYldunRZt26dce/GjRvbtGnz17/+1VqO7Sq/8Omnn8bFxemZS0tLhwwZkpqampKSMnjw4PLycpk+efLkzMzM+Pj4jIwM/Tc3rJmPHDki8sSc+cD+888/r5esWZa5xakbNGggt/Pz8y+66KKkpCRRVN++fYuKimS67XmtiXPnzu3QoYPcO2rUKHGWHTt2iO3Vq1cnJyfLdfl9+/aJkps0adKsWbNhw4bJNX1Zpddff10c3qhRI5GzsLDwuuuuS0hIEP0ydepU76v8po333ntPXJGo5OWXXy76xZhTc+gpAAAAAAAAABGMVX7l2f5URWFhob4kbWJdPhaJffv2/bd/+7eCggKxvW3btj179uh7P/zww/T09Hnz5pkLOpuxtIMHD951111XX321vrdfv359+vQpKSkpLS3t1avX8OHDReKuXbvEIUuXLhXbYteGDRtcMpuW8o2Mu77//vs777wzKytL7lq4cOH27du1qrV4UdRNN92kOZzXNvHw4cNxcXG7d+8W2z169OjQocMLL7wgtsePHy+LEkSxovXKysqKi4u7des2YsQI7UyVbr/9dlHUsWPHREpubq6eTVTPuqxvYu0muXHHHXeIWlVUVAwaNEhUyZjTY0+pzjbgASBkzCpAcDAefUEzAjqGA9RF9IaJBlQC3eQvVvmVp38U3Wj9+vUxMTFHjx4177BbPt6/f7/YEIdYs02bNi0jI2PVqlXGXbZk/pSUlKSkJLHRunXrwsJCuevAgQOxsbFbtmyRTxcvXty8eXOxsXfv3ri4uOnTpx85ckQvxylztav8KVXS0tL69eu3a9cucyZNW7ZsWXx8vOZwXttEISsr65VXXikpKRGFi41bb71VJObk5EyZMkVsFBUViVNv3rxZZn7nnXfS09O1M1XSfx7AlG327Nkxoa7yy/9yED755JOGDRvqOb33lOpsAx4AQsasAgQH49EXNCOgYzhAXURvmGhAJdBN/mKVX3m2Q+K7776LiYnZuXOneYfd8rH8L4GysjJrtvPPP////b//Z0x3opd2+vTpVatWNWvWbPTo0XKXLF+uwgvJycmNGzeurKzUqr4SJycnJykp6aqrrlq+fLlL5mpX+W13ifKzs7ObNm0qypH//XDq1CmZbjqvU+LIkSMHDBgwf/78G2+8saioKDU19ejRo+eee+6mTZvE3nXr1hmb7vPPP4+NjdUsVbJmiwl1lV8vUz7Vv/bHe0+pzjbgASBkzCpAcDAefUEzAjqGA9RF9IaJBlQC3eQvVvmV5zQkunbt+tRTT5lT7ZaP5Wf59S/MMWbbvHlz27Zt//znPxt32TKtQb/00kuNGzfeu3ev2C4uLha79I/2W1VUVIwZM6ZZs2aac+a1a9cayzdyWuWXH89/++23Rfni6ccff2xaWzee1ylRHHX++ecPHTr02Wef1apaddy4cRkZGXKv6UP67777rvGz/HqVfPwsv9Mqv/eeUp1TwANAaJhVgOBgPPqCZgR0DAeoi+gNEw2oBLrJX6zyK89pSCxfvrxJkybTp08vLS0VTwsKCkaOHPnBBx/YrhrfcsstOTk5cm3d9L383333XefOnf/4xz+ePn3adAoj0xr0yZMnO3TooH+6vHfv3nfcccfBgwe1qiXvjz76SGzs3LlTbJw4caKysnLSpElpaWkumeX35stP0Js4rfLv2LFDpC9ZskRs7969u2fPnnJZ3Pa8tola1aJ/fHx8cnKy/F+QBx98UGwPGjRIP0tubm6/fv3Ky8v37dt32WWXPfLII5pdlUTz6tmys7N9X+X33lOqcwp4AAgNswoQHIxHX9CMgI7hAHURvWGiAZVAN/mLVX7lufxUxdq1a3v37t2sWbPExMTWrVsPHz78+++/t101Li0tveeee5o3b56UlNSlS5f169cb9+7fv7979+533323/JodW9Z17TfffFOc98CBA1rV79nq5Xfs2HHy5MkiccuWLdnZ2U2aNImPjxfl61+SY5tZuP/+++XX+MyYMePHc1Sxnlo3ceLEFi1aiHKysrLy8/PlsrjteW0Tpeuvvz4tLU0unS9atEgUMnPmTH1vUVHRzTffLA5MTU0VNZR/N2CtUkFBQW5ubkJCQteuXadOnVobq/yat55SnUvAA0AImFWA4GA8+oJmBHQMB6iL6A0TDagEuslfrPIDAAAAQKAVFxfPmjXr8OHD5h0AAAAAq/wAAAAAEHwrV67s0KHDfffdt3r1avM+AAAARDdW+QEAAABAAYsXL87IyGjZsmWPHj1efPFFPtoPAAAAiVV+AAAAAFDD4sWLMzMz09PTL7744rZt2/LRfgAAAGis8kcAfqoCUYWAB+AvZhUgOBiPHukL/ULbtm0vuugi40f7aUZAx3CAuojeMNGASqCb/MUqv/Lk63sAAAAA0alVq1bi344dOy5btiwvL8/8hgGIVgwHqIvoDRMNqAS6yV+s8iuPIYGoQsAD8BezChAcjEePZs+enZGRIdf3L7300m7duv3sZz/TP8tPMwI6hgPURfSGiQZUAt3kL1b5lceQQFQh4AH4i1kFCA7Goxdyib9Vq1Y//elP27VrN3ToUNP38tOMgI7hAHURvWGiAZVAN/mLVX7lMSQQVQh4AP5iVgGCg/FYrdmzZ2dmZmZkZBg/vG9CMwI6hgPURfSGiQZUAt3kL1b5lcdPVSCqEPAA/MWsAgQH49HdypUrO3XqZP3wvgnNCOgYDlAX0RsmGlAJdJO/WOUHAAAAgEArLi6eNWuW7Yf3AQAAAFb5AQAAAAAAAABQFav8AAAAAAAAAACoilV+AAAAAAAAAABUxSq/8vipCkQVAh6Av5hVgOBgPPqCZgR0DAeoi+gNEw2oBLrJX6zyKy8vL8+cBEQuAh6Av5hVgOBgPPqCZgR0DAeoi+gNEw2oBLrJX6zyK48hgahCwAPwF7MKEByMR1/QjICO4QB1Eb1hogGVQDf5i1V+5TEkEFUIeAD+YlYBgoPx6AuaEdAxHKAuojdMNKAS6CZ/scqvPIYEogoBD8BfzCpAcDAefUEzAjqGA9RF9IaJBlQC3eQvVvmVx09VIKoQ8AD8xawCBAfj0RchNONXX32VmJhYUVFh3uHqiy++iImJOX78uHlHRJNXffLkSfMOnG3ChAmpqakirpYvX27eV4dCGA5AQBC9YaIBlUA3+YtVfgAAAACIZHJtOjExsUmTJuedd95ll102YsSI4uJic76aYJW/VgW8ed2rJ0IrNjZ29erV5h0AAKDWsMoPAAAAAJHMuCZ76tSp9evX33XXXWlpaTt27DBn9cx9nTcynDhxwpRS7Sq/9ZDQeGxev05XU+7V+/LLL132WtXXVQAAEElY5QcAAACASGa7JnvLLbf079/ftHfy5MmZmZnx8fEZGRny23Ll3pdffrl169ZJSUmDBw+WOY1H5efnX3TRRWJvSkpK3759i4qKROKMGTO6deumn2779u1xcXHffvutnqI5F645lKnZ1dA2ce7cuR06dJB7R40aJc4i/0tj9erVycnJcpl+3759ouQmTZo0a9Zs2LBhcq1ZVun1118Xhzdq1EjkLCwsvO666xISErp27Tp16lTrKr/1kNLS0iFDhqSmporKi4sqLy+XOa31FKyZjxw5IvLEVP35hfD888//38lqcjrbmpuCwfj/Fk7lmKrtXr158+bpe88//3zNWzuvWrVKPJ0zZ06XLl1Eha+44oqNGzfOnz9f1FyU1r1796+//tp4FgAAYMIqPwAAAABEMttV/nnz5jVv3ty4d9euXWJj6dKlIrGkpGTDhg363ttuu62srKyoqKhbt24PP/ywqcyFCxdu375dq1rP7dWr10033SRLSExMXLNmjTzdyJEjb7jhhh/PfYZT4ZpDmbY1tE08fPhwXFzc7t27xXaPHj06dOjwwgsviO3x48fLogRRbN++fcWpi4uLxalHjBihnanS7bffLoo6duyYSMnNzdWzZWVl6WviOush/fr169Onj3haWloqzjJ8+HDNoZ5OmW27TPJ4Os2h5i6r/Lbl2FbbpXqaZa+XdpZP+/fvf+jQoYqKisGDB7du3XrgwIH602uuueascwAAgLOxyq88fqoCUYWAB+AvZhUgOBiPvrBtRts12ZUrVzZo0MC4d+/evXFxcdOnTz9y5IieTe7dvHmzfPrOO++kp6cbj9JzSsuWLYuPj5fbv/vd7+69916t6muCMjIy3nvvvbOyOhduopdpW0PbRCErK+uVV14pKSlJSUkRG7feeqtIzMnJmTJlitgoKiqyPbWs0rZt22S6Kdvs2bP1NXGd6ZADBw7ExsZu2bJFPl28eLH83xTbejpldmpefVe1p3OqudMqv1M5ttV2qZ529l6P7Syfyv+VEVasWCGeFhYW6k8bNmwot2vEdjgASiB6w0QDKoFu8her/MrT/9ITiAYEPAB/MasAwcF49IVtM9quyVo/y69VfdFNTk5OUlLSVVddtXz5cn1vWVmZPOrzzz+PjY21HpWdnd20adPk5GRxrEg/deqUSF+zZo1IKS8vX7BgQVpa2g8//PDjuc9wKlxzLtNaQ6fEkSNHDhgwYP78+TfeeGNRUVFqaurRo0fPPffcTZs2ib3r1q2zPbWprazZYhxW+fVD1q9fL56mnCHq37hx48rKSs2unk6ZbbtM8ng6p5o7rfI7laPZVduletrZe63VsG1n26d6O5ueemc7HAAlEL1hogGVQDf5i1V+5TEkEFUIeAD+YlYBgoPx6AvbZrRdk+3Xr9+AAQNs91ZUVIwZM6ZZs2b6Xv2z2O+++678snX9KPlZ77ffflscJdI//vhj44Js9+7dX3vttZtvvvnRRx/9sXQDp8Ldy9TOrqFTojhKlDZ06NBnn31WPO3ateu4ceMyMjLkXtNnzMWpbf9GwekT8fKpZDqkuLg4xvA5dCtjPZ0yr1271tplksfTOdV848aNYuPAgQMy/f3335fpTuXojNV2qZ52dg09trPtU1b5Ec2I3jDRgEqgm/zFKr/yGBKIKgQ8AH8xqwDBwXj0hW0zGpdQKysrN27cOGTIkLS0NPnF9/renTt3fvTRRydOnBB5Jk2aJDLoe2+//faysrJ9+/ZddtllDz30kPGoHTt2iI0lS5aIxN27d/fs2dO4IJufn3/JJZecc845W7du1eujcyrcqUzbGtomalWr0vHx8cnJyfKr5B988EGxPWjQIP3subm5/fr1Ky8vl6d+5JFH9CoZ169zcnL0bNnZ2dblZushvXv3vuOOOw4ePKhVLXOL6mnO9bTNLL8NX/7ZgYnH02kONRcHpqSkPPnkk6dOndqzZ89VV12lX5FtObbVdqmeZqmhl3a2fcoqP6IZ0RsmGlAJdJO/WOVXHkMCUYWAB+AvZhUgOBiPvrBtRrlImpiY2KRJk5SUlEsvvfSRRx4pLi427j1+/PiWLVuys7NFnvj4+O7duxu/m+Xll19u3bq1KOHOO+8sLy83HiW2J06c2KJFi6SkpKysrPz8fOOCbGlpqUjPycmRT02cCtccyrStoW2idP3116elpZ0+fVpsL1q0SBQyc+ZMfW9RUdHNN98sDkxNTb3//vvl3w1Y19ALCgpyc3MTEhK6du06depU63Kz9ZCSkpJ77rmnefPmov4dO3acPHmy5lxP28yCqJL88pwZM2acKfh/eTyd5lzzBQsWtG3bVqSL+rz00kt6um05TtV2qp5mqaGXdrZ9yio/ohnRGyYaUAl0k79Y5VceP1WBqELAA/AXswoQHIxHX/jejNY15Ro5ffp027Zt33zzTfOOKmEWDu9CXigPpuLi4lmzZh0+fNi842y+DwegzhC9YaIBlUA3+YtVfgAAAACAvTAX4mfPnp2eni4/vm0VZuHwLsJW+YWVK1d26tRp6NChq1evNu8DACD6sMoPAAAAALAXzkJ8Wlpaenr6ggULzDvOCKdw1EjkrfILc+bMyczMzMjIuOaaa1588cVqP9oPAEAEY5UfAAAAAACoZ86cORkZGa1atfrpT3/arl07PtoPAIharPIDAAAAAAAlyYX+9CrdunW75JJL+Gg/ACAKscqvPH6qAlGFgAfgL2YVIDgYj76Qa51ANMvMzBT/duzYcfr06eYRAiiCe2KYaEAl0E3+YpVfeXl5eeYkIHIR8AD8xawCBAfj0Rc0I6LNokWL5LK+0LZt286dO/fo0UN+lp/hAHURvWGiAZVAN/mLVX7lMSQQVQh4AP5iVgGCg/HoC5oRUUVf4r/44ovbtm173333Gb+Xn+EAdRG9YaIBlUA3+YtVfuUxJBBVCHgA/mJWAYKD8egLmhHRY9GiRRkZGS1bttQ/vG/KwHCAuojeMNGASqCb/MUqv/IYEogqBDwAfzGrAMHBePQFzYgosXLlyg4dOpg+vG/CcIC6iN4w0YBKoJv8xSq/8vipCkQVAh6Av5hVgOBgPPqCZkQ0KC4unjVrlvXD+yYMB6iL6A0TDagEuslfrPIDAAAAAAAAAKAqVvkBAAAAAAAAAFAVq/wAAAAAAAAAAKiKVX4AAAAAAAAAAFTFKr/y+KkKRBUCHoC/mFWA4GA8+oJmBHQMB6iL6A0TDagEuslfrPIrLy8vz5wERC4CHoC/mFWA4GA8+oJmBHQMB6iL6A0TDagEuslfrPIrjyGBqELAA/AXswoQHIxHX9CMgI7hAHURvWGiAZVAN/mLVX7lMSQQVQh4AP5iVgGCg/HoC5oR0DEcoC6iN0w0oBLoJn+xyq88hgSiCgEPwF/MKkBwMB59QTMCOoYD1EX0hokGVALd5C9W+ZXn+09VfPXVV4mJiRUVFeYdrr744ouYmJjjx4+bd0Q0edUnT54076hzEyZMSE1NFR23fPly877I4nvAA4hyzCpAcDAefUEzAjqGA9RF9IaJBlQC3eQvVvmjkVybTkxMbNKkyXnnnXfZZZeNGDGiuLjYnK8mWOWvVe7NK/ouNjZ29erV5h0AAAAAAAAAIh2r/NHIuGR86tSp9evX33XXXWlpaTt27DBn9cx9GToynDhxwpRS7Sq/9ZDQuDfvl19+6bLXyq9aAQAAAAAAAKh3rPJHI9sl41tuuaV///6mvZMnT87MzIyPj8/IyJDfliX3vvzyy61bt05KSho8eLDMaTwqPz//oosuEntTUlL69u1bVFQkEmfMmNGtWzf9dNu3b4+Li/v222/1FM25cM2hTM2uhraJc+fO7dChg9w7atQocRb5XxqrV69OTk6Wy/T79u0TJTdp0qRZs2bDhg2TS+GySq+//ro4vFGjRiJnYWHhddddl5CQ0LVr16lTp1pX+a2HlJaWDhkyJDU1VVReXFR5ebnMaa2nYM185MgRkSem6s8vhOeff/7/TqZp8+bN0/eef/75mrcLWbVqlXg6Z86cLl26iGu54oorNm7cOH/+fHFRorTu3bt//fXXxrMAAAAAAAAACCZW+aOR7Sr/vHnzmjdvbty7a9cusbF06VKRWFJSsmHDBn3vbbfdVlZWVlRU1K1bt4cffthU5sKFC7dv365VLTf36tXrpptukiUkJiauWbNGnm7kyJE33HDDj+c+w6lwzaFM2xraJh4+fDguLm737t1iu0ePHh06dHjhhRfE9vjx42VRgii2b9++4tTFxcXi1CNGjNDOVOn2228XRR07dkyk5Obm6tmysrKcVvmNh/Tr169Pnz7iaWlpqTjL8OHDNYd6OmW27TKdaa+XC5FP+/fvf+jQoYqKisGDB7du3XrgwIH602uuueascwAAAAAAAAAIJFb5lRfCT1XYLhmvXLmyQYMGxr179+6Ni4ubPn36kSNH9Gxy7+bNm+XTd955Jz093XiUnlNatmxZfHy83P7d73537733alVfE5SRkfHee++dldW5cBO9TNsa2iYKWVlZr7zySklJSUpKiti49dZbRWJOTs6UKVPERlFRke2pZZW2bdsm003ZZs+e7bTKrx9y4MCB2NjYLVu2yKeLFy+W/5tiW0+nzE7NKxn3erwQ+VT+t4ewYsUK8bSwsFB/2rBhQ7kdNCEEPAC4YFYBgoPx6AuaEdAxHKAuojdMNKAS6CZ/scqvPP2bXryzXTK2fpZfq/qim5ycnKSkpKuuumr58uX63rKyMnnU559/Hhsbaz0qOzu7adOmycnJ4liRfurUKZG+Zs0akVJeXr5gwYK0tLQffvjhx3Of4VS45lymtYZOiSNHjhwwYMD8+fNvvPHGoqKi1NTUo0ePnnvuuZs2bRJ7161bZ3tqU1tZs8U4rPLrh6xfv148TTlD1L9x48aVlZWaXT2dMtt2mc6411pD2wuxfapfiOlpoIQQ8ADgglkFCA7Goy9oRkDHcIC6iN4w0YBKoJv8xSq/8kIYErZLxv369RswYIDt3oqKijFjxjRr1kzfq39U/N1335XfBa8fJT+i/vbbb4ujRPrHH39sXC/u3r37a6+9dvPNNz/66KM/lm7gVLh7mdrZNXRKFEeJ0oYOHfrss8+Kp127dh03blxGRobca/oIvDi17d8oeP8sv35IcXFxjOFj8lbGejplXrt2rbXLdMYzerwQ26es8gOIQswqQHAwHn1BMwI6hgPURfSGiQZUAt3kL1b5lRfCkDCu8FZWVm7cuHHIkCFpaWnyi+/1vTt37vzoo49OnDgh8kyaNElk0PfefvvtZWVl+/btu+yyyx566CHjUTt27BAbS5YsEYm7d+/u2bOncb04Pz//kksuOeecc7Zu3arXR+dUuFOZtjW0TdSqFtPj4+OTk5PlN+A/+OCDYnvQoEH62XNzc/v161deXi5P/cgjj+hVMi6v5+Tk6Nmys7Otq+HWQ3r37n3HHXccPHhQq1qFF9XTnOtpm1l+ib/8swMr0xm9XIjtU1b5AUQhZhUgOBiPvqAZAR3DAeoiesNEAyqBbvIXq/zKq3ZIHD58eNasWcXFxXqKXMNNTExs0qRJSkrKpZde+sgjj+gZ9PXfLVu2ZGdnizzx8fHdu3c3fmPPyy+/3Lp1a1HCnXfeWV5ebjxKbE+cOLFFixZJSUlZWVn5+fnG9eLS0lKRnpOTI5+aOBWuOZRpW0PbROn6669PS0s7ffq02F60aJEoZObMmfreoqKim2++WRyYmpp6//33y78bsC7ZFxQU5ObmJiQkdO3aderUqdbVcOshJSUl99xzT/PmzUX9O3bsOHnyZM25nraZBVEl+TU+M2bMOFPwj0xn9HIhtk9Z5QcQhZhVgOBgPPqCZgR0DAeoi+gNEw2oBLrJX6zyK8/lpypWr179+9//vnPnzitXrjTvC5V1CbtGTp8+3bZt2zfffNO8o0qYhSMauAQ8AISAWQUIDsajL2hGQMdwgLqI3jDRgEqgm/zFKn8EOnz48N/+9rfLL7+8ZcuWbdq08XGJXwt7IX727Nnp6eny0+VWYRYOAAAAAAAAANGGVf6Isnr16rvvvrt169Zt2rS58MILO3Xq5O8SvxbeQnxaWlp6evqCBQvMO84Ip3AAAAAAAAAAiEKs8kcC/cP77dq1y8jISE9Pb9OmTW0s8QMAAAAAAAAAAoVVfuUtW7asTZs26QAAAAAAwMD8/hkAgAjFKr/yPvvss4MHD/7pT39q3759y5Yt5UuZ3Nzciy++mM/yI/Lw2ywA/MWsAgQH49EXNCOgYzhAXURvmGhAJdBN/mKVX3l5eXn69pIlS3Jzc+Vaf1ZWFgv9iDzGgAeA8DGrAMHBePQFzQjoGA5QF9EbJhpQCXSTv1jlV551SBg/2v+Tn/yEhX5EEmvAA0A4mFWA4GA8+oJmBHQMB6iL6A0TDagEuslfrPIrz2VILFmy5De/+U3nzp1Z6EfEcAl4AAgBswoQHIxHX9CMgI7hAHURvWGiAZVAN/mLVX7lVTskDh8+PGvWrOLiYvMOQEHVBjwA1AizChAcjEdf0IyAjuEAdRG9YaIBlUA3+YtVfuXxUxWIKgQ8AH8xqwDBwXj0Bc0I6BgOUBfRGyYaUAl0k79Y5QcAAAAAAAAAQFWs8gMAAAAAAAAAoCpW+QEAAAAAAAAAUBWr/AAAAAAAAAAAqIpVfuXxUxWIKgQ8AH8xqwDBwXj0Bc0I6BgOUBfRGyYaUAl0k79Y5VdeXl6eOQmIXAQ8AH8xqwDBwXj0Bc0I6BgOUBfRGyYaUAl0k79Y5VceQwJRhYAH4C9mFSA4GI++oBkBHcMB6iJ6w0QDKoFu8her/MpjSCCqEPAA/MWsAgQH49EXNCOgYzhAXURvmGhAJdBN/mKVX3mRMSS++uqrxMTEiooK847a98UXX8TExJw8edK8oxbolylPevz4cXMOD5wq7JQeYSIj4AEEB7MKEByMR1/QjICO4QB1Eb1hogGVQDf5i1V+5dn+VIVc8E00+PWvf23OZBDOonMdqNXq1cvieDhX5FRhp/QIYxvwABAyZhUgOBiPvqAZAR3DAeoiesNEAyqBbvIXq/yRqaaLyDXNL5w4ccKcdIbLrtD4Wz2TelkcD+GKdE4Vtk333g4AAAAAAAAAVMQqf2RyWkSW6e+9995FF10UHx9/+eWXb9y48ciRI2Jb/+z/888/L3KWlpYOGTIkNTU1JSVl8ODB5eXl+uGvv/56hw4dGjVqZFxQtu6yLUEoKCjIzc1NSEjo2rXr1KlT5cK0scKTJ0/OzMwUVcrIyMjLywunerbZhMLCwuuuu85Uhx+v5AzbY+Up5syZ06VLF3H4FVdcIRpw/vz5ohxRye7du3/99dfy8Pz8fNHISUlJ4vC+ffsWFRXph4vLdOog26M05wrbpntvB1NTuyQCAAAAAAAACCZW+SOT0yKyTL/jjjsOHz5cUVExaNCgHj162Obv169fnz59SkpKSktLe/XqNXz4cD3b7bffLtKPHTumZ7bdZVuC0LNnz9/85jfl5eX79u0TZzet8u/atUtsLF26VOQUx27YsEEvPITq2WYTcnNz+/btW1ZWVlxcnJWVpS+aG9keK0/Rv3//Q4cOiQYcPHhw69atBw4cqD+95ppr5OELFy7cvn272BCXKQ6/6aab9MNdVvltj9KcK2yb7rEdbJvaNhEAAAAAAABAYLHKH5nkOm+KwV/+8hc9fffu3TLbJ5980rBhQz1dX3Q+cOBAbGzsli1b5NPFixc3b95cz7Zt2zaZbmTa5VRCUVGRyKanz5kzx7gwLSqwd+/euLi46dOnHzlyRObRQq2eUzZZh82bN8v02bNn64vmOqdjTQ24YsUK8bSwsFB/KtvTZNmyZfHx8ZqHVX4j/SinCjule2wH26a2TQQAAAAAAAAQWKzyK8/2pyqcFpFN6fKp6QtzhPXr18cY/pMgOTm5cePGlZWVTsVqlpKdSli3bp1ILysrk9lWrVplrcDcuXNzcnKSkpKuuuqq5cuXey/cYzZTHT7//HNZB/nU/VinBrQ+FVeRnZ3dtGlTcay4FpF+6tSpalf5bY9yqrBTusd2kKczNbVTYnDYBjwAhIxZBQgOxqMvaEZAx3CAuojeMNGASqCb/MUqv/JsvzndaRHZaZF67dq1xvTi4uIYw0fUdU7FWnc5lbB3794Yw2f533vvPduFaaGiomLMmDHNmjUT26FVzymb00fgjXmcjnVqQNNT+Yn4t99+W1yFSP/4449Nl2m9Xu3M5+itRzlV2CndYzvojE3tnhgEtgEPACFjVgGCg/HoC5oR0DEcoC6iN0w0oBLoJn+xyq882yFhu4hsTddXpeW3sW/atEnP2bt37zvuuOPgwYNa1bL4Rx99ZD3cyLrLtgTh2muvHTBgwLFjxw4cOHDVVVeZFqZ37twpcp44caKysnLSpElpaWnamS+LD6F6ttmEnJycfv36yd8GyM7OlnXQj5Jsj3VqQNPTHTt2iI0lS5aIxN27d/fs2dN0mdaqCk5Hac4Vtk23Fm57LbZNbZsYKLYBDwAhY1YBgoPx6AuaEdAxHKAuojdMNKAS6CZ/scqvPNshIdd5Ew0uv/xyPd12kfr++++X3+gyY8YMreqXV++5557mzZsnJSV17Nhx8uTJ1sONrLtsS9Cq1q9zcnISEhK6du363HPPxcbGnj59Wj98y5Yt2dnZTZo0iY+P7969u/6NMaFVzzabUFBQkJubK+swdepUvRGMbI91aUDT04kTJ7Zo0UIcm5WVlZ+fb1p/t1ZVsj1Kc66wbbq1cNtrsW1q28RAsQ14AAgZswoQHIxHX9CMiAbFxcWzZs06fPiwecfZGA5QF9EbJhpQCXSTv1jlV57SQ+Ltt99OT083pwLOlA54AAHErAIEB+PRFzQjosTKlSs7d+48dOjQ1atXm/edwXCAuojeMNGASqCb/MUqv/KU+6mKzZs3y+/e2bVr1yWXXDJs2DBzDsCZcgEPIOCYVYDgYDz6gmZE9MjPz2/VqlVmZua111774osvWj/az3CAuojeMNGASqCb/MUqP+raypUr27Ztm5CQ0LRp0yFDhpSVlZlzAAAAAABQnUmTJqWnp1955ZW//vWvO3bs6P7RfgAAIhir/AAAAAAAQElyoV/o2LFj3759s7OznT7aDwBABGOVX3nyBQ0AAAAAALjyyivTqxb9ly1bZn7/DABAhGKVHwAAAAAAKOnTTz9t3bq1vsQvtrt16zZ16lQ+yw8AiCqs8iuPn6pAVCHgAfiLWQUIDsajL2hGRBV9iT8zM/OCCy7o37+/8Xv5GQ5QF9EbJhpQCXSTv1jlV15eXp45CYhcBDwAfzGrAMHBePQFzYjo8emnn2ZmZrZs2dLpw/sMB6iL6A0TDagEuslfrPIrjyGBqELAA/AXswoQHIxHX9CMiBIrV65s37696cP7JgwHqIvoDRMNqAS6yV+s8iuPIYGoQsAD8BezChAcjEdf0IyIBsXFxbNmzbJ+eN+E4QB1Eb1hogGVQDf5i1V+5TEkEFUIeAD+YlYBgoPx6AuaEdAxHKAuojdMNKAS6CZ/scqvPH6qAlGFgAfgL2YVIDgYj76gGQEdwwHqInrDRAMqgW7yF6v8AAAAAAAAAACoilV+AAAAAAAAAABUxSo/AAAAAAAAAACqYpUfAAAAAAAAAABVscqvPH6qAlGFgAfgL2YVIDgYj76gGQEdwwHqInrDRAMqgW7yF6v8ysvLyzMnAZGLgAfgL2YVIDgYj76gGQEdwwHqInrDRAMqgW7yF6v8ymNIIKoQ8AD8xawCBAfj0Rc0I6BjOEBdRG+YaEAl0E3+YpVfeQwJRBUCHoC/mFWA4GA8+oJmBHS1Nxy++uqrxMTEiooK+XTChAmpqakiZfny5Wflq0N6lb744ouYmJjjx4+bc3ggjz158qTHdNSe2oveKEEDKoFu8her/MpjSCCqEPAA/MWsAgQH49EXNCOgcxoOvXv3HjRokCkxJydn6NChpkQviouLY2NjV69ebd5RT1jljwxO0QuPaEAl0E3+YpVfefxUBaIKAQ/AX8wqQHAwHn1BMwI6p+GwaNGi+Pj4w4cP6ylbt26NjY3duHGjIZejEydOGJ9++eWXIa+q14Y6W+U3tQP85RS98IgGVALd5C9W+QEAAAAAQLSorKy88MILp06dqqf86U9/6tGjh9wuLS0dMmRIampqSkrK4MGDy8vLtTPL3K+//nqHDh0aNWq0atUquZI+b968+Ph4sZ2YmHj++efPmDGjW7duerHbt2+Pi4v79ttv9RTJ5RRz5szp0qVLQkLCFVdcsXHjxvnz53ft2lWconv37l9//bU8PD8//6KLLkpKShKH9+3bt6ioSD9cVMlpld/2KKGwsPC6664TZxQnEm2ir+bbppvaQaTYXoswefLkzMxMUfOMjAz947q2iQAAX7DKDwAAAAAAosjYsWMvueQSuX3ixIkWLVq8+uqr8mm/fv369OlTUlJSWlraq1ev4cOHa2fW0G+//XaRfuzYMeNKunFb7E1MTFyzZo0sauTIkTfccIPcNnI5Rf/+/Q8dOlRRUTF48ODWrVsPHDhQf3rNNdfIwxcuXLh9+3axsW/fPnH4TTfdpB/usspve5SQm5vbt2/fsrKy4uLirKwsfZXfNt3UDprDtezatUtkW7p0qVbVJhs2bHBKBAD4hVV+AAAAAAAQRQoLCxs2bLhq1Sqx/c4775x33nlyzfrAgQOxsbFbtmyR2RYvXty8eXPtzBr6tm3bZLrTKr/wu9/97t577xUbp06dysjIeO+992S6zv0Uu3fvlukrVqwQT0U99aeiwnLbaNmyZfHx8ZqHVX4j/aiioiKRefPmzTJ99uzZcjXfKd3UDk7Xsnfv3ri4uOnTpx85ckTuckoEAPiFVX4AAAAAABBd+vTpc/fdd2tVH1ofNmyYTFy/fn1MTEzKGcnJyY0bN66srDQtnbus8q9Zs0YcVV5evmDBgrS0tB9++EGm62p0Cv2r8P8/e/cfHmV15/8/EBSSTBJ+hBASa4iSFDAg4BWDpZUUa2uvlZ+RglHkQoqlgtbqRb1ca+leVRfXyFp/kErRpZouFkhhtUK9kLDFFqW4/NK6F0K0ASGDLIaERMIGuL9nOZ+c7+09cw9h5pCck3k+/vC659y/Zt7nvG93X04z7pdVVVXFxcV9+vQR5wYCATF++vTp86b8Yc/auXOn2GhqapLHvPPOO/IufuOei/t9Fnm7kpIScaPrrrtu8+bN8viwgwAALUj5rcdPVSCusOAB6MVTBTAH/agFZQSUyO2wfv36lJSUHTt2dOvW7f3335eDwWAwwfUNeiVsBB825RdGjRq1YsWKSZMm/eQnP1GDygXdIjTll9+IX7lyZUtLixjftGmTJ38PfT9O2/foQ8/y+86+37jn4n6fRRG3W7RoUb9+/c47CI/IqxfnRQGtwDTpRcpvPX6yBnGFBQ9AL54qgDnoRy0oI6BEboczZ87k5ubm5eV97Wtfc49PnDixrKzs2LFjzrk/aLNx40bHJ4L3S/krKiqGDx9+ySWXfPTRR2rQrf23CE35a2pqxMaGDRvEYG1t7bhx4zz5e+j7EfzOEi9LSkpKS0ubm5uPHDlSXFwceTz04mE/y8cffyw2Tp06JYr85JNPZmZm+g3CT+TVi/OigFZgmvQi5bceLYG4woIHoBdPFcAc9KMWlBFQztsOjz76aEJCwooVK9yDDQ0Nc+fOzcjICAQCBQUFS5YscXwieL+Uv7GxUZxbUlKiRjzaf4vQlF9sL168uH///uLcoqKiioqK9qT8fmeJ8YMHD44fPz45ObmwsPCZZ56JPB568bCfZe/evcXFxampqUlJSaNGjZJ/nCfsIPycd/UiMgpoBaZJL1J+69ESiCsseAB68VQBzEE/akEZAaWz2uHs2bN5eXm//e1vvTuAduus1dtlUEArME16kfJbj5ZAXGHBA9CLpwpgDvpRC8oIKJ3VDqtWrcrKypJ/AR+ITmet3i6DAlqBadKLlN96/FQF4goLHoBePFUAc9CPWlBGQOmUdsjMzMzKynrttde8O4AL0SmrtyuhgFZgmvQi5QcAAAAAAAAAwFak/AAAAAAAoAvK6mzeNwQAwMVByg8AAAAAAKAZKT8AoMOQ8gMAAAAAAGhGyg8A6DCk/NbjpyoQV1jwAPTiqQKYg37UgjICSqe3Ayk/otbpq9d2FNAKTJNepPzWKy8v9w4BXRcLHoBePFUAc9CPWlBGQOn0diDlR9Q6ffXajgJagWnSi5TferQE4goLHoBePFUAc9CPWlBGQOn0diDlR9Q6ffXajgJagWnSi5TferQE4goLHoBePFUAc9CPWlBGQOn0diDlR9Q6ffXajgJagWnSi5TferQE4goLHoBePFUAc9CPWlBGQOn0diDlR9Q6ffXajgJagWnSi5TfevxUBeIKCx6AXjxVAHPQj1pQRkBpTzvU19dXVlYGg0HvDh1I+RG19qxeREABrcA06UXKDwAAAAAA4su2bdvmz58/dOjQrVu3evdpQsoPAOgwpPwAAAAAACAu1NfXL1u2bOzYsdnZ2bm5uRcv4ndI+QEAHYiUHwAAAAAAdHHyy/tXXnnltddee9lll4mNixrxO6T8AIAORMoPAAAAAAC6JvXl/eHDh48YMSLrnA6I+B1SfgBAByLltx4/VYG4woIHoBdPFcAc9KMWlBFQRDtUV1fLWL+zeN8T0D48zGNEAa3ANOlFym+98vJy7xDQdbHgAejFUwUwB/2oBWUEFNkO//Vf/zVlypScnByVvP/whz8sLCzsgO/yA1HjYR4jCmgFpkkvUn7r0RKIKyx4AHrxVAHMQT9qQRkBxd0OLS0t//Iv/1JYWCiD/kmTJhH0w2Q8zGNEAa3ANOlFym89WgJxhQUPQC+eKoA56EctKCOghG0H9dX+7OzsK664gqAfZgq7etF+FNAKTJNepPzWoyUQV1jwAPTiqQKYg37UgjICSoR2kF/tnzp16tChQwn6YaAIqxftQQGtwDTpRcpvPX6qAnGFBQ9AL54qgDnoRy0oI6C0px3q6+srKyuDwaB3B9Cp2rN6EQEFtALTpBcpPwAAAAAAAAAAtiLlBwAAAAAAAADAVqT8AAAAAAAAAADYipQfAAAAAAAAAABbkfJbj5+qQFxhwQPQi6cKYA76UQvKCCi0A+zF6o0RBbQC06QXKb/1ysvLvUNA18WCB6AXTxXAHPSjFpQRUGgH2IvVGyMKaAWmSS9SfuvREogrLHgAevFUAcxBP2pBGQGFdoC9WL0xooBWYJr0IuW3Hi2BuMKCB6AXTxXAHPSjFpQRUGgH2IvVGyMKaAWmSa/oU/49e/bM7yoef/zxf7XWlClTvENA18WCB6AXTxXAHPSjFpQRUGgH2IvVGyNbCnjgwAFv3hpPSPn1ij7lnz9/fgIAAAAAAAAA4AL98pe/9Oat8YRf39Ur1pT/5ptvftxmc+fOFZ9iwYIFvwQAAAAAAACAi2zy5Mmk/NAr1pT/8ccf/9xmr732mvgUmzdv9n48AAAAAAAAANDtX//1X0n5oRcpPyk/AAAAAAAAgA5Cyg/tTEn55Z+jeu6557w7LjJSfgAAAAAAAAAdhpQf2hma8ndY6B9Fyi/fm/Dwww+7X0qLFi3ynnCB5HVCt/34/VSF37l+4xfDBd3rgg5uD/cF/S6uxsXEye2wh8EcfgseAKLDUwUwB/2oBWUEFNoB9mL1xsj8ApLyOzZMk12iDzTjPOVfuXLlnj173C+l999/33vCBZLXkdvy4l/e71VeXu4dOsfvXL/xU6dOeYdi5v4s53VBB7eH+5P6XVwdIyZOHOBXHJjDb8EDQHR4qgDmoB+1oIyAQjvAXqzeGJlfQFJ+x4Zpskv0gWYUKf8f//jHkSNHpqWlde/ePTU1dezYsX/4wx/kLpmuylhfbrt96SpaRZ3ye14ebdPc3KwGFy1aJD7sZZddVlVVddddd6WkpOTk5IiPLE9cvXp1bm7uJZdc0qtXr+uuu27Hjh2h1/fcS3GfKzbUufv27RsxYoS40c9+9jP3uX7jcvunP/1penq6/F8hiPf/ox/9aODAgT169LjyyiuXLl0qj/zVr351+eWXJyYmik8k3m2EQTf3vS7oYLn9yCOPiDfWv3//3//+92Jw5syZYvDNN98U2wcPHhSrSHwo58Ir6VcNz2EwE/8OAKAXTxXAHPSjFpQRUGgH2IvVGyPzC0jK79gwTXaJPtCMIuV/+eWXx44de8cdd8ydO7e4uFicnpSU9NFHH33+5ZR/3rx58mVJScm8c7wX0kfe6+233/Z+PH+eIFi+VGRWLrdvueUW9XdgxLbMlPPy8uSJ1dXVopkrKioeeeSRnj17jho1yn3B0G0397k9evRQ5950003ieFHeOXPmuM/1G5fb48aNe+mll7Zs2SJGZs+eLUYmT54sHjelpaViu6qqSoynpKQUFBSsWLHi2WefLSsrk6eHHXRz3+uCDpbbU6dOFR9QbAwaNEgMincotmfOnCm2n3jiiYRzC8a58Er6VcNzGMzEvwMA6MVTBTAH/agFZQQU2gH2YvXGyPwCkvI7NkyTXaIPNKNI+YW1a9f+4z/+49133/39739fJqq/+c1vPg/5Ez2elxfJggULxF3uu+8+72eLSL43z8uNbWpqatTg0aNHW1tb1fbZs2fFRrdu3eSJK1euzM7OlnuFxMTE0Ou7t938zk1OThYvGxsbGxoa3Of6jcvtAwcOyJdCamqqHFTmzJkjxouKisSuGTNm/PznP3/nnXfkwWEH3eQV5PYFHSy3VQFV0YYMGZKSktLU1DR8+PCkpKT6+nrHvxqhF5TbftXwHAYz8e8AAHrxVAHMQT9qQRkBhXaAvVi9MTK/gKT8jg3TZJfoA80oUv4777xTpqhuzz///Ochsb7n5cUQXcTvhATBnpehg37bffv2TTj3GTdu3Ni7d++wx7i33dznBgIBdYzMrxsaGo4fP+4+12889PppaWnqypL8+QFx4ksvvfTAAw8MHjxYHLBu3Tq/QTf39S/oYL/tJ598UmwvXLhQ/POOO+6QgxdaSb9qeA6DmfhtFgB68VQBzEE/akEZAYV2gL1YvTEyv4Ck/I4N02SX6APNKFL+Xr16iVN++MMf1tXV/fd//7dMVN1/i1/F+t26dRMvn3322S+dr0/UEb8TEgTLl/LHXVe2/fqu+xi/7YyMDLH9xBNP3HvvvX7HuLfd/M71+1s0fuPubUkcI0ZGjhy5bNmyX//61+L4efPmifFbb7116dKlr7zyyrhx48QBS5Ys8Rt0c1//gg722/7ss88uvfRSuTz+/Oc/y0G/avht+1XDcxgAAAAAAACgHSk/tIs+0Iwi5b/iiisSzv1h+tmzZxcUFMhENWzKf/nll4uXgwcPvuuuu7T/Xf5YIn4nJAiWLxX33+UPPd69/eqrr2ZmZgYCgYULF+bm5oY9xr3t5nfuvn37hg8fnpycLL/tft7x0Ou3tLQ89NBDgwYN6tGjR2pqanFxcWVlpRi/8cYbMzIyunfv3rt37+nTpx8/ftxv0M19/Qs62G9bmDZtmng5dOhQNeJXDb+L+FXDcxgAAAAAAACgHSk/tIs+0Iwi5d+4ceNVV13Vo0ePK6644re//a1MVMOm/CtXrhw8eHBiYqIc/9JVYhNjxO+0BcFHjx5tbm727oO1xGyKOZWT690HAAAAAAAAaELKD+2iDzSjSPk7XewRv9OW8gsPP/ywdx+stWjRIjWz3n0AAAAAAACAJqT80C76QNO6lF9LxC+on6Xdv3+/d19n4KcqtKipqVEz690Hk7DgAejFUwUwB/2oBWUEFNoB9mL1xsj8ApLyOzZMk13iJeXXFfEbqLy83DsEdF0seAB68VQBzEE/akEZAYV2gL1YvTEyv4Ck/I4N02SXWFP+uXPnvma8efPmddWI36ElEGdY8AD04qkCmIN+1IIyAgrtAHuxemNkfgFJ+R0bpskusab8tuiqEb9DSyDOsOAB6MVTBTAH/agFZQQU2gH2YvXGyPwCkvI7NkyTXaJP+R9//HGxHBcsWLDZeG+//bb33XchtATiCgsegF48VQBz0I9aUEZAoR1gL1ZvjMwvICm/Y8M02SX6lJ/laAh+qgJxhQUPQC+eKoA56EctKCOg0A6wF6s3RuYXkFjVsWGa7ELKDwAAAAAAAAAdhFgV2pHyAwAAAAAAAEAHIVaFdqT8AAAAAAAAANBBiFWhHSk/vHbs2JGSktLS0uLdEdH27dvFejh58qR3By6OOXPmPP30097RThLdmmk/oz4sAAAAAABALIhVoR0pv/Wi+KkKmcinpKSkpqb27t175MiRDz74YDAY9B53IUj5O9KePXuys7NPnTrluGZTufnmm70n6HaRpvvTTz/97ne/26dPH3Hx1tZWNV5bW9u3b9+GhgYnqgUPABHwVAHMQT9qQRkBhXaAvVi9MTK/gMSqjg3TZBdSfuuVl5d7h87HHdGePn16165dd9xxR2ZmZk1NjffQdrtIsW8oGW37vfTTzsNs8f3vf/8nP/mJ3O6wyrtdpJsePnx42bJlr7zyiiflF7797W/Lp00UCx4AIuCpApiDftSCMgIK7QB7sXpjZH4BiVUdG6bJLqT81ouiJcJGtFOnTp0xY4Zn75IlS3JycpKSkrKzs+WN5N7ly5fn5uYGAoFZs2bJI91nVVRUDBkyROxNT0+fMmVKXV2dGFy6dOmIESPU7fbv35+YmPj3v/9djUiNjY2zZ8/u27evOFdcvLm52Wm7+Msvv5yfn3/ppZe+++677petra1HjhwRN0pNTe3Xr9+CBQvcX3J3H6buInetXr162LBhycnJ11xzzZ49e9atW1dYWCg+7KhRoz744IMI78cJVxm/wbDVEA4ePDh+/Hhxd3HTZ555RuXafndUzp49m5mZuXHjRvky7Gw65xJzcdgrr7wiX4pLlZSUnD59WmyfOHFi3rx5Ym9KSoqowM6dOx2f+4ad7uPHj4vPmND2PyB4/vnn3e8hwlysWbNGlEKcO3r0aFFw9VY95MGelP/JJ5/85je/6US14AEgAp4qgDnoRy0oI6DQDrAXqzdG5heQWNWxYZrsQspvvShaImwuvHbt2oyMDPfeTz75RGy89dZbYrChoWH37t1q77Rp05qamurq6kaMGPHAAw94rvn666/v37/fORf43nDDDRMmTJBXSElJ+etf/ypv99BDD33nO9/5f/d2KS0tnTx5sji4sbFRnHvPPfc4bRefPn26GP/iiy88L8UB4sgpU6aItxQMBsVbevDBB0PPct9F7poxY8bnn3/e0tIya9as3Nzc2267Tb0cO3asPDLs+wlbmbCDjk81hHHjxn3ve99rbm4W42PGjFG5dtg7uh04cEAcfOjQIfky7GxKGzduTEtL+/DDD//t3/5twIAB6j8wiFp94xvfOHjwoNjet2+fuKDjc9/2TLfnZYS5KCsrq6+vFxWeOXOm+Mjy3FBhU/4//vGP6enpTlQLHgAi4KkCmIN+1IIyAgrtAHuxemNkfgGJVR0bpskupPzWi6IlwubCW7du7d69u3vv4cOHExMTn3vuuePHj6vD5N4PP/xQvnz11VezsrLcZ6kjperq6qSkJLk9Z86cH/zgB865PxOUnZ29Zs2aLx3qOEePHu3WrdvevXvly/Xr17v/w8O+ffvkuOdlXV1dhLekDnOTu2pra+XLt99+O8GVm4uXPXr0cPzfT9jKhB30UNWQ71ldefXq1TLX9ruj2+7du8XBJ06ckC/lZ0l3+elPf6oOXrRoUX5+fmpq6qZNm+TIZ599Jo7ftWuXOsbx/6TtnG71MvJcqIJv2bJFVjissCm/WJ9i8MyZM1EseACIgKcKYA76UQvKCCi0A+zF6o2R+QUkVnVsmCa7kPJbL4qfqgibyId+l19sV1VVlZSUBAKB6667bvPmzWpvU1OTPOudd97p1q1b6FnFxcV9+vRJS0sT54px+Ydi/vrXv4qR5ubm1157LTMz83//93//373b7Nq1yx1Yi4N79ep15swZv0xZvty5c+d535JH2AuqWFm99Hs/TrjKRBgMrYbnPcu/QRT5jkr7v8vvnPvPCZdeeun111+vRuQt1K3dg6H3bc90u1+2cy7C5vhK2L3qu/xRLHgAiICnCmAO+lELyggotAPsxeqNkfkFJFZ1bJgmu5Dyx6OwuXBpaemtt94adm9LS8uiRYv69eun9qova//ud78bMGCA+yz5lfaVK1eKs8T4pk2b3IntqFGjVqxYMWnSJPXjsW7BYDDBlV8rYTNi9dLz/XHxlsJ+39wt7AVDU36/96O4KxN20K8aYjzB9V3+NWvWtPOOzrm/y9+/f//z/l1+4cyZMzfeeOPUqVMHDhz44osvykH5XX71B4Ukv/v6Tfd7770XWsCTId/l95uLsDm+EnZveXl5SUmJewQAAAAAAMBGxKrQjpQ/Hrkj1zNnzuzZs2f27NmZmZnyz8ervR9//PHGjRtPnToljnnyySfFAWrv9OnTm5qajhw5MnLkyB//+Mfus2pqasTGhg0bxGBtbe24cePciW1FRcXw4cMvueSSjz76SL0ft4kTJ5aVlR07dsw5F9/LLDtsRuzOtcePH19aWir/xr14SwsXLgx7mBL2gqEpv+PzfsJWJuxghGpcf/31t9566xdffHH06NHrrrsu8h095syZI//evRPyWdz+6Z/+aejQoWKm/vM//zM1NfX999+X41OnTi0pKZGZvvq7/GHv6zfd8kcI/va3v8kLut9De+YibI4viWP+8pe/JJz7HwS4P9R3vvOdp59+2nUgAAAAAACAlYhVoR0pfzySGWtKSkpqamp6evrVV1+9cOHCYDDo3nvy5Mm9e/cWFxeLY5KSkkaNGuX+iz3Lly/Pzc0VV7j99tubm5vdZ4ntxYsX9+/fPxAIFBUVVVRUuPPcxsZGMR7hS9kNDQ1z587NyMgQhxUUFCxZssTxyYjdEXBdXd2kSZPEW+3bt+/dd98tvzgfepgS9oJhU/6w7ydsZcIOOv7VqK2tFXVITk4uLCwU3dStW7ezZ8/63dFj9+7dOTk5p06dclyzqYwePdo5978bEG/mgw8+kKf84he/GDJkiPxbOmIW1C2GDRsm/0Z/2Pv6Tbcg6iz/vM/SpUvd9WzPXERI+RO+TA4eOHBAXC3CDx4AAAAAAADYglgV2pHyd3319fWVlZUqxI9RhOi8Pc6ePZuXl/fb3/7WuyO+rVy5Uv5lm/abM2dOB3y3Pcbp1uX73/++eOB4RwEAAAAAACxErArtSPmtF+GnKlatWnXLLbcMHTp069at3n3RijH2FW8pKytLfr87zn344YfyL9588sknw4cPX7BggfcIA8Q43RdDhAUPAFHgqQKYg37UgjICCu0Ae7F6Y2R+AYlVHRumyS6k/NYrLy/3jASDwbvvvjsvL2/gwIFXXHGFxojfiS32zczMzMrKeu2117w74pKYFzFHycnJffr0mT17tvxbOqaJZbovktAFDwCx4KkCmIN+1IIyAgrtAHuxemNkfgGJVR0bpskupPzWc7fEqlWrxo4dm3XO17/+9cLCQr0RP9Dp+HcAAL14qgDmoB+1oIyAQjvAXqzeGJlfQGJVx4Zpsgspv/VES6gv78t8X7j55puJ+NEl8e8AAHrxVAHMQT9qQRkBhXaAvVi9MTK/gMSqjg3TZBdSfuvNnz/fne8DAAAAAADB+/8/A5Yg/YyR+QUkVnVsmCa7kPJb7y9/+Ut9ff2yZcuKiooKCgq+8pWviP9TRvxTbPNdfnQ9/DYLAL14qgDmoB+1oIyAQjvAXqzeGJlfQGJVx4Zpsgspf5eybdu2u+66a9CgQQUFBTk5OQT9AAAAAAAAgFGIVaEdKX8XpL7aP3DgwNzcXIJ+AAAAAAAAwBDEqtCOlL8r27Zt27x584YOHUrQDwAAAAAAAJiAWBXakfJ3ffX19ZWVlcFg0LsDAAAAAAAAQMciVoV2pPzW46cqEFdY8AD04qkCmIN+1IIyAgrtAHuxemNkfgGJVR0bpskupPzWKy8v9w4BXRcLHoBePFUAc9CPWlBGQKEdYC9Wb4zMLyCxqmPDNNmFlN96tATiCgsegF48VQBz0I9aUEZAoR1gL1ZvjMwvILGqY8M02SXWlF/4+c9/Ll6Kf7LdKdvf/va3w46zzTbbbLPNNtvn3Rb/l2XYcbbZZrvjt+lHLdvi/zsIO84222yzzbZF2/w7McZt87Oym266KYGUn5RfqwTvQLvxH50MQUsgrrDgAejFUwUwB/2oBWUEFNoB9mL1xsj8AhKrOjZMk100p/wJbR5++GH3S2nRokXug6MgrxO6faH8zvUbvxh03Sv0pyrcV/a7ixoXkyK3wx4GmCZ0wQNALHiqAOagH7WgjIBCO8BerN4YmV/AsLFqvDF/muwSfbAbdjnKsHjlypV79uxxv5Tef/9998FRkNeR27EE037n+o2fOnXKOxQz92fRy/0p/O6ijhGTIg7w++AAAAAAAAAANAobqwKxiD7YDbscPWGxfHm0TXNzsxpctGhRWlraZZddVlVVddddd6WkpOTk5PzhD3+QJ65evTo3N/eSSy7p1avXddddt2PHjtDre+6l+J27b9++ESNGiBv97Gc/c5/rNy63f/rTn6anp8v/FYJ4/z/60Y8GDhzYo0ePK6+8cunSpfLIX/3qV5dffnliYqL4ROKOEQbd3PeKfPDMmTPFkW+++abYPnjwYPfu3cUbdvw/aeinkNt+n9RzGAAAAAAAAICLJGysCsQi+mA37HIMmx0rMiuX27fccov6WzFiW+bOeXl58sTq6mpx5YqKikceeaRnz56jRo1yXzB0283vXPm7FnPnzp0zZ477XL9xuT1u3LiXXnppy5YtYmT27NliZPLkyeKzl5aWiu2qqioxnpKSUlBQsGLFimeffbasrEyeHnbQzX2vyAeLu4sjZ86cKbafeOIJsf3cc885/p809FPIbb9P6jkMAAAAAAAAwEUSNlYFYhF9sBt2OYbNjje2qampUYNHjx5tbW1V22fPnhUb3bp1kyeuXLkyOztb7hUSExNDr+/edvM7Nzk5WbxsbGxsaGhwn+s3LrcPHDggXwqpqalyUJkzZ44YLyoqErtmzJjx85///J133pEHhx10k1eQ2+c9eMiQISkpKU1NTcOHD09KSqqvr3f8P6n7yu5tv0/qOQwAAAAAAADARRI2VgViEX2wG3Y5tic7dg/6bfft2zfh3DfWN27c2Lt377DHuLfd/M6VGXdDQ8Px48fd5/qNh14/LS1NXVmSPz8gTnzppZceeOCBwYMHiwPWrVvnN+jmvv55D37yySfF+MKFC8U/77jjDjkoP+n999/fzir5fVLPYYDJ+G0WAHrxVAHMQT9qQRkBhXaAvVi9MTK/gGFj1Xhj/jTZJfpgN+xyDJsdyx+AXdn267vuY/y2MzIyxPYTTzxx7733+h3j3nbzO9fv79X4jbu3JXGMGBk5cuSyZct+/etfi+PnzZsnxm+99dalS5e+8sor48aNEwcsWbLEb9DNff3zHvzZZ59deuml3bp1E3v//Oc/y0H5Sf/hH/6hnVXy+6SewwCTlZeXe4cAIAY8VQBz0I9aUEZAoR1gL1ZvjMwvYNhYNd6YP012iT7YDbscw2bHivvv8oce795+9dVXMzMzA4HAwoULc3Nzwx7j3nbzO3ffvn3Dhw9PTk6W34g/73jo9VtaWh566KFBgwb16NEjNTW1uLi4srJSjN94440ZGRndu3fv3bv39OnTjx8/7jfo5r7+eQ8Wpk2bJo4fOnSoGpGftGfPnu2skt8n9RwGmIx/BwDQi6cKYA76UQvKCCi0A+zF6o2R+QUMG6vGG/OnyS7RB7thl6MMi48ePdrc3Owex8UTY0uImRLzRcoPW8S44AHAg6cKYA76UQvKCCi0A+zF6o2R+QUMG6vGG/OnyS7RB7thl6MMi4WHH37YPY6LJ8aWWLRokZo17z7APDEueADw4KkCmIN+1IIyAgrtAHuxemNkfgHDxqrxxvxpskv0wW7Y5ah+lnb//v3ucVw8Mf5URU1NjZo17z7APDEueADw4KkCmIN+1IIyAgrtAHuxemNkfgHDxqrxxvxpsovmlB8AAAAAAAAA4IdYFdqR8gMAAAAAAABAByFWhXak/AAAAAAAAADQQYhVoR0pPwAAAAAAAAB0EGJVaEfKbz1+qgJxhQUPQC+eKoA56EctKCOg0A6wF6s3RuYXkFjVsWGa7ELKb73y8nLvENB1seAB6MVTBTAH/agFZQQU2gH2YvXGyPwCEqs6NkyTXUj5rUdLIK6w4AHoxVMFMAf9qAVlBBTaAfZi9cbI/AISqzo2TJNdSPmtR0sgrrDgAejFUwUwB/2oBWUEFNrBENu3b09ISGhtbfXu6EDyPZw8eXLHjh0pKSktLS3eI9qoI707OharN0bmF5BY1bFhmuxCym89WgJxhQUPQC+eKoA56EctKCOgRG6HXbt2TZs2LTMzMyUlJSMj46abbnrttde8B118hmTKF1WHpfwRihlhl0f7j7yoIq9enJf5BSRWdWyYJruQ8luPn6pAXGHBA9CLpwpgDvpRC8oIKBHa4U9/+lNqaupTTz117Ngx8bKxsXHNmjU/+MEPvMdpcurUKe9QG0MyZY1CP+x5U/7QU6IToZgRdnm0/8iLKsLqRXuYX0BiVceGabILKT8AAAAAAIgjw4cPf+yxx7yjbRobG2fPnt23b9/09PRZs2Y1Nzc7beHvmjVrhgwZkpSUNHr06D179pz3+Jdffjk/P//SSy9tbW2tqKgQ5wYCAXHYlClT6urqjh8/Li4lDks55/nnn/e7mpu88vLly3Nzc8XVxDEqkg69hRxfsmRJTk6OuFd2drb68mzoYFVVlXi3cu8jjzwi7lJTUyO2t23blpaWJmP6I0eOiCunpqb269dvwYIFMqAP/bCHDh361re+lZycXFhY+Mwzz4Sm/KGn+H3w0PfphKtS2GIqKrv3bIROqDvlFyODBg16+umn3ZcCtCBWhXak/AAAAAAAIF58+umnKr8Oq7S0dPLkyQ0NDY2NjTfccMM999zjtIW/ZWVl9fX1LS0tM2fOHDNmzHmPnz59uhj/4osvxMjrr7++f/9+51xQLg6bMGGCOsz9zfGwV3OTp0ybNq2pqamurm7EiBEPPPCA3BX2Fp988ok4/q233hLb4rK7d+/2GxQfLTExsba2VmyLT5efn//CCy+I7UcffVReShCXnTJlirh1MBgUt37wwQedcB92/Pjx6rCioqIEn5TffUrYDx72ffodHFpMxS/lD51QdcCbb76ZlZW1du1a77UAHYhVoR0pPwAAAAAAiBe7du1KSEg4ceKEfFlVVZWenp6WltazZ8/Tp08fPXq0W7due/fulXvXr1+fkZHhtIW/MgEXtmzZ0qNHD7ER+fh9+/bJcY/q6uqkpCQnJJj2u5qbPOXDDz+UL1999dWsrKwvH/J/1C0OHz6cmJj43HPPHT9+XO0NOygUFRW9+OKLDQ0NoiZi45ZbbhGDJSUlMvypq6sLe2vPh/UctmrVqgSflF+d4vfBw75Pv4OjSPlDJ1SOP/vss9nZ2e++++6XrgLoQ6wK7Uj5AQAAAABAvAj7XX6Z7ba2tsr/BpDeJi0trVevXmfOnPEkyBd6vHPuPycUFxf36dNHHBMIBMTe06dPew7zu5q6iNN266amJvnynXfe6datm9wOews5XlJSIkauu+66zZs3q4NDBx966KFbb7113bp1N910U11dXd++fU+cONGzZ8+//e1vYu/OnTvD3trzKUIPk7WSL6X2f/DQ9+l3cGjNFb+UP3RC5caAAQPuv//+L18D0IlYFdqR8luPn6pAXGHBA9CLpwpgDvpRC8oIKBHa4aqrrvL8XX4V8gaDQbFx6NAh9151QGgo3M7j5XfSV65c2dLSIl5u2rRJnv7ee++5D/O7mpu8svqm/O9+97sBAwY4/rdQJ4rxRYsW9evXT42EDoqzxNXmz5//1FNPiZeFhYW/+MUvsrOz5V7Pl/TFrd3f5Vefov3f5W//B3e/T7+DPcV0Cw33/SZUlTcvL+/hhx/+8mU6ToTVi/Ywv4DEqo4N02QXUn7rqR+fAeIBCx6AXjxVAHPQj1pQRkCJ0A7V1dWBQOCpp546duyYcy5BXrp0qUqiJ06cWFZWJnfV1dVt3LjRCUmlVSjczuNramrEyw0bNojt2tracePGydPl352X35SXwl7NTV55+vTpTU1NR44cGTly5I9//GPH/xYff/yxuMipU6fOnDnz5JNPZmZmigPCDjrnSpGUlJSWlib/Av59990ntmfOnKnuPn78+NLS0ubmZnnrhQsXqrfkjtdLSkrUYcXFxapWSugpYT+43/sMe3BoMZXQcN9vQtX4p59+OnTo0Hvvvffs2bNfvlhHiLB60R7mF5BY1bFhmuxCym89WgJxhQUPQC+eKoA56EctKCOgRG6HHTt2lJaW9u/fPxAIiH9+97vfXbdundzV0NAwd+7cjIwMsaugoGDJkiVOSCrtTvnbc7ywePFiebuioqKKigp1+t133y3/8szSpUv9ruYmr7x8+fLc3NyUlJTbb7+9ublZ7gp7i7179xYXF6empiYlJY0aNUr+0Zuwg9KNN96YmZkpo+033nhDXOQ3v/mN2ltXVzdp0iRxYt++fcU7l/+7gdAPe/DgwfHjxycnJxcWFj7zzDPqwyqhp4T94H7vM+zBTkgxldBw329C3eOfffaZuOmdd97p+aNJHSDy6sV5mV9AYlXHhmmyCym/9WgJxBUWPAC9eKoA5qAftaCMgNJV2yE0H0fX01VXb4cxv4DEqo4N02QXUn7r0RKIKyx4AHrxVAHMQT9qQRkBpau2Ayl/POiqq7fDmF9AYlXHhmmyCym/9fipCsQVFjwAvXiqAOagH7WgjIDSVduBlD8edNXV22HMLyCxqmPDNNmFlB8AAAAAAAAAOgixKrQj5QcAAAAAAACADkKsCu1I+QEAAAAAQBeU1dm8bwgAziFWhXak/AAAAAAAAJqR8gPwQ6wK7Uj5rcdPVSCusOAB6MVTBTAH/agFZQSUTm8HUn5ErdNXr+3MLyCxqmPDNNmFlN965eXl3iGg62LBA9CLpwpgDvpRC8oIKJ3eDqT8iFqnr17bmV9AYlXHhmmyCym/9WgJxBUWPAC9eKoA5qAftaCMgNLp7UDKj6h1+uq1nfkFJFZ1bJgmu5DyW4+WQFxhwQPQi6cKYA76UQvKCCid3g6k/Ihap69e25lfQGJVx4Zpsgspv/VoCcQVFjwAvXiqAOagH7WgjIDS6e1Ayo+odfrqtZ35BSRWdWyYJruQ8luPn6pAXGHBA9CLpwpgDvpRC8oIKJ1O/ycQAACAAElEQVTeDqT8iFqnr17bmV9AYlXHhmmyCyk/AAAAAACIR/X19ZWVlcFg0LtDB1J+AH6IVaEdKT8AAAAAAIgvK1asKC0tHTp06NatW737NCHlB+CHWBXakfIDAAAAAIC4UFtbO3v27Msvv3zgwIFXXHHFxYv4HVJ+AP6IVaEdKT8AAAAAAOjiVqxYce2112adM378+MLCwosa8Tuk/AD8EatCO1J+6/FTFYgrLHgAevFUAcxBP2pBGQFFtoP68r7M94Vp06Z1QMTvkPIjBjzMY2R+AYlVHRumyS6k/NYrLy/3DgFdFwsegF48VQBz0I9aUEZAEe1QXV2twv1O4X1PQPvwMI+R+QUkVnVsmCa7kPJbj5ZAXGHBA9CLpwpgDvpRC8oIKLId6uvrly1bNmbMmKFDh+bl5WVlZWVnZ+fn53fAd/mBqPEwj5H5BSRWdWyYJruQ8luPlkBcYcED0IunCmAO+lELyggonnbYtm3bvHnz8vLyrrrqKoJ+GI6HeYzMLyCxqmPDNNmFlN96tATiCgsegF48VQBz0I9aUEZACdsO6qv92dnZubm5BP0wU9jVi/Yzv4DEqo4N02QXUn7r8VMViCsseAB68VQBzEE/akEZASVyO2zbtu2HP/zh0KFDCfphoMirF+dlfgGJVR0bpskupPwAAAAAACAe1dfXV1ZWBoNB7w4AuJiIVaEdKT8AAAAAAAAAdBBiVWhHyg8AAAAAAAAAHYRYFdqR8gMAAAAAAABAByFWhXak/NbjpyoQV1jwAPTiqQKYg37UgjICCu0Ae7F6Y2R+AYlVHRumyS6k/NYrLy/3DgFdFwsegF48VQBz0I9aUEZAoR1gL1ZvjMwvILGqY8M02YWU33q0BOIKCx6AXjxVAHPQj1pQRkChHWAvVm+MzC8gsapjwzTZhZTferQE4goLHoBePFUAc9CPWlBGQKEdYC9Wb4zMLyCxqmPDNNmFlN96tATiCgsegF48VQBz0I9aUEZAoR1gL1ZvjMwvILGqY8M02YWU33r8VAXiCgsegF48VQBz0I9aUEZA6eB22L59e0JCQmtrq3fHRbBjx46UlJSWlhZ505MnT3qPiEid7hlvz9XUMX4XUdpzNfjp4NXb9ZhfQGJVx4ZpsgspPwAAAAAAiCNbt2792te+lpSUlJaWNmLEiN///vfeIy5cR6b8SoxJuuf09lytPcdI7T8SiEPEqtCOlB8AAAAAAMSLpqam3r17L168uKWl5cyZM9u3b//Tn/7kPejCkfJ7tP9IIA4Rq0I7Un4AAAAAABAvdu/enZCQcOzYMe8Ox2lsbJw9e3bfvn3T09NnzZrV3NzstKXVa9asGTJkSFJS0ujRo/fs2SOPP3To0Le+9a3k5OTCwsJnnnkmbMof4ZqrV68eNmyYOP2aa64R11y3bp24jrjFqFGjPvjgA3l6RUWFuG8gEBCnT5kypa6uTp1+8uTJsEl6VVVVfn6+3H7kkUfEATU1NWJ727ZtaWlp4h3Ks4LBoLiX2Eg55/nnn4/wSZXQW/ud5X5vYmTQoEFPP/2052pA3CJWhXak/AAAAAAAIF40Nzf379//5ptvXrdu3eHDh927SktLJ0+e3NDQ0NjYeMMNN9xzzz1OW1pdVlZWX1/f0tIyc+bMMWPGyOPHjx8/ZcqUpqamYDBYVFQUNuWPcM0ZM2Z8/vnn4pqzZs3Kzc297bbb1MuxY8fK019//fX9+/eLjSNHjojTJ0yYoE73S/nF+0xMTKytrRXb4q3m5+e/8MILYvvRRx+NfHqET6qEnut3ljrgzTffzMrKWrt2redSQDwjVoV2pPzW46cqEFdY8AD04qkCmIN+1IIyAkqEdti7d++cOXMGDRqUkJBw7bXX/u1vfxODR48e7datm9glj1m/fn1GRobTllbL0FzYsmVLjx49xEZdXZ0Y//DDD+X4qlWrEkJS/nZe8+233xYvDx06pF7KW3hUV1cnJSU54aJ2z5FFRUUvvvhiQ0NDenq62LjlllvEYElJicxw/E73+6Ruoef6nSXHn3322ezs7HffffdLV8H5RFi9aA/zC0is6tgwTXYh5bdeeXm5dwjouljwAPTiqQKYg37UgjICSnva4dNPP508efLw4cPF9q5duxISEtLbpKWl9erVS/7h/tAovLW1defOnWKjqalJjr/zzjtyXF3cufBrhr6sqqoqLi7u06ePODcQCIjx06dPh0bt6o7SQw89dOutt65bt+6mm26qq6vr27fviRMnevbsKf97ht/pYV96PlHouX5nyY0BAwbcf//97iugPdqzehGB+QUkVnVsmCa7kPJbj5ZAXGHBA9CLpwpgDvpRC8oIKO1shy1btnTv3l1sBIPBBNcX6hW/FLs93+W/0Gt6Xh4+fDgxMXHlypUtLS1ifNOmTe4APTRhV8SRAwYMmD9//lNPPSVeFhYW/uIXv8jOzpZ71Vnvvfde6Nvwe1eeY0I3PGfJDVGfvLy8hx9+2H0RnFc7Vy/8mF9AYlXHhmmyCym/9WgJxBUWPAC9eKoA5qAftaCMgOLXDn//+9/FroMHD4rt48ePz5w589prr5W7Jk6cWFZWJn+Yt66ubuPGjU7E7LukpKS0tLS5ufnIkSPFxcWhmbhz4dd0v6ypqREbGzZsEIO1tbXjxo1zB+ihCbvS0tKSlJSUlpa2e/du8fK+++4T2+KTyr3qrE8++URsyC/4u8fdL2NM+cX4p59+OnTo0Hvvvffs2bPuSyECv9WLdjK/gMSqjg3TZBdSfuvREogrLHgAevFUAcxBP2pBGQHFrx0+++yzW265ZeDAgcnJyX369Jk0adLHH38sdzU0NMydOzcjIyMQCBQUFCxZssSJmH0fPHhw/Pjx4jqFhYXPPPNMaCbuXPg1PS8XL17cv39/cW5RUVFFRYUnQPdL+YUbb7wxMzNTButvvPGGOOw3v/mN3OU+6+6775Z/TWjp0qWR35Xn3NANz1nucVHzUaNG3XnnnWfOnHFfDX78Vi/ayfwCEqs6NkyTXUj5rcdPVSCusOAB6MVTBTAH/agFZQQU2gGmCQaDlZWV9fX13h0hWL0xMr+AxKqODdNkF1J+AAAAAAAA4KLbunVrfn7+nXfeuW3bNu8+xBNiVWhHyg8AAAAAAAB0hOrq6pycnIEDB44ePfpXv/pVe77aj66HWBXakfIDAAAAAAAAHaS6uvorX/lKVlZWXl5ebm4uX+2PQ8Sq0I6UHwAAAAAAAOg4KugXsrOzr7zySr7aH1eIVaEdKb/1+KkKxBUWPAC9eKoA5qAftaCMgCLaQUaogBXy8/PFPwsKCqqrq3mYx8j8AhKrOjZMk11I+a1XXl7uHQK6LhY8AL14qgDmoB+1oIyAQjvAZL/+9a8HDhyYlZWVk5NTUlJyzTXXXH/99cuWLZPf5Wf1xsj8AhKrOjZMk11I+a1HSyCusOAB6MVTBTAH/agFZQQU2gHGkhF/QUHB+PHjBw8ePH/+fM/f5Wf1xsj8AhKrOjZMk11I+a1HSyCusOAB6MVTBTAH/agFZQQU2gFmeumlly677LLs7Gz3l/c9WL0xMr+AxKqODdNkF1J+69ESiCsseAB68VQBzEE/akEZAYV2gIG2bt06ZMiQ0C/ve7B6Y2R+AYlVHRumyS6k/NbjpyoQV1jwAPTiqQKYg37UgjICCu0A0wSDwcrKyrBf3vdg9cbI/AISqzo2TJNdSPkBAAAAAAAAoIMQq0I7Un4AAAAAAAAA6CDEqtCOlB8AAAAAAAAAOgixKrQj5QcAAAAAAACADkKsCu1I+a3HT1UgrrDgAejFUwUwB/2oBWUEFNoB9mL1xsj8AhKrOjZMk11I+a1XXl7uHQK6LhY8AL14qgDmoB+1oIyAQjvAXqzeGJlfQGJVx4Zpsgspv/VoCcQVFjwAvXiqAOagH7WgjIBCO8BerN4YmV9AYlXHhmmyCym/9WgJxBUWPAC9eKoA5qAftaCMgEI7wF6s3hiZX0BiVceGabILKb/1aAnEFRY8AL14qgDmoB+1oIyAQjvAXhpX7/bt2xMSEk6ePLljx46UlJSWlhbvEeZRb1W9ee8R56OxgBcJsapjwzTZhZTfevxUBeIKCx6AXjxVAHPQj1pQRkChHWCvsKtXRt4pKSmpqam9e/ceOXLkgw8+GAwGvcd9WdRBuQmifvNhC2gUYlXHhmmyCyk/AAAAAAAAYDR35H369Oldu3bdcccdmZmZNTU13kNdog7Kwzp16pR36GLS++aNQqwK7Uj5AQAAAAAAAKOFjbynTp06Y8YMud3Y2Dh79uy+ffump6fPmjWrubnZfZbaeO65566++mp1hY8//rh79+6ffPJJ5Cu8/PLL+fn5l156aWtrqzo38imrV68eNmxYcnLyNddcs2fPnnXr1hUWFiYlJY0aNeqDDz6Qp1dUVAwZMiQQCIjTp0yZUldXp053v2f3HbsGYlVoR8oPAAAAAAAAGC1s5L127dqMjAy5XVpaOnny5IaGhsbGxhtuuOGee+5xn6U2Pv/88549e+7cuVOe9bOf/Wz8+PHnvcL06dPF+BdffCGPVCKcMmPGDHGvlpaWWbNm5ebm3nbbberl2LFj5emvv/76/v37xcaRI0fE6RMmTFCnk/IDF4SUHwAAAAAAADBa2Mh769at3bt3FxtHjx7t1q3b3r175fj69etl+h82Mf/e97537733io2zZ8/m5uZWVlae9wr79u2T426RT6mtrZXjb7/9tnh56NAh9bJHjx5y2626ujopKcnxec9dDLEqtCPltx4/VYG4woIHoBdPFcAc9KMWlBFQaAfYK+zqDRt5q+/y79q1S+xNb5OWltarV68zZ86ETcw3bNggzvrf//3ft956Sxwsv6F/3iu47yu18xT5Uv2pH/fLqqqq4uLiPn36iHMDgYAYP336dNj3fEHCFtAoxKqODdNkF1J+65WXl3uHgK6LBQ9AL54qgDnoRy0oI6DQDrBX2NUbNvIuLS299dZbxUYwGExwfV9eCZuYnz59Oicnp6qq6vbbb//BD34gjzzvFTzjTrtP8Uv5Dx8+nJiYuHLlypaWFjG+adMmOR72PV+QsAU0CrGqY8M02YWU33q0BOIKCx6AXjxVAHPQj1pQRkChHWCvsKvXHXmfOXNmz549s2fPzszMlH/XXpg4cWJZWdmxY8fEdl1d3caNG91neRLzhx56aNy4ccnJydu2bft/NzjfFdRhbu05xS/lr6mpERsbNmwQg7W1teL9kPLHFfOnyS6k/NajJRBXWPAA9OKpApiDftSCMgIK7QB7hV29MvJOSUlJTU1NT0+/+uqrFy5cGAwG1QENDQ1z587NyMgIBAIFBQVLlixRZ4Um5h999JF4edVVV6nTz3sF95FKe07xS/nF9uLFi/v37y/OLSoqqqioIOWPK+ZPk11I+a1HSyCusOAB6MVTBTAH/agFZQQU2gH2YvX6CQaDlZWV9fX13h1fZn4BiVUdG6bJLqT81uOnKhBXWPAA9OKpApiDftSCMgIK7QB7sXoj2Lp1a35+/rx589x/a8jD/AISqzo2TJNdSPkBAAAAAAAA2GH9+vXZ2dkDBw4cM2bMsmXLzvvVfgMRq0I7Un4AAAAAAAAA1li/fn1OTk5WVtZVV12Vl5cX+av9BiJWhXak/AAAAAAAAABsooJ+IS8vb8iQIRZ9tZ9YFdqR8gMAAAAAAACmkMk1LtRll10m/llQUFBdXe2tqWGIVaEdKb/1+KkKxBUWPAC9eKoA5qAftaCMgEI7wF6s3vZYtWpVdna2zPevvvrqESNGfP3rX5ff5Te/gMSqDutcN1J+65WXl3uHgK6LBQ9AL54qgDnoRy0oI6DQDrAXq/e8ZMR/2WWXXXvttVdeeeX8+fPdf5ff/AISqzo2TJNdSPmtR0sgrrDgAejFUwUwB/2oBWUEFNoB9mL1RrZq1aqcnJzs7Gz15X3PAeYXkFjVsWGa7ELKbz1aAnGFBQ9AL54qgDnoRy0oI6DQDrAXqzeCrVu3fvWrX/V8ed/D/AISqzo2TJNdSPmtR0sgrrDgAejFUwUwB/2oBWUEFNoB9mL1+gkGg5WVlaFf3vcwv4DEqo4N02QXUn7r8VMViCsseAB68VQBzEE/akEZAYV2gL1YvTEyv4DEqo4N02QXUn4AAAAAAAAA6CDEqtCOlB8AAAAAAAAAOgixKrQj5QcAAAAAAACADkKsCu1I+QEAAAAAAACggxCrQjtSfuvxUxWIKyx4AHrxVAHMQT9qQRkBhXaAvVi9MTK/gMSqjg3TZBdSfuuVl5d7h4CuiwUPQC+eKoA56EctKCOg0A6wF6s3RuYXkFjVsWGa7ELKbz1aAnGFBQ9AL54qgDnoRy0oI6DQDrAXqzdG5heQWNWxYZrsQspvvQttie3bt4uJO3nypHfHhdBykSjs2LEjJSWlpaWls94AOt2FLngAiIynCmAO+lELyggotAPsxeqNkfkFJFZ1bJgmu5DyWy9CS7z33nuTJk3q169fcnJybm7uggULjh49qiUf13KRWHT6G0BnibDgASAKPFUAc9CPWlBGQKEdYC9Wb4zMLyCxqmPDNNmFlN96fj9VsXnz5kAgICaooaFBvKytrX3wwQc3bNigJR/XcpFYdPobQGfxW/AAEB2eKoA56EctKCOg0A6wF6s3RuYXkFjVsWGa7ELK32UVFhY+9thj3tG2fHzNmjVDhgxJSkoaPXr0nj175K7GxsbZs2f37ds3PT191qxZzc3NcvzEiRPz5s3LzMxMSUkZNmzYzp073SG7OH3QoEFPP/20uoUU9mryxNWrV4vrJCcnX3PNNeL0devWiXcr3syoUaM++OADeXpFRYV4h4FAQJw+ZcqUuro6dbq4Lyk/AAAAAAAAbESsCu1I+bumQ4cOidmpqanx7mgLysvKyurr61taWmbOnDlmzBi5q7S0dPLkyQ0NDY2NjTfccMM999wjx6dMmfKNb3zj4MGDYnvfvn0HDhxQIfubb76ZlZW1du1adX0l7NXkiTNmzPj888/F3WfNmpWbm3vbbbepl2PHjpWnv/766/v37xcbR44cEadPmDBBnU7KDwAAAAAAAEsRq0I7Uv6uadeuXWJ2Tpw44d3RFpTX1tbKl1u2bOnRo4fYOHr0aLdu3fbu3SvH169fn5GRITY+++wzcby4YNsF/o+8yLPPPpudnf3uu++6d0l+V/Pc/e233xYvDx06pF7KN+NRXV2dlJTkkPIDAAAAAADAcsSq0I6Uv2v69NNPxex8/PHH3h0hf9FevmxtbZX/YSC9TVpaWq9evc6cOSPHm5qaQi8yYMCA+++/3z2u+F3N7+6hL6uqqoqLi/v06SPODQQCYvz06dOk/AAAAAAAALAasSq0I+W3nt9PVRQWFj7++OPeUf+UPxgMJri+Vq/I7/Lv3r3bPSjP+vDDD/Py8h5++GH3Lsnvan5397w8fPhwYmLiypUrW1paxPimTZvkOCk//BY8AESHpwpgDvpRC8oIKLQD7MXqjZH5BSRWdWyYJruQ8luvvLzcO3TO5s2bU1NTn3vuucbGRvHy4MGDDz300B//+McIOfvEiRPLysqOHTsmtuvq6jZu3CiPmTp1aklJiYzsPX+X/9NPPx06dOi999579uxZebAS9moR7u5+WVNTIzY2bNggBmtra8eNG0fKD8lvwQNAdHiqAOagH7WgjIBCO8BerN4YmV9AYlXHhmmyCym/9SK0xHvvvTdx4sR+/fqlpKTk5ubec889//M//xMhZ29oaJg7d25GRkYgECgoKFiyZIk8prGxUY0PGzZs165d7ot89tlno0aNuvPOO8+cOdN25/8T9moR7u55uXjx4v79+4tzi4qKKioqSPkhRVjwABAFniqAOehHLSgjoNAOsBerN0bmF5BY1bFhmuxCym89WgJxhQUPQC+eKoA56EctKCOg0A6wF6vXTzAYrKysrK+v9+74MvMLSKzq2DBNdiHltx4tgbjCggegF08VwBz0oxaUEVBoB9iL1RvB1q1bv/rVr86fP3/btm3efW3MLyCxqmPDNNmFlN96/FQF4goLHoBePFUAc9CPWlBGQKEdYC9Wb2SrV6/OycnJzs4eO3bssmXLQr/ab34BiVUdG6bJLqT8AAAAAAAAAKyxevXq7Ozsyy677Nprr73yyisjf7XfQMSq0I6UHwAAAAAAAIBNZNCfdc6IESOGDx/u99V+AxGrQjtSfuvJxxkAAAAAAAAQt3JycsQ/CwoKqqurvfGZYYhVoR0pPwAAAAAAAACbvPHGGzLWF/Ly8oYOHTpmzBi+y4+4RcpvPX6qAnGFBQ9AL54qgDnoRy0oI6DQDrAXq/e8VMR/1VVX5eXlzZs3z/13+c0vILGqY8M02YWU33rl5eXeIaDrYsED0IunCmAO+lELyggotAPsxeqN7I033sjOzh44cKDfl/fNLyCxqmPDNNmFlN96tATiCgsegF48VQBz0I9aUEZAoR1gL1ZvBFu3bs3Pz/d8ed/D/AISqzo2TJNdSPmtR0sgrrDgAejFUwUwB/2oBWUEFNoB9mL1+gkGg5WVlaFf3vcwv4DEqo4N02QXUn7r0RKIKyx4AHrxVAHMQT9qQRkBhXaAvVi9MTK/gMSqjg3TZJdYU/7Jkyf/KzrVfffd5x0Cui4WPAC9eKoA5qAftaCMgEI7wF6s3hiZX8DJkyeT8vPru3rFmvIDAAAAAAAAAC5InKf80Cv6lP/AgQO/BAAAAAAAAABcoAMHDnjzViBa0af8AAAAAAAAAACgc5HyAwAAAAAAAABgK1J+6/FTFYgrLHgAevFUAcxBP2pBGQGFdoC9WL0xooBWYJr0IuW3Xnl5uXcI6LpY8AD04qkCmIN+1IIyAgrtAHuxemNEAa3ANOlFym89WgJxhQUPQC+eKoA56EctKCOg0A6wF6s3RhTQCkyTXqT81qMlEFdY8AD04qkCmIN+1IIyAgrtAHuxemNEAa3ANOlFym89WgJxhQUPQC+eKoA56EctKCOg0A6wF6s3RhTQCkyTXqT81uOnKhBXWPAA9OKpApiDftSCMgIK7QB7sXpjRAGtwDTpRcoPAAAAAAAAAICtSPkBAAAAAAAAALAVKT8AAAAAAAAAALYi5QcAAAAAAAAAwFak/Nbr2j9VsWPHjpSUlJaWlu3btyckJJw8edJ7BOJM117wADoeTxXAHPSjFpQRUGgH2IvVGyMKaAWmSS9SfuuVl5d7h9q89dZbX//611NTU3v37j1x4sQPP/zQe4Q9SPkhRVjwABAFniqAOehHLSgjoNAOsBerN0YU0ApMk16k/Nbza4k33ngjEAhUVla2trY2Nzc/9thjffr02b9/v/c4S5DyQ/Jb8AAQHZ4qgDnoRy0oI6DQDrAXqzdGFNAKTJNepPzW82uJIUOG/PM//7N7pOwcpy0xX758eW5ubiAQmDVrlkrPGxsbZ8+e3bdv3/T0dDHe3Nysjl+zZo24ZlJS0ujRo/fs2eO+shTh3NWrVw8bNiw5Ofmaa64R565bt66wsFBcatSoUR988IE8vaKiQlxfvB9x+pQpU+rq6tTp4u2R8kPyW/AAEB2eKoA56EctKCOg0A6wF6s3RhTQCkyTXqT81gvbEgcPHkxISKipqXEP/sd//EdGRobTFp1Pmzatqamprq5uxIgRDzzwgDymtLR08uTJDQ0NjY2NN9xwwz333KOOLysrq6+vb2lpmTlz5pgxY9xXliKcO2PGjM8//1ycO2vWrNzc3Ntuu029HDt2rDz99ddfl/9TgyNHjojTJ0yYoE4n5YcSdsEDQNR4qgDmoB+1oIyAQjvAXqzeGFFAKzBNepHyWy/sT1Xs3LkzISGhqanJPfjOO+9069bNaYvO1Z/pf/XVV7OyssTG0aNHxQF79+6V4+vXr3f/V4Ha2lo5vmXLlh49eshtpZ3nvv322+LloUOH1MvQSwnV1dVJSUkOKT9ChF3wABA1niqAOehHLSgjoNAOsBerN0YU0ApMk16k/F2T/C7/xx9/7B70fJdf/TcAlf7v2rVLjKe3SUtL69Wr15kzZzwJu3zZ2traduH/E9257pdVVVXFxcV9+vQR5wYCATF++vRpUn4AAAAAAAAAiICUv8v66le/+sQTT7hHbr/99hkzZjgh3+X/3e9+N2DAALERDAbdX7RXIif1UnTnqpeHDx9OTExcuXJlS0uLGN+0aZMcJ+UHAAAAAAAAgAhI+bus1157LRAI/Pu//3tra2tzc/PixYt79+790UcfOW3Z+vTp05uamo4cOTJy5Mgf//jH8qyJEyeWlZUdO3ZMbNfV1W3cuFEd75fUK1Gcq17W1NSIjQ0bNojB2tracePGkfIDAAAAAAAAwHmR8ndlb7755te+9rVAINC7d++bb775gw8+kOMyMV++fHlubm5KSsrtt9/e3NwsdzU0NMydOzcjI0OcVVBQsGTJEnW8X1KvRHGu++XixYv79+8vzi0qKqqoqCDlBwAAAAAAgBIMBisrK+vr6707gLhHym+9KH6qgsQc9opiwQNABDxVAHPQj1pQRkChHWAvVm8EW7duHTJkyPz587dt2+bd14YCWoFp0ouU33rl5eXeofMh5Ye9oljwABABTxXAHPSjFpQRUGgH2IvVG9lLL72Uk5OTnZ19/fXXL1u2LPSr/RTQCkyTXqT81ouiJUj5Ya8oFjwARMBTBTAH/agFZQQU2gH2YvWe14svvjhw4MD8/PxvfvObgwcP9ny1nwJagWnSi5TferQE4goLHoBePFUAc9CPWlBGQKEdYC9Wb3vIoD8rKysnJ2fcuHGjR49WX+2ngFZgmvQi5bdeFgAAAAAAABDfBg8eLP5ZUFAwf/58b3wG85Dy60XKbz1+qgJxhQUPQC+eKoA56EctKCOg0A6wF6u3Paqrq7/yla/IfD8nJ2fw4MHXXHPNCy+8UF9fTwGtwDTpRcoPAAAAAAAAwBoq4s/Ly8vNzb3zzjvdf5cfiEOk/AAAAAAAAADsUF1dnZOTM3DgQPXlfe8RQPwh5QcAAAAAAABgga1bt+bn5/PlfcCDlB8AAAAAAACA6YLBYGVlJV/eB0KR8luPn6pAXGHBA9CLpwpgDvpRC8oIKLQD7MXqjREFtALTpBcpv/XKy8u9Q0DXxYIHoBdPFcAc9KMWlBFQaAfYi9UbIwpoBaZJL1J+69ESiCsseAB68VQBzEE/akEZAYV2gL1YvTGigFZgmvQi5bceLYG4woIHoBdPFcAc9KMWlBFQaAfYi9UbIwpoBaZJL1J+69ESiCsseAB68VQBzEE/akEZAYV2gL1YvTGigFZgmvQi5bceP1WBuMKCB6AXTxXAHPSjFpQRUGgH2IvVGyMKaAWmSS9SfgAAAAAAAAAAbEXKDwAAAAAAAACArUj5AQAAAAAAAACwFSl/3Nm+fXtCQsLJkyd37NiRkpLS0tLiPeIcdZh3h7XkJ2ptbfXu6EDtLL7TFesPAAAAAAAA4GIg5bdehJ+qeO+99yZNmtSvX7/k5OTc3NwFCxYcPXq0nfFxOw+zSIel/BFKF2GXR/uPjDcRFjwARIGnCmAO+lELyggotAPsxeqNEQW0AtOkFym/9crLy71D52zevDkQCPzyl79saGgQL2trax988MENGza0Mz5u52HGOnXqlGfkvCl/6CnRiVC6CLs82n9kvPFb8AAQHZ4qgDnoRy0oI6DQDrAXqzdGFNAKTJNepPzW82uJwsLCxx57zDvqio/dOfKJEyfmzZuXmZmZkpIybNiwnTt3uvfu2bNn0KBBTz/9dOh1li9fnpubGwgEZs2apSLpioqKIUOGiMH09PQpU6bU1dXJ8SVLluTk5CQlJWVnZ6u3HTpYVVWVn58v9z7yyCPiLjU1NWJ727ZtaWlpMqY/cuSIuHJqamq/fv0WLFggA3r5ll5++WVx+qWXXiqOPHTo0Le+9a3k5GRRjWeeeSY05Q89pbGxcfbs2X379hVvXnyo5uZmeWTo+xRCDz5+/Lg4Rlwz5Zznn3/+/79ZuOLLjTVr1oiKiRNHjx4tqu0+0vGpf9zyW/AAEB2eKoA56EctKCOg0A6wF6s3RhTQCkyTXqT81gvbEocOHVLhuEdo0CwGp0yZ8o1vfOPgwYNie9++fQcOHFB733zzzaysrLVr14a9zrRp05qamurq6kaMGPHAAw/IXa+//vr+/fudc1n8DTfcMGHCBLH9ySefiOPfeustsd3Q0LB7926/wfr6+sTExNraWrE9ZsyY/Pz8F154QWw/+uij8lKCuKx4z+LWwWBQ3PrBBx902t7S9OnTxaW++OILMTJ+/Hh1WFFRkV/K7z6ltLR08uTJ4mVjY6O4y//H3v2HR1HdexxPDL+W/MIQQhLUEIUUNFCwTSNSL3miPtL7KD/1QajRCzQV+WGlSH2oUtqqFEukt4ikKlhEfECUykVF+yDhuWhBlCJisQ8CKiLsAtWQkEAohL2nOeXcYXZ2s84eyJzs+/WHz+yZmTNnv3PO3N5Plt0pU6YEw4wz3MHWwtqEFl9ujBkzRrzrhoaGsrIy8ZatR4arf9xynPAA4BpPFcA7WI9aUEZAYTnAXMzeGFFAI3Cb9CLlN57jkti+fXtCQsKxY8fsO5yC5sOHD4sNcUroYU888URubu67775r3WU94OOPP5YvV6xYkZ2dfe4h/1JVVeXz+cTGwYMHk5KSFixYcPToUbXXsVEoKipavHhxTU1Nenq62Lj11ltFY0lJye9//3ux4ff7HS8th7R7927Zbjts5cqVCWFSfnXKkSNHEhMTd+3aJV+uXbs2MzMzGGac4Q52kfLLP2kIGzdubNOmjToyQv3jluOEBwDXeKoA3sF61IIyAgrLAeZi9saIAhqB26QXKb/xHH+q4ssvv0xISPj000/tO5yCZvkngbq6utDDunbt+tOf/tTarsgD1FmbN29OTEyU26tWrSouLr744ovT0tJSUlLEYadPn5btJSUlomXAgAEbNmxQB4c2zpgxY/To0atXrx48eLDf78/IyDh27Fj79u137twp9n7wwQeOl7bF66GHJYRJ+dUpshTpZ4nxd+jQobGxMeg0znAHu0j51cHypRhks/WPW44THgBc46kCeAfrUQvKCCgsB5iL2RsjCmgEbpNepPytVmFh4ezZs+2tTkGz/Cy/+hYa62Eff/xxfn7+gw8+aN1lO0C+fPHFF7t27Ro8+7H35cuXNzQ0iJfr16+3ZeuifdasWZ07d1YtoY3iLNHbpEmTHn/88WDTe3n44Ydzc3PlXtuH9MWlrZ/lV4l59J/lV6cEAgHx8sCBA9ZjrKzjDHfw1q1brX1ahRY/csofof4AAAAAAAAAECTlb8U2bNiQmpq6YMGC2tpa8XL//v0zZsx48803HfPlESNGlJSUyMDa9r38X375Ze/eve+9994zZ85Y+5cHjBo1qq6u7tChQ/369Zs6dapo37t3r2h/4403xPa+ffsGDRokY+tPP/103bp1J0+ebGxsnDt3blZWljjAsTHYFKb7fL60tDT5t4f77rtPbJeVlamrl5aWjhw5sr6+Xl56+vTpakjWeF28KXVYcXGxHInaG3Q6ZciQIWPGjPnqq6+CTX8nEMMLhh+n48HyS/zlPzuwCS1+5JQ/Qv0BAAAAAAAAIEjK37pt3bp1yJAhnTt3Tk5OzsvLmzJlyj/+8Q/HfLm2tra8vDwzMzMlJeXKK6/cvn27de/hw4f79+8/btw4+d01kjxg0aJFomfR/x133FFfXy93zZkzp0uXLqKroqKiyspKGVvv2rWruLg4NTXV5/OJ3uSX3jg2SjfeeGNWVpaMtl9//XXRyXPPPaf2+v3+oUOHihMzMjImTpwo/91AaGS/f//+0tLSjh07FhYWzp8/P5qUv6amRpWioKBg3rx5wfDjdDxYEEOSX+OzcOHCsx3/S2jxm035g2HqDwAAAADxKRAILFu2rLq62r4DAIB4RcoPl0LzcQAAAAAALoBNmzb17t170qRJW7Zsse8DACD+kPIbr6V+qoKUHy2ipSY8gNaKpwrgHaxHLSgj4kdlZeUll1zSrVu3//iP/3j66adDP9rPcoC5mL0xooBG4DbpRcpvvIqKCnvTBUHKjxbRUhMeQGvFUwXwDtajFpQRcWXu3LnZ2dnf/e53b7755oKCAttH+1kOMBezN0YU0AjcJr1I+Y3HkkBcYcID0IunCuAdrEctKCPijQz6hYKCguHDhxcXF6uP9rMcYC5mb4wooBG4TXqR8htP/g8aAAAAAADw3e9+N7sp9J80aZL9/38GDEH6GSMKaARuk16k/MZjSSCuMOEB6MVTBfAO1qMWlBHx5p133snLy1MRv9ju27fv/Pnz+Sw/jMbsjREFNAK3SS9SfuPxUxWIK0x4AHrxVAG8g/WoBWVEXFERf7du3S699NLbb7/d+r38LAeYi9kbIwpoBG6TXqT8AAAAAADAMO+88063bt1ycnLUh/ftRwAAEDdI+QEAAAAAgEk2bdrUo0cP24f3AQCIW6T8AAAAAADAGIFAYNmyZXx4HwAAhZQfAAAAAAAAAABTkfIbj5+qQFxhwgPQi6cK4B2sRy0oI6CwHGAuZm+MKKARuE16kfIbr6Kiwt4EtF5MeAB68VQBvIP1qAVlBBSWA8zF7I0RBTQCt0kvUn7jsSQQV5jwAPTiqQJ4B+tRC8oIKCwHmIvZGyMKaARuk16k/MZjSSCuMOEB6MVTBfAO1qMWlBFQWA4wF7M3RhTQCNwmvUj5jceSQFxhwgPQi6cK4B2sRy0oI6CwHGAuZm+MKKARuE16kfIbj5+qQFxhwgPQi6cK4B2sRy0oI6CwHGAuZm+MKKARuE16kfIDAAAAAAAAAGAqUn4AAAAAAAAAAExFyg8AAAAAABCtbdu2JScnNzQ0yJePPvpoRkaGaNmwYcM5xzl5//33ExISTpw4YesklDrSvkOT89R/5PcVeS8AwDVSfgAAAAAAEC+GDBlSVlZmaywpKZk0aZKtMRqBQCAxMXHLli32HWFEn61Hf2SUbB3q6t9dP+7OAgCEQ8pvPH6qAnGFCQ9AL54qgHewHrWgjIASbjm8/vrrPp+vurpatXzyySeJiYk7duywHBXWyZMnrS//+te/fqO0Ovp0O/ojo0TKb5BwsxdRooBG4DbpRcpvvIqKCnsT0Hox4QHoxVMF8A7WoxaUEVDCLYfGxsbLLrts/vz5quX++++/5ppr5HZtbe3YsWMzMjLS09Pvuuuu+vr64NlIeunSpT179mzXrt27774rE+pXXnnF5/OJ7eTk5K5duy5cuLBv376q2z179iQlJX3++eeqJWhJt20bL7/8cq9evURvV199tfx7gzUHFy3du3f/7//+b2tXQmVlpTgrJSVFjHb48OF+v992onr5j3/8Qw1VePLJJ8NdNxixCLbjjx496titvPqxY8cmTJiQlZUldl155ZUffPCB3BsIBGxnRVO6uBJu9iJKFNAI3Ca9SPmNx5JAXGHCA9CLpwrgHaxHLSgjoERYDr/+9a/79Okjt0+ePNmlS5c//vGP8uXIkSOHDRtWU1NTW1t7/fXXT5kyJXg24B41apRoP378uDXItm6LvcnJye+9957sasaMGTfddJPcVsKl/GPGjKmurm5oaCgrK5N/clAH/PnPf87Ozn7llVdsXQmvvvrqnj17xMahQ4fEaG+55ZZgmJT/1KlTju2h1w1GLELo8Y7dypfDhw+/7rrr9u/fL7Z37979xRdfhL59eVY0pYsrEWYvokEBjcBt0ouU33gsCcQVJjwAvXiqAN7BetSCMgJKhOVw4MCBNm3avPvuu2J7xYoVnTp1On78uNg+cuRIYmLirl275GFr167NzMwMnk2ud+/eLdvDpfzC+PHj7777brFx+vTp3Nzcl19+WbYroTG33Ni3b588YOPGjWJs6sgnnnhC9COHGllVVZXP5wuGDClyyh963chFCD3esVvx8vDhw2Jj+/btst2213ZWMIrSxZUIsxfRoIBG4DbpRcpvPJYE4goTHoBePFUA72A9akEZASXychg2bNi4cePERmlp6eTJk2Xj9u3bExIS0s9KS0vr0KFDY2NjuCDbti2899574qz6+vo1a9ZkZWX985//lO1KaMzt2LkK5bt27frTn/703D7+36pVq4qLiy+++GJx0ZSUFHH86dOnI3fo+C6sh32jIkToVvZTV1cn2217bWcFoyhdXIk8e9EsCmgEbpNepPzG46cqEFeY8AD04qkCeAfrUQvKCCiRl8PatWuTk5O3bduWmJj40UcfycZAIJCQkHDgwIFzj3UOxB1TfqF///5LliwZOnToz372M9WohMbcjp2r9Pzjjz/Oz89/8MEHz+3mXw4ePJiUlLR8+fKGhgbxcv369fLEHTt2iI0jR47Iw1577TXZvnXr1tALhV73GxUhQrfys/wffvjh/3dh2Ws7S4pcurgSefaiWRTQCNwmvUj5AQAAAABAfGlsbMzLy8vPz7/22mut7UOGDBkzZsxXX30ltv1+/7p164JhAu5wKX9lZWWfPn3atm37ySefqEYlNNx37Nz6Gfkvv/yyd+/e995775kzZ6xd7d27VxzwxhtviO19+/YNGjRInihOSU9P/9WvfnX69OkvvvhiwIABsv2zzz4TGzt37rReKPS6wW9ShMjdjhgxoqSkRP7BwPa9/LazpMilAwBEQMoPAAAAAADiziOPPJKQkLBkyRJrY01NTXl5eWZmZkpKSkFBwbx584JhAu5wKX9tba04t6SkRLVYhYb7jp3bvgnn8OHD/fv3HzduXGNjo7W3OXPmdOnSRVyuqKiosrJSxfRr1qzJz8/v2LFjcXHxM888o9onTpwov4dn4cKF4a4b/CZFiNytKIXq58orr9y+fbt1r/Us2Wfk0gEAIiDlBwAAAAAA0OPMmTP5+fkvvPCCfQeaQ+kAwDVSfgAAAAAAAD1WrlyZnZ0tvysf3wilAwDXSPmNx09VIK4w4QHoxVMF8A7WoxaUEVBaZDlkZWVlZ2evWbPGvgPNoXRWLTJ7WxMKaARuk16k/MarqKiwNwGtFxMegF48VQDvYD1qQRkBheUAczF7Y0QBjcBt0ouU33gsCcQVJjwAvXiqAN7BetSCMgKKWA7ZLc0+JiA6PMxjRAGNwG3Si5TfeCwJxBUmPAC9eKoA3sF61IIyAkqLLwdSfrjW4rPXdBTQCNwmvUj5jceSQFxhwgPQi6cK4B2sRy0oI6C0+HIg5YdrLT57TUcBjcBt0ouU33j8VAXiChMegF48VQDvYD1qQRkBpcWXAyk/XGvx2Ws6CmgEbpNepPwAAAAAAACakfIDAC4YUn4AAAAAAADNSPkBABcMKT8AAAAAAIBmpPwAgAuGlB8AAAAAAEAzUn4AwAVDym88fqoCcYUJD0AvniqAd7AetaCMgBLNcqiurl62bFkgELDv0IGUH65FM3sRAQU0ArdJL1J+41VUVNibgNaLCQ9AL54qgHewHrWgjIASeTls2bJl0qRJvXv33rRpk32fJqT8cC3y7EWzKKARuE16kfIbjyWBuMKEB6AXTxXAO1iPWlBGQHFcDtXV1U8//fTAgQNzc3Pz8vLOX8QfJOVHDBxnL6JHAY3AbdKLlN94LAnEFSY8AL14qgDewXrUgjICim05yA/vX3HFFd/73vcuueQSsXFeI/4gKT9iwMM8RhTQCNwmvUj5jceSQFxhwgPQi6cK4B2sRy0oI6DI5aA+vN+nT5++fftmN7kAEX+QlB8x4GEeIwpoBG6TXqT8xuOnKhBXmPAA9OKpAngH61ELyggoYjlUVVXJWL+l2McERIeHeYwooBG4TXqR8gMAAAAAgNbpr3/96/Dhw7t166aS93vuuaewsPACfJYfAIALhpQfAAAAAAC0Zg0NDb/97W8LCwtl0D906FCCfgBAa0LKDwAAAAAA4oL6aH9ubu7ll19O0A8AaB1I+QEAAAAAQByRH+0fMWJE7969CfoBAK0AKb/x+KkKxBUmPAC9eKoA3sF61IIyAko0y6G6unrZsmWBQMC+A2hR0cxeREABjcBt0ouU33gVFRX2JqD1YsID0IunCuAdrEctKCOgsBxgLmZvjCigEbhNepHyG48lgbjChAegF08VwDtYj1pQRkBhOcBczN4YUUAjcJv0IuU3HksCcYUJD0AvniqAd7AetaCMgMJygLmYvTGigEbgNulFym88lgTiChMegF48VQDvYD1qQRkBheUAczF7Y0QBjcBt0ouU33j8VAXiChMegF48VQDvYD1qQRkBheUAczF7Y0QBjcBt0ouUHwAAAAAAAAAAU5HyAwAAAAAAAABgKlJ+AAAAAAAAAABMFSnl37Fjx6TWYvbs2b8DAAAAAAAAAMBwX3zxhTXJj5TyT5o0KQEAAAAAAAAAAHjG73//e2uS33zKf/PNN882WXl5uXgXkydP/n0rNXz4cHsT0Hox4QHoxVMF8A7WoxaUEVBYDjAXszdGFNAI3CbXhg0b5iblnz179tcmW7NmjXgXGzZssL+91qKiosLeBLReTHgAevFUAbyD9agFZQQUlgPMxeyNEQU0ArfJtd/97nek/K0QSwJxhQkPQC+eKoB3sB61oIyAwnKAuZi9MaKARuA2udbCKb/8wqAFCxbYd5xnpPxAa8KEB6AXTxXAO1iPWlBGQGE5wFzM3hhRQCNwm1zzVsp/wUJ/Fym/HJvw4IMPWl8mJiZ27tx59OjRgUDAfk7L+ctf/mJvOjtme+v5NKuJvfUs63iiGVuzxzR7gGvRDDVceyz09hn5dmgR+4BVD2KocjuaDh0nPAC4xlMF8A7WoxaUEVBYDjAXszdGFNAI3CbXSPmjJce2fPnyHTt2WF8uXbp0xIgRYvuGG26wn9OiTp48aWuRY7Y12oSeFYvIV7TuXd7k3P12kXsLRteJO9EMtdnhuaC3T729OQpXnOjnlRrkRx99JLq6AGMGAAAAAAAAjHYhUv4333yzX79+aWlpF110UWpq6sCBA1977TW5S0Z4MtaX21bn9KKV65Tf8WVtba3YbteunXz50ksv5eXltW3btkOHDgMGDNi2bZts/8Mf/nDZZZclJSWJUoj2cI2PPvqo6G3JkiViu1evXqLb48ePb968WTSOHj1aNJ44ceL+++/v1q1bmzZtcnNzp06dKg6QvclRPfTQQ+np6fJT27t37+7bt29ycvIvfvEL21tQQs+qr6//yU9+kpOTIy5xxRVXLFy4UB4ZOtoIB8tuFdloZW0P3Z45c6YYT5cuXf70pz/Zjvmf//kfUZY+ffr4/X65y3ZAMMxQlbKyMnHkn//8Z7G9f/9+MTNFlYLh7521Z+t2NOWN3Gfo24ymz3DnNjs3lP/v6yzH+/jCCy+Ig0eNGiW27733XrE9d+7c4NneZsyYIcYpboQYs+zE2rncjmZeRXjLtpcAAAAAAAAAbC5Eyr906dKBAwfeeeed5eXlxcXF4nSfz/fJJ598fW7KP2HCBPmypKRkQhN7R/rIa7399tv2txeeLW2UL48cOXLw4MGKigqx3atXL7mrqqpKFLSysnLmzJnt27fv37+/bE9OTi4oKFiyZMkTTzwxZsyYcI3vvvuu6G3cuHGBQEBeRXT4m9/8RmwsXrxYHPCjH/1IbN90002LFi0S/5UHy97k8YMGDXr22Wc3btwoWgYPHixaROXHjx8v98ojrULPGjt2rGgZNmyYmB8jR44U26tWrQo6jTbCweqD2OE+320dT+j2iBEjRAHFRvfu3a3tr7zyStu2ba+55hpxH2W7Yu3EcaiKeJviyLKyMrH92GOPJTRNwmD4e2ft2bodTXkj9xn6NqPpM9y5EeZGs7cj3H38r//6L7E9ceLExMTE//zP/zxz5kzw7ADKm4gNMWbZiWy3bkczryK8ZdtLAAAAAAAAADYXIuUXXnnllZ///OcTJ06UKaTw3HPPfR3yFT22l+fJ5MmTxVXuu+8++3uLSI7N9lK55JJL3nnnHblr+fLlubm5aldSUpJsLyoqSk1Nvf3223/5y19u3rw5XOPp06fT09OvuOKKlStXZmZmDhgwYNasWTIG/fzzz8UBaWlpYvvw4cNiW/xXbIsW2Zu84hdffCFfCh07dhQttbW1NTU1cq/apYSeJYYkG5Xx48cHnUYb4WDVs+rWxro3dPvIkSOnTp1KaPrlA2t727Ztv/Od7xw7dkw2Wlk7cRyqVa9evZKTk+vq6vr06ePz+aqrq4Ph7521Z+t2NOWN3Gfo24ymz3DnRpgb6iz10ibcfRQl+ta3viVeinchrigPlgeoQYoxW9ut29HMqwhv2fYSAAAAAAAAgM2FSPnHjRv370jP4sknn/w6JNa3vTwf3EX8wZC0Ub5ct27d+vXrP/zww9OnT6tdGRkZ8l2IvZ06dVJnHT169Nlnn502bVqPHj1E4+rVq8M1Dh06VGyL/w4bNmzGjBnXXXddamrqFVdcIfuRSa7MWx1T/qDlpypkflpTUyMupPbahLbLS8i3IMlfI3AcbbiDHXu2su6NfvvSSy9t3769/LIdG+vBjkO1mjt3rmifPn26+O+dd94pG8PdO2vP1u1oyns++gx3boS5YTsyVLj7KPqRf6UQB+zdu1ceLLuqaZIQMeWX21K4S0R4y6GdOOK3WQDoxVMF8A7WoxaUEVBYDjAXszdGFNAI3CbXLkTK36FDB3HKPffc4/f7//73v8vYzvpd/CrWT0xMFC+feOKJc87Xx3XEHwxJG20vrTIzM8Wuxx57TH6PuTps9OjRCxcufP755wcNGiQa582bF65x/vz5CU0f0BYv33zzTdnJ3XffLfuR/x5i8ODBixcv/sEPfpDg9Nn5iooK2RLhu1CU0Hb5NSz9+vV7+umnn3nmGXHuhAkTgmFGG+7g4NlUV9zQN954w9q/ZL1u9Nu7du3Kysry+Xzr16+X7Yr1YMehWh0+fLhdu3Zyyql/hxHu3oXbjqa856PPcOdGmBvB5m6H4308c+aM6E1USYy/bdu23/3ud//5z38Gz15UfWOPuJbsxDoY67bkeIlgxLcc2okjNeEBQAueKoB3sB61oIyAwnKAuZi9MaKARuA2uXYhUv7LL79cnJKfnz927NiCggIZ2zmm/Jdddpl42aNHjx//+Mfav5c/log/GJI22l5arVixIisrKyUlZfr06Xl5eeqwG2+8MTMz86KLLurUqdOoUaOOHj0arnHnzp2y/61btx47dqxNmzZie+XKlbKfEydOTJs2LTc3NykpKScnR7wj2y+sBi1LYvfu3X369OnYsaP80LrjmEPbGxoaZsyY0b17d3Hp1NTU4uLiZcuWBcOMNtzBwm9/+9v09HTR+VVXXWXtX7Je9xttf/DBB6Jb8abkt70r1oMdh2pz2223ieN79+6tWsLdO8dhBKMr7/noM9y5EeZGsLnb4XgfxSni+KlTp4oD5syZI7Z/+tOfBs9e9KGHHmr213fPdv8vjpcIRnzLoZ044v8GANCLpwrgHaxHLSgjoLAcYC5mb4wooBG4Ta5diJR/3bp1V111VZs2bS6//PIXXnhBxnaOKf/y5ct79OiRlJQk28/pJTYxRvzBs2njkSNH6uvr7fu8hyWB80ouB3urVmKhieUW5YWY8AD04qkCeAfrUQvKCCgsB5iL2RsjCmgEbpNrFyLlb3GxR/zBs7Gm8OCDD9r3eQ9LAudVlOF7LGbNmqUWnX1fCCY8AL14qgDewXrUgjICCssB5mL2xogCGoHb5FrrT/m1RPyC+r3QPXv22Pd5Dz9VAdPt3btXLTr7vhBMeAB68VQBvIP1qAVlBBSWA8zF7I0RBTQCt8m1Vp7y64r4AQAAAAAAAADwIJcpf3l5+RrPmzBhAhE/AAAAAAAAAKAVc5nym4KIHwAAAAAAAADQin3jlH/27NnihMmTJ2/wvLfffts+egAAAAAAAAAAWpFvnPI7ngCv4acqEFeY8AD04qkCeAfrUQvKCCgsB5iL2RsjCmgEbpNrjqE9Kb/xKioq7E1A68WEB6AXTxXAO1iPWlBGQGE5wFzM3hhRQCNwm1xzDO1J+Y3HkkBcYcID0IunCuAdrEctKCOgsBxgLmZvjCigEbhNrjmG9qT8xmNJIK4w4QHoxVMF8A7WoxaUEVBYDjAXszdGFNAI3CbXHEN7Un7jaV8S27ZtS05ObmhosO+I6P333xez5cSJE/YdcEuW9NSpU/YdweCjjz6akZEhbtOGDRvs+1o77RMeQJzjqQJ4B+tRC8oIKCwHmIvZGyMKaARuk2uOoT0pv/Fc/FSFjI+Tk5NTU1M7derUr1+/Bx54IBAI2I/7Jkj5tQuX8os7lZiYuGXLFlt7nHAx4QEgAp4qgHewHrWgjIDCcoC5mL0xooBG4Da55hjak/LHI2sif/r06e3bt995551ZWVl79+61Hxo1Uv4YnTx50tYSLuX/61//+o1KHdozAAAAAAAAABM5hvak/PHIMZEfMWLE7bffbts7b968bt26+Xy+3Nxc+e9o5N5Fixbl5eWlpKTcdddd8kjrWZWVlb169RJ709PThw8f7vf7RePChQv79u2rLrdnz56kpKTPP/9ctQTPdvLyyy+L08VFr7766h07dshdtbW1Y8eOzcjIEH2Ki9bX14vGVatW9ezZUx4wc+ZMca78Q8WWLVvS0tJs+Xi4kQfDDDjo9PYdG6MZxqFDh0TPqampnTt3njx5skze5ZCWLl0qTm/Xrp048sCBAzfccEPHjh0LCwvnz58fmvK/8sor4tIJTf8Uo2vXrlH2/O6774qXL7300pVXXik6/853viMKu3r1anEV0Vv//v3/9re/Wa8CAAAAAAAAwIMcQ3tS/njkmPK/8sormZmZ1r2fffaZ2HjrrbdEY01NzYcffqj23nbbbXV1dX6/v2/fvtOmTbP1+eqrr+7ZsyfYFEBff/31t9xyi+whOTn5vffek5ebMWPGTTfd9O9rnyU7GTNmTHV1dUNDQ1lZ2TXXXCN3jRw5ctiwYaKT2tpa0eeUKVNEozgsKSlp3759Ylsc2bNnz6eeekpsP/LII/KiVuFGHgwzYMe379gYzTBEt8OHDxeXDgQC4tIPPPBA8OyQRo0aJbo6fvy4aCktLVWHFRUVhab86ix1+6LpWb68/fbbv/76a1HYu+66Ky8v74c//KF6OXDgwHOuAQAAAAAAAMB7HEN7Uv545Jjyb9q06aKLLrLuPXjwYFJS0oIFC44ePaoOk3s//vhj+XLFihXZ2dnWs9SRUlVVlc/nk9vjx4+/++67g01fE5Sbm/vyyy+fc+jZTmRcLmzcuLFNmzZi48iRI4mJibt27ZLta9eulX+QEIqKihYvXlxTU5Oeni42br31VtFYUlISOm/DjdxGDdjx7Ts2Bpsbht/vd7y0HNLu3btlu+2wlStXNpvyR9mzrbBvv/22eHngwAH1UtYZAAAAAAAAgJc5hvak/MZz8VMVjol86Gf5g03fRVNSUpKSkjJgwIANGzaovXV1dfKszZs3JyYmhp5VXFx88cUXp6WliXNF++nTp0X7e++9J1rq6+vXrFmTlZX1z3/+89/XPss2MPny1KlT27dvFxvpZ4lOOnTo0NjYGGz6NwGjR49evXr14MGD/X5/RkbGsWPH2rdvv3PnznO6Dj/yYPgBh779cI2Rh/HBBx84Xtr2fkMPk29fvlSsZ4We4tiz40vVs+2lx7mY8AAQAU8VwDtYj1pQRkBhOcBczN4YUUAjcJtccwztSfmNp74vPnqOKf/IkSNHjx7tuLehoWHWrFmdO3dWe9WHx1988UX57fDqLPlp9+XLl4uzRPv69eutCXL//v2XLFkydOjQn/3sZ//u3SJcGB0IBBIsnz23Ev2LAUyaNOnxxx8XLwsLCx9++OHc3Fz7ceFHHnnAwXPffrjGyMOwfeJeXNrxH0DE/ln+cD07vjQ05Xcx4QEgAp4qgHewHrWgjIDCcoC5mL0xooBG4Da55hjak/Ibz8WSsGa+jY2NO3bsGDt2bFZWlvxuerX3008/Xbdu3cmTJ8Uxc+fOFQeovaNGjaqrqzt06FC/fv2mTp1qPWvv3r1i44033hCN+/btGzRokDVBrqys7NOnT9u2bT/55BM1HiVCGD1kyJAxY8Z89dVXwaZoWwxMHtPQ0ODz+dLS0uRX5N93331iu6ys7N89WoQbebgBO759x8ZgFMMoLS0dOXJkfX29vPT06dPVkKx/UCkpKVGHFRcXO4bvtrOi6dnxJSk/AAR5qgBewnrUgjICCssB5mL2xogCGoHb5JpjaE/KbzwXS0KmusnJyampqenp6d/+9renT58eCASse0+cOLFr167i4mJxjM/n69+/v/UbexYtWpSXlyd6uOOOO+rr661nie05c+Z06dIlJSWlqKiosrLSmiDX1taK9pKSEvnSJkIYXVNTU15enpmZKU4vKCiYN2+eOuvGG2/Myso6c+aM2H799dfFKc8995zaq4QbeTDMgB3fvmOjFHkYfr9/6NCh4sSMjIyJEyfKfzcQmvLv37+/tLS0Y8eOhYWF8+fPdwzfbWdF07PjS1J+AAjyVAG8hPWoBWUEFJYDzMXsjREFNAK3yTXH0J6U33jNLonq6uply5apED9GocH0N3LmzJn8/PwXXnjBvuP8i3Hk8IhmJzwAfCM8VQDvYD1qQRkBheUAczF7Y0QBjcBtcs0xtCflN16En6pYuXLlrbfe2rt3702bNtn3uRVjVi6GlJ2dLT9vfoHFOHJ4RIQJDwAu8FQBvIP1qAVlBBSWA8zF7I0RBTQCt8k1x9CelL8VCgQCEydOzM/Pz8nJufzyyzVG/MHYsvKsrKzs7Ow1a9bYd1wQsYwcAAAAAAAAAFqcY2hPyt+qrFy5cuDAgdlNvv/97xcWFuqN+AEAAAAAAAAALcUxtCflbw3Uh/dlvi/cfPPNRPwAAAAAAAAA0Jo4hvak/Marqqqy5vsAAAAAAECw///PAACYzzG0J+U33l/+8pfq6uqnn366qKiooKDg0ksvFf9TRvxXbPNZfrQ+/DYLAL14qgDewXrUgjICCssB5mL2xogCGoHb5JpjaE/Kb7yKigq1vWXLlh//+Mfdu3cvKCjo1q0bQT9aH+uEB4DY8VQBvIP1qAVlBBSWA8zF7I0RBTQCt8k1x9CelN94oUtCfbQ/JycnLy+PoB+tSeiEB4BY8FQBvIP1qAVlBBSWA8zF7I0RBTQCt8k1x9CelN94EZbEli1bJkyY0Lt3b4J+tBoRJjwAuMBTBfAO1qMWlBFQWA4wF7M3RhTQCNwm1xxDe1J+4zW7JKqrq5ctWxYIBOw7AAM1O+EB4BvhqQJ4B+tRC8oIKCwHmIvZGyMKaARuk2uOoT0pv/H4qQrEFSY8AL14qgDewXrUgjICCssB5mL2xogCGoHb5JpjaE/KDwAAAAAAAACAARxDe1J+AAAAAAAAAAAM4Bjak/IDAAAAAAAAAGAAx9CelB8AAAAAAAAAAAM4hvak/MbjpyoQV5jwAPTiqQJ4B+tRC8oIKCwHmIvZGyMKaARuk2uOoT0pv/EqKirsTUDrxYQHoBdPFcA7WI9aUEZAYTnAXMzeGFFAI3CbXHMM7Un5jceSQFxhwgPQi6cK4B2sRy0oI6CwHGAuZm+MKKARuE2uOYb2pPzGY0l40Pvvvy/WzqlTp+w7EDMmPAC9eKoA3sF61IIyAgrLAeZi9saIAhqB2+SaY2hPym88xyUhU+Zki5tvvtl+kIU8/sSJE/YdcIWU//xxnPAA4BpPFcA7WI9aUEZAYTnAXMzeGFFAI3CbXHMM7Un5jef4UxXfNLX/pscLJ0+etDfFq9BSkPKfP44THgBc46kCeAfrUQvKCCgsB5iL2RsjCmgEbpNrjqE9KX/rFC61l+0vv/xyr169fD7f1VdfvWPHjqNHj4pt9dn/J598UhxZW1s7duzYjIyM9PT0u+66q76+Xp2+dOnSnj17tmvXzppiO/Ysdzl2tWrVKtGJPGDmzJni3L1794rtLVu2pKWl2fJx2fmiRYvy8vJSUlJEJ+qtVVZWiiuKRtH58OHD/X6/bJ83b163bt3ESHJzc9XfBkMboxnGoUOHRM+pqamdO3eePHmyzPRDS3HgwIEbbrihY8eOhYWF8+fPJ+UHAAAAAAAAoJdjaE/K3zpFTvnHjBlTXV3d0NBQVlZ2zTXXOB4/cuTIYcOG1dTU1NbWXn/99VOmTFGHjRo1SrQfP35cHax2hfYcritxWFJS0r59+8S2OLJnz55PPfWU2H7kkUduueUWS8f/Iju/7bbb6urq/H5/3759p02bJne9+uqre/bsCTZl8aJzee5nn30mjn/rrbfEtrjuhx9+GK4xmmGIbocPHy4uHQgExKUfeOCBoFMpSktL1WFFRUWk/AAAAAAAAAD0cgztSflbJ5lBp1s89NBDql2G2sLGjRvbtGmj2lXKf+TIkcTExF27dsmXa9euzczMVIft3r1btluF6zlcV0JRUdHixYtramrE8MTGrbfeKhpLSkpCp5zs/OOPP5YvV6xYkZ2dfe4h/1JVVeXz+cTGwYMHk5KSFixYcPToUbXXsTHY3DD8fr/jpW2lsB22cuVKUn4AAAAAAAAAejmG9qT8rVPoZ/Md2+XLU6dO2dq3b99u/SNBWlpahw4dGhsbw3UbDN9zuK7EMTNmzBg9evTq1asHDx7s9/szMjKOHTvWvn37nTt3ntP12d7q6urky82bNycmJsrtVatWFRcXX3zxxaLnlJQUcdjp06dle0lJiWgZMGDAhg0b1MGhjZGH8cEHHzhe2vZ+Qw+Tb1++BAAAAAAAAIDYOYb2pPzGc/ypinBxfLgsfuvWrdb2QCAgXh44cOD/z2wSrtvQXarncF0J69ev79q166RJkx5//HHxsrCw8OGHH87NzbUfF/JZ/hdffFGcGDz78fzly5c3NDQEmzq0ZeuifdasWZ07d1YtoY2Rh2H7kL64tPWz/Or98ln+C8ZxwgOAazxVAO9gPWpBGQGF5QBzMXtjRAGNwG1yzTG0J+U3nvppWatwcXy4LF5+Z731Q/RDhgwZM2bMV199FWyKsNetWxd6ulW4noNhugo2pe0+ny8tLU1+Rf59990ntsvKyv7do4XsbdSoUXV1dYcOHerXr9/UqVNF+969e0X7G2+8Ibb37ds3aNAgedFPP/1UXOXkyZONjY1z587NysoSBzg2BqMYRmlp6ciRI+vr6+Wlp0+froZkLUVJSYk6rLi4mJT/PHGc8ADgGk8VwDtYj1pQRkBhOcBczN4YUUAjcJtccwztSfmN57gkZAadbHH11VerdscsfuLEifJLdRYuXBhs+n3a8vLyzMzMlJSUgoKCefPmhZ5uFaFnx66kG2+8MSsr68yZM2L79ddfF6c899xzaq8ie1u0aFFeXp54L3fccUd9fb3cNWfOnC5duoiei4qKKisr5UV37dpVXFycmprq8/n69+8vv5zHsVGKPAy/3z906FBxYkZGhqiS/HcDoaXYv39/aWlpx44dCwsL58+fT8p/njhOeABwjacK4B2sRy0oI6CwHGAuZm+MKKARuE2uOYb2pPzGi4clERqpI27Fw4QHcCHxVAG8g/WoBWVEPAgEAsuWLauurrbvOBfLAeZi9saIAhqB2+SaY2hPym+8eFgSpPxQ4mHCA7iQeKoA3sF61IIyIk5s2rSpZ8+e5eXlW7Zsse87i+UAczF7Y0QBjcBtcs0xtCflN148/FQFKT+UeJjwAC4kniqAd7AetaCMiB/r1q3Lzc3NyckpKip6+umnQz/az3KAuZi9MaKARuA2ueYY2pPyAwAAAAAA86xbt+6SSy7Jzs7u2bNn9+7dI3+0HwCA1sExtCflBwAAAAAARlJBvyA2evbsGe6j/QAAtA6OoT0pv/Hk/5oBAAAAAAD5+fnivwUFBVVVVfb//xkAAPM5hvak/AAAAAAAwEjPP/98Tk6OzPeLi4v79et33XXX8Vl+AEAr5hjak/Ibj5+qQFxhwgPQi6cK4B2sRy0oI+KKjPjz8/O///3v9+jRY9KkSdbv5Wc5wFzM3hhRQCNwm1xzDO1J+Y1XUVFhbwJaLyY8AL14qgDewXrUgjIifjz//PPdunXLzc0N9+F9lgPMxeyNEQU0ArfJNcfQnpTfeCwJxBUmPAC9eKoA3sF61IIyIk5s2rTpW9/6lu3D+zYsB5iL2RsjCmgEbpNrjqE9Kb/xWBKIK0x4AHrxVAG8g/WoBWVEPAgEAsuWLQv98L4NywHmYvbGiAIagdvkmmNoT8pvPJYE4goTHoBePFUA72A9akEZAYXlAHMxe2NEAY3AbXLNMbQn5TceP1WBuMKEB6AXTxXAO1iPWlBGQGE5wFzM3hhRQCNwm1xzDO1J+QEAAAAAAAAAMIBjaE/KDwAAAAAAAACAARxDe1J+AAAAAAAAAAAM4Bjak/IDAAAAAAAAAGAAx9CelN94/FQF4goTHoBePFUA72A9akEZAYXlAHMxe2NEAY3AbXLNMbQn5TdeRUWFvQlovZjwAPTiqQJ4B+tRC8oIKCwHmIvZGyMKaARuk2uOoT0pv/FYEogrTHgAevFUAbyD9agFZQQUXcvh/fffT0hIOHHihH1HdLZt25acnNzQ0GDfgTBkwU+dOmXfEU90zd64RQGNwG1yzTG0J+U3HksCcYUJD0AvniqAd7AetaCMgBJhOWzatOnaa6/1+XxpaWl9+/b905/+ZD/CIsaUX9HVT6tHyh+MOHsRDQpoBG6Ta46hPSm/8VgSiCtMeAB68VQBvIP1qAVlBJRwy6Gurq5Tp05z5sxpaGhobGx8//33//d//9d+kIWudF5XP63MyZMnbS2k/MHwsxdRooBG4Da55hjak/Ibj5+qQFxhwgPQi6cK4B2sRy0oI6CEWw4ffvhhQkLCV199ZWu3pfAqa5YbixYtysvLS0lJueuuu+Qxsv2ll1668sorO3bs+J3vfGfHjh2rV68uLCz0+Xz9+/f/29/+pg4LBAKiUWwkN3nyySdDL/3yyy/36tVLHHb11VeLruSu2trasWPHZmRkpKeni0vX19eLxlWrVvXs2VMeMHPmTHHu3r17xfaWLVvS0tJs+Xi48QuVlZXiiqJRdD58+HC/3y/b582b161bNzGS3NxcFcOFNkYzjEOHDomeU1NTO3fuPHnyZJnpyyEtXbpUnN6uXTtx5IEDB2644QZRRlG9+fPnk/KHm72IEgU0ArfJNcfQnpQfAAAAAADEi/r6+i5dutx8882rV68+ePCgao+c8t922211dXV+v79v377Tpk1TB9x+++1ff/11Q0PDXXfdlZeX98Mf/lC9HDhwoLXbCJ/ll7vGjBlTXV0tzi0rK7vmmmvkrpEjRw4bNqympqa2tvb666+fMmWKaBSHJSUl7du3T2yLI3v27PnUU0+J7UceeeSWW26xdPwv4cYvvPrqq3v27Ak2ZfGic3nuZ599Jo5/6623xLa47ocffhiuMZphiG6HDx8uLh0IBMSlH3jggeDZIY0aNUp0dfz4cdFSWlqqDisqKiLlB4AIHEN7Un4AAAAAABBHdu3aNX78+O7duyckJHzve9/buXNnsLmU/+OPP5btK1asyM7OVgfIjFt4++23xcsDBw6ol23atFGHRZPyq642btwozz1y5EhiYqIYrWxfu3ZtZmam3C4qKlq8eHFNTU16errYuPXWW0VjSUlJaIYTbvw2VVVVPp9PbBw8eDApKWnBggVHjx5Vex0bg80Nw+/3O15aDmn37t2y3XbYypUrZeXlSwCAjWNoT8oPAAAAAADi0Zdffjls2LA+ffoEm0v56+rqZPvmzZsTExMjHO94ejQpf2hX27dvFxvpZ6WlpXXo0KGxsVEcM2PGjNGjR69evXrw4MF+vz8jI+PYsWPt27eXf7GwCjf+YNNX7hQXF1988cWi55SUFHHY6dOnZXtJSYloGTBgwIYNG9TBoY2Rh/HBBx84Xtr2fkMPs1YSAGDjGNqT8gMAAAAAgDi1cePGiy66SGzs2LEjISHhyJEjsv21116zxvTqk+Yvvvhi165dgyFRdbMp/9atW63HW4XrKhAIJFj+fYDV+vXrxTAmTZr0+OOPi5eFhYUPP/xwbm6u/biQz/Kr8cuP5y9fvryhoSHY1KEtWxfts2bN6ty5s2oJbYw8DNuH9MWlrZ/lV++Xz/IDwDfiGNqT8huPn6pAXGHCA9CLpwrgHaxHLSgjoIRbDp9//nlFRcX+/fvF9tGjR8vKyr73ve+J7RMnTqSnp//qV786ffr0F198MWDAAGtMP2rUqLq6ukOHDvXr12/q1KnBkKi62ZRffrV96Gft1cGOXQ0ZMmTMmDHyt4L9fv+6devkMQ0NDT6fLy0tTX5F/n333Se2xXv5d48W4ca/d+9e0f7GG2+I7X379g0aNEhe9NNPPxVXOXnyZGNj49y5c7OyssQBjo3BKIZRWlo6cuTI+vp6eenp06erIVn/4FFSUqIOKy4uJuUPN3sRJQpoBG6Ta46hPSm/8dTv3QPxgAkPQC+eKoB3sB61oIyAEm45HD58+NZbb83JyenYsePFF188dOjQTz/9VO5as2ZNfn6+aC8uLn7mmWesMf2iRYvy8vKSk5PvuOOO+vr6YEhU3WzKLxonTpwov3tn4cKF8jDrwY5d1dTUlJeXZ2ZmpqSkFBQUzJs3T5114403ZmVlnTlzRmy//vrr4pTnnntO7VXCjV+YM2dOly5dRM9FRUWVlZXyort27RJvPzU11efz9e/fX345j2OjFHkYfr9fVFicmJGRId6+/HcDoSn//v37S0tLReULCwvnz59Pyh9u9iJKFNAI3CbXHEN7Un7jsSQQV5jwAPTiqQJ4B+tRC8oIKCwHKTRSh/cxe2NEAY3AbXLNMbQn5TceSwJxhQkPQC+eKoB3sB61oIyAwnKQSPlNxOyNEQU0ArfJNcfQnpTfeCwJxBUmPAC9eKoA3sF61IIyAgrLQSLlNxGzN0YU0AjcJtccQ3tSfuPxUxWIK0x4AHrxVAG8g/WoBWUEFJYDzMXsjREFNAK3yTXH0J6UHwAAAAAAAAAAAziG9qT8AAAAAACgFcpuafYBAQAQM8fQnpQfAAAAAABAM1J+AMD54Bjak/IDAAAAAABoRsoPADgfHEN7Un7j8VMViCtMeAB68VQBvIP1qAVlBJQWXw6k/HCtxWev6SigEbhNrjmG9qT8xquoqLA3Aa0XEx6AXjxVAO9gPWpBGQGlxZcDKT9ca/HZazoKaARuk2uOoT0pv/FYEogrTHgAevFUAbyD9agFZQSUFl8OpPxwrcVnr+kooBG4Ta45hvak/MZjSSCuMOEB6MVTBfAO1qMWlBFQWnw5kPLDtRafvaajgEbgNrnmGNqT8huPJYG4woQHoBdPFcA7WI9aUEZAafHlQMoP11p89pqOAhqB2+SaY2hPym88fqoCcYUJD0AvniqAd7AetaCMgBLNcqiurl62bFkgELDv0IGUH65FM3sRAQU0ArfJNcfQnpQfAAAAAADEl82bN99xxx29e/fetGmTfZ8mpPwAgPPBMbQn5QcAAAAAAHGhurp67ty5V111VU5OTn5+/vmL+IOk/ACA88MxtCflBwAAAAAArdzmzZuHDx9+ySWX5OTk9OrV68orrzyvEX+QlB8AcH44hvak/AAAAAAAoHVSH96/5JJLspt8+9vfvgARf5CUHwBwfjiG9qT8xuOnKhBXmPAA9OKpAngH61ELyggoYjlUVVXJZL+l2McERIeHeYwooBG4Ta45hvak/MarqKiwNwGtFxMegF48VQDvYD1qQRkBRS6H6urqxx9/3PpZ/j59+pzXH90FYsfDPEYU0AjcJtccQ3tSfuOxJBBXmPAA9OKpAngH61ELyggotuWwefPmESNGyO/l/9a3vkXQDy/jYR4jCmgEbpNrjqE9Kb/xWBKIK0x4AHrxVAG8g/WoBWUEFMfloD7an5OTk5+fT9APb3KcvYgeBTQCt8k1x9CelN94LAnEFSY8AL14qgDewXrUgjICSuTlsHnz5rKyMj7RD2+KPHvRLApoBG6Ta46hPSm/8fipCsQVJjwAvXiqAN7BetSCMgJKNMuhurp62bJlgUDAvgNoUdHMXkRAAY3AbXLNMbQn5QcAAAAAAAAAwACOoT0pPwAAAAAAAAAABnAM7Un5AQAAAAAAAAAwgGNoT8oPAAAAAAAAAIABHEN7Un7j8VMViCtMeAB68VQBvIP1qAVlBBSWA8zF7I0RBTQCt8k1x9CelN94FRUV9iag9WLCA9CLpwrgHaxHLSgjoLAcYC5mb4wooBG4Ta45hvak/MZjSSCuMOEB6MVTBfAO1qMWlBFQWA4wF7M3RhTQCNwm1xxDe1J+47EkEFeY8AD04qkCeAfrUQvKCCgsB5iL2RsjCmgEbpNrjqE9Kb/xWBKIK0x4AHrxVAG8g/WoBWUEFJYDzMXsjREFNAK3yTXH0J6U33j8VAXiChMegF48VQDvYD1qQRkBReNyeP/99xMSEk6cOLFt27bk5OSGhgbHA06dOmVrhy7xVmGNszc+UUAjcJtccwztSfkBAAAAAEC8GDJkSFlZma2xpKRk0qRJtkZFpfz2HWc1m0E32wMia7bCABA/HEN7Un4AAAAAABAvXn/9dZ/PV11drVo++eSTxMTEHTt2WI46R7MZfbMZdLM9wOrkyZO2lmYrDADxwzG0J+UHAAAAAADxorGx8bLLLps/f75quf/++6+55hq5XVlZ2atXr5SUlPT09OHDh/v9/qAlo7eG9QcOHLjhhhs6duxYWFgoelMZdGgPR48e9fl84oDkJk8++aQ4rLa2duzYsRkZGeKwu+66q76+Xo1Hktd6+eWXRW/i9Kuvvlr9HcLx3FWrVvXs2VMeMHPmTHHu3r17xfaWLVvS0tJs+bjsfNGiRXl5eWKoohP1F4jQ8cv2efPmdevWTYwkNzdXfZt2aGM0wzh06JDoOTU1tXPnzpMnT5aZvhzS0qVLxent2rUTR4arMADEOcfQnpQfAAAAAADEkV//+td9+vSR2ydPnuzSpcsf//hH+fLVV1/ds2dPsCmJvv7662+55ZZgmJS/tLR0+PDhdXV1gUCgqKhIZdCRe5BXEUaOHDls2LCampra2lpx2JQpU9QuSZ4yZsyY6urqhoaGsrIy9acIx3PFYUlJSfv27RPb4siePXs+9dRTYvuRRx6RY7CSnd92221i/H6/v2/fvtOmTZO7HMf/2WefiePfeustsS2u++GHH4ZrjGYYoltVOnHpBx54IHh2SKNGjRJdHT9+PBi+wgAQ5xxDe1J+4/FTFYgrTHgAevFUAbyD9agFZQSUCMvhwIEDbdq0effdd8X2ihUrOnXqJGNlm6qqKp/PF3RK+f1+v9j4+OOP5ZErV650zKBDe5DtR44cSUxM3LVrl3y5du3azMxMdZYkT5FxubBx40Yx5mDEc4uKihYvXlxTU5Oeni42br311mDTTw6EBjuyczV+UYTs7OxzD/kXNf6DBw8mJSUtWLDg6NGjaq9jY7C5YdhKpy4th7R7927ZHmWFW6sIsxfRoIBG4Da55hjak/IbT/1DOSAeMOEB6MVTBfAO1qMWlBFQIi+HYcOGjRs3Ltj0gfHJkyer9lWrVhUXF1988cVpaWkpKSkJCQmnT58OTfk/+OADsVFXVyfP2rx5s8qgI/cgj9++fbt4mX6WOLJDhw6NjY1qGMGQPwzIl+ISEc6dMWPG6NGjV69ePXjwYL/fn5GRcezYsfbt2+/cudPas+rNOv7ExES57Th+2V5SUiJaBgwYsGHDBnVwaGPkYYSWTl7a9n5DD1MVjgeRZy+aRQGNwG1yzTG0J+U3HksCcYUJD0AvniqAd7AetaCMgBJ5OaxduzY5OXnbtm2JiYkfffSRbJQfTl++fHlDQ4N4uX79epksh6b84T5pHq6HrVu3WiPsQCAgXh44cEC+dBQu5Y9wrrhc165dJ02a9Pjjj4uXhYWFDz/8cG5urv24kM/yv/jii+LEYPgKqBNF+6xZszp37qxaQhsjD8NWOnFp62f51fsNV2H5stWLPHvRLApoBG6Ta46hPSm/8VgSiCtMeAB68VQBvIP1qAVlBJTIy6GxsTEvLy8/P//aa69VjXv37k1ISHjjjTfE9r59+wYNGiST5dCUP9j0FTQjR46sr68/dOhQcXGxPDJcD/Ir7K2fqR8yZMiYMWO++uqrYFOivW7dOrVLCpfyB8Of29DQ4PP50tLS5Ffk33fffWK7rKzs3z1ayN5GjRpVV1cnxt+vX7+pU6cGw1fg008/FVc5efKkqNvcuXOzsrLEAY6NwSiGUVpaqkonLj19+nQ1JPV+g2EqrPa2bpFnL5pFAY3AbXLNMbQn5TceSwJxhQkPQC+eKoB3sB61oIyA0uxyeOSRRxISEpYsWWJtnDNnTpcuXVJSUoqKiiorK2Wy7Jjy79+/v7S0tGPHjoWFhfPnz1cZtGMPon3ixInyO3YWLlwYbPq52vLy8szMTHFkQUHBvHnzrMMIhqTe1pQ/wrk33nhjVlbWmTNnxPbrr78uTnnuuefUXkX2tmjRory8vOTk5DvuuKO+vl7uchz/rl27iouLU1NTfT5f//795ZfzODZKkYfh9/uHDh0qTszIyBBlkf9uIDTlD1fheNDs7EVkFNAI3CbXHEN7Un7j8VMViCtMeAB68VQBvIP1qAVlBBSWQwShkTo8hdkbIwpoBG6Ta46hPSk/AAAAAABAHCHlBwBzOYb2pPwAAAAAAABxhJQfAMzlGNqT8gMAAAAAAAAAYADH0J6UHwAAAAAAtELZLc0+IAAAYuYY2pPyG4+fqkBcYcID0IunCuAdrEctKCOgtPhyIOWHay0+e01HAY3AbXLNMbQn5TdeRUWFvQlovZjwAPTiqQJ4B+tRC8oIKC2+HEj54VqLz17TUUAjcJtccwztSfmNx5JAXGHCA9CLpwrgHaxHLSgjoLT4ciDlh2stPntNRwGNwG1yzTG0J+U3HksCcYUJD0AvniqAd7AetaCMgNLiy4GUH661+Ow1HQU0ArfJNcfQnpTfeCwJxBUmPAC9eKoA3sF61IIyAkqLLwdSfrjW4rPXdBTQCNwm1xxDe1J+4/FTFYgrTHgAevFUAbyD9agFZQSUFl8OpPxwrcVnr+kooBG4Ta45hvak/AAAAAAAAJqR8gMAzgfH0J6UHwAAAAAAxKPq6uply5YFAgH7Dh1I+QEA54NjaE/KDwAAAAAA4suWLVvGjRvXu3fvTZs22fdpQsoPADgfHEN7Un4AAAAAABAXqqurFy5c2K9fv5ycnO7du5+/iD9Iyg8AOD8cQ3tSfuPxUxWIK0x4AHrxVAG8g/WoBWUEFNty2LJlyx133HHZZZddeuml+fn5vXr1Oq8Rf5CUHzHgYR4jCmgEbpNrjqE9Kb/xKioq7E1A68WEB6AXTxXAO1iPWlBGQJHLQX14Pz8/P7tJjx49LkDEHyTlRwx4mMeIAhqB2+SaY2hPym88lgTiChMegF48VQDvYD1qQRkBRSyHqqoqmey3FPuYgOjwMI8RBTQCt8k1x9CelN94LAnEFSY8AL14qgDewXrUgjICilwO1dXVM2fOLCgoyMnJkcn7tddee9VVV12Az/IDrvEwjxEFNAK3yTXH0J6U33gsCcQVJjwAvXiqAN7BetSCMgKKbTlUVVUNHjw4Nzc3Ozv729/+NkE/vIyHeYwooBG4Ta45hvak/MbjpyoQV5jwAPTiqQJ4B+tRC8oIKI7LwfrR/vz8fIJ+eJPj7EX0KKARuE2uOYb2pPwAAAAAACC+VFVV3X777b179yboBwCYxTG0J+UHAAAAAADxqLq6etmyZYFAwL4DAACvcgztSfkBAAAAAAAAADCAY2hPyg8AAAAAAAAAgAEcQ3tSfuPxUxWIK0x4AHrxVAG8g/WoBWUEFJYDzMXsjREFNAK3yTXH0J6U33gVFRX2JqD1YsID0IunCuAdrEctKCOgsBxgLmZvjCigEbhNrjmG9qT8xmNJIK4w4QHoxVMF8A7WoxaUEVBYDjAXszdGFNAI3CbXHEN7Un7jsSQQV5jwAPTiqQJ4B+tRC8oIKCwHmIvZGyMKaARuk2uOoT0pv/FYEogrTHgAevFUAbyD9agFZQQUlgPMxeyNEQU0ArfJNcfQnpTfePxUBeIKEx6AXjxVAO9gPWpBGQGF5QBzMXtjRAGNwG1yzTG0d5/y79ixY1JrMXv27N8BAAAAAAAAAOABX3zxhT2Rb/I7p9Defco/adKkBAAAAAAAAAAAoFW4WN4xtI815b/55ptnm6y8vFy8i8mTJ/8eAAAAAAAAAIAWNWzYsAixvGNoH2vKP3v27K9NtmbNGvEuNmzYYH97AAAAAAAAAABcWJFjece9pPzGp/z8VAXiChMegF48VQDvYD1qQRkBheUAczF7Y0QBjcBtiiByLO+41yspf0KTBQsW2HecZ60g5a+oqLA3Aa0XEx6AXjxVAO9gPWpBGQGF5QBzMXtjRAGNwG2KIHIs77jXoyn/BQv9XaT8cmzCgw8+qF5OmTLFuvecE84zTy2JcG8/XLujb3RwNKwdhutctc+aNUtuOx6GFuepCQ+gFeCpAngH61ELyggoLAeYi9kbIwpoBG5TBJFjece9kXJMxxOUOE/5ly9fvmPHDvXS5/MFAgH10n7O+dSCS+LkyZO2lnBvf3kTe2sY3+jgaFhHFa5zdcxHH30kDgj3RtDiWnDCA2iVeKoA3sF61IIyAgrLAeZi9saIAhqB2xRB5FjecW+kHNPxBMVFyv/mm2/269cvLS3toosuSk1NHThw4GuvvSZ3yVBVxvpy2+qcXrQqLy8X/b/99tv2txeeHJLtpXhT999/v21vfX39T37yk5ycnDZt2lxxxRULFy4UjY8++qg4YMmSJWK7V69e7dq1O378+ObNm0Xj6NGjVbeS7G3GjBnJycl9+vTZvXu3bH/ppZfy8vLatm3boUMHsbFt2zbZ/oc//OGyyy5LSkoS4xkwYEC4xmbHcOLECfF2unXrJkaem5s7depUcYDsTQ7poYceSk9PnzVrlmgRo+rbt68Y4S9+8Qvr27eytoeOx8Z6sNyeOXOmuFyXLl3+9Kc/icaysjLR+Oc//1ls79+/X0wnMYDguWURPauyhHYotyOM3PYS3sH/DQCgF08VwDtYj1pQRkBhOcBczN4YUUAjcJsiiBzLO+6NlGM6nqC4SPmXLl06cODAO++8s7y8vLi4OKHpI/CffPLJ1+em/BMmTJAvS0pKJjSxd6TJPffcI65y33332d9bRHJstpc///nPk5OT//GPf1j3jh07VmwPGzZMVHLkyJFie9WqVe+++67YGDduXCAQkAdXVVX95je/ERuLFy9W3UrygPImYmPw4MGyXZwi7ktlZeXMmTPbtm3bv39/2S7GUFBQsGTJkieeeGLMmDHhGpsdw49+9COxfdNNNy1atEj8Vx4se5PHDxo06Nlnn924caNoEaOSgxw/frzcK4+0sraHjsfGerDcHjFihHinYqN79+6iUVxXbJeVlYntxx57LKFp5gTPLUv79u1VWUI7lNsRRm57Ce/gt1kA6MVTBfAO1qMWlBFQWA4wF7M3RhTQCNymCCLH8o57I+WYjicoLlJ+4ZVXXvn5z38+ceJEmSMLzz333NchX9Fje3k+uIv4gyH5r3x55MiR5OTkBx980Lo3NTVVvlTGjx9/+vTp9PT0K664YuXKlZmZmQMGDJg1a5aMmz///HPVrSTPqq2trampERsdO3aU7cuXL8/NzVXdJiUlyfaioiJx0dtvv/2Xv/zl5s2bwzU2O4a0tDSxffjwYbEt/pvQ9I8VZG/yil988YV8KYhRWQeZ4BSOW9tDx2NjPVhui/KeOnVKbCQmJsr2Xr16iYLX1dX16dPH5/NVV1cHw5cltEO5HWHktpcAAAAAAAAAcAFEjuUd90bKMR1PUFyk/OPGjZPhqdWTTz75dUisb3upneuIPxiS/6qX06ZNk+G42itfinex7iz5Vf5Dhw4V7eK/w4YNmzFjxnXXXZeamnrFFVeoPhXZW02TBEvKn5GRoXru1KmTuuLRo0efffZZMZIePXqIxtWrV4drjDwGOfIjR44Ew6T8cluSWbkYobhQ6F7J2u44HivrweG2586dK7anT58u/nvnnXfKxnBlCddJhJHbXgIAAAAAAADABRA5lnfcGynHdDxBcZHyd+jQQZxyzz33+P3+v//97zJItX4Xv4r1ExMTxcsnnnjinPM1iSXiD4bkv+qleFPyDaq98mt2+vXr9/TTTz/zzDPjx4+fMGGCaJ8/f35C08fS582b9+abb8pT7r77btWnInepb+z5wQ9+INszMzPFy8cee+zee++1XnH06NELFy58/vnnBw0aJBpF/+EaI49B/kuLwYMHL168WFw0oelfIchd1stJEb73RrG2O47HynpwuO3Dhw+3a9dOzpN33nlHNoYrS7jtCCO3vQQAAAAAAACACyByLO+4N1KO6XiC4iLlv/zyy8Up+fn5Y8eOLSgokEGqY8p/2WWXiZc9evT48Y9/rPd7+WOM+IMh+a/15ZQpU6wvGxoaZsyY0b179zZt2qSmphYXFy9btky079y5Ux62devWY8eOib1ie+XKlapPRR720EMP2X59d8WKFVlZWSkpKdOnT8/Ly1NXvPHGGzMzMy+66KJOnTqNGjXq6NGj4Rojj+HEiRPTpk3Lzc1NSkrKyckR5bL9+q7clsSoxNg6duwoP1lv2ytZ2x3HY2U9ONy2cNttt4mXvXv3Vi3hyhKukwgjt70EAAAAAAAAgAsgcizvuDdSjul4guIi5V+3bt1VV13Vpk2byy+//IUXXpBBqmPKv3z58h49eiQlJcn2c3qJQewRf/Bs/nvkyJH6+nr7Pt3kteyt5+KnKvQSt1Xc3GgqjxbBhAegF08VwDtYj1pQRkBhOcBczN4YUUAjcJsiiBzLO+6NlGM6nqC4SPlblpaIP3g2eRcefPBB+z7dosmaKyoq7E2IwaxZs9Qttu+DBzDhAejFUwXwDtajFpQRUFgOMBezN0YU0Ajcpggix/KOeyPlmI4nKGal/LoifkH9lO6ePXvs+1oCS0KvvXv3qlts3wcPYMID0IunCuAdrEctKCOgsBxgLmZvjCigEbhNEUSO5R33xpryl5eXr/E8+dO1WiJ+D2JJIK4w4QHoxVMF8A7WoxaUEVBYDjAXszdGFNAI3KYIIsfyjntjTflN0Voj/iBLAnGGCQ9AL54qgHewHrWgjIDCcoC5mL0xooBG4DZFEDmWd9zrPuWfPXu22Dt58uQNnvf222/bR9+K8FMViCtMeAB68VQBvIP1qAVlBBSWA8zF7I0RBTQCtymCyLG84173KX/kvQAAAAAAAAAA4BuJHLw77iXlBwAAAAAAAADAEyIH7457SfkBAAAAAAAAAPCE/2Pv3qOrKu6GjycGkNwlhBCCNSBCAQMlWBqpRdIoQp9V5ZLSQBRpRB99EFqRIosqoktdtSXy+iKSFsF6wQVyeeTB1stCsA9aLkq5RGEtCoiBQgIp5kICQZKcd5ox8273mb0TztnAmZzv5w/X3jOzZ8/+zcym/XE4xz3xrq0lyw8AAAAAAAAAQEhwT7xra8nyG4+fqkBYYcED8BZvFSB0sB89QRgBhe0Ac7F6g0QAjcA0uXBPvGtryfIbr7Cw0F4UnJ07d8bGxtbV1dkrXH366adiPZw9e9ZegYtjypQpzz//vL30MglszbSe9WE9X/AAwhxvFSB0sB89QRgBhe0Ac7F6g0QAjcA0uXBPvGtryfIbL4AtITPysbGx8fHxV1111aBBg2bPnl1WVmZvdyHI8l9KxcXFaWlp586d81lmU/npT39qv8BrF2O66+rqsrOzu3btKh4hMTHx1ltv3bp1q6wqKSlJSkqqqqryBbTgAcAFbxUgdLAfPUEYAYXtAHOxeoNEAI3ANLlwT7xra8nyGy+ALWFN0dbX1+/evfvuu+9OSUk5dOiQvWmrXYy0r5ZMbTudOmllM1Pce++9jzzyiDy+ZJG3uhg3FUuxuLhY/oOAmpqauXPndurUqbGxUdbedttt8m0TwIIHABe8VYDQwX70BGEEFLYDzMXqDRIBNALT5MI98a6tJctvvAC2hDZFO27cuAkTJthqFyxY0L179+jo6LS0NHkjWbt06dL09PS4uLjJkyfLltarioqK+vbtK2oTExPHjh1bWloqChcvXjxw4EB1u4MHD0ZFRX355ZeqRKquri4oKEhKShLXis5ra2t9zZ2/9tprvXv37tChw7Zt26yn58+fP3HihLhRfHx8586dp02bZv2Qu7WZuousWr16df/+/WNiYm644Ybi4uJ169ZlZGSIh83MzPz8889dxuPTRcapUBsN4ejRozk5OeLu4qYLFy4U45EjdLqj0tjYmJKSsmHDBnmqnU3h+PHjotnrr78uT0VX2dnZ9fX14vj06dMPPPCAqI2NjRUR2LVrl8/hvtrprqysFM8Y0fwPCF588UXrGFzmYs2aNSIU4trBgweLgKuh+qupqXn88ce///3vq5L58+f/+Mc/9gW04AHABW8VIHSwHz1BGAGF7QBzsXqDRACNwDS5cE+8a2vJ8hsvgJ+q0OaF33rrreTkZGvt4cOHxcEHH3wgCquqqvbs2aNqx48fX1NTU1paOnDgwJkzZ9r6fPvttw8ePOhrSvjecsstt99+u+whNjb2k08+kbebM2fOyJEjv7m3RW5u7pgxY0Tj6upqce306dN9zZ3n5eWJ8jNnzthORQPRcuzYsWJIZWVlYkizZ8/2v8p6F1k1YcKEr776qq6ubvLkyenp6Xfeeac6vemmm2RL7Xi0kdEW+hyiIQwfPvznP/95bW2tKL/xxhsjmrP82jtaHTlyRDQ+duyYPNXOprRhw4aEhIR9+/b96U9/6tq1q/oLBhGrYcOGHT16VBwfOHBAdOhzuG9rptt26jIX+fn5FRUVIsKTJk0SjyyvtRHzFRcXJxqL5WH9G4733nsvMTHRF9CCBwAXvFWA0MF+9ARhBBS2A8zF6g0SATQC0+TCPfGurSXLH460eeEtW7ZcccUV1trjx49HRUUtWrSosrJSNZO1+/btk6crV65MTU21XqVaSps2bYqOjpbHU6ZMuf/++31N382Slpa2Zs2abzX1+crLyyMjI/fv3y9P33nnHetfPBw4cECW205LS0tdhqSaWcmqkpISefrRRx9FWPLm4rRdu3Y+5/FoI6MttFHRkGNWPa9evTqiKcvvdEerPXv2iManT5+Wp/JZEi0ee+wx1XjevHm9e/eOj4/fuHGjLDl58qRov3v3btXG5/ykrZxudeo+FyrgmzdvlhF2Ikby/e9//z//8z9ViVifooeGhgZLKwAAAAAAAKCtcU+8a2vJ8ocjbUbe/7P84njt2rXZ2dlxcXFDhw798MMPVW1NTY28auvWrZGRkf5XZWVlderUKSEhQX4uW35RzCeffCJKamtr169fn5KS8vXXX39z72a7d++OsCSsReOOHTs2NDQ45ZTl6a5du1ocko22Q/WVPurUaTw+XWRcCv2jYRuz/A4i9zsqrf8sv6/prxM6dOhw8803qxJ5C3Vra6H/fVsz3dbTVs6FLeBa77//vhi5enb1WX4AAAAAAACgDXNPvGtryfKHI21eODc3d+LEidraurq6efPmde7cWdWqD2u/+eabXbt2tV4lP9K+YsUK+TOqGzdutOZzMzMzX3nlldGjR6sfj7UqKyuLsOSvFW2OWJ3aPj8uhqT9vLmVtkP/LL/TeBRrZLSFTtEQ5RGWz/KvWbOmlXf0NX0vf5cuXVr8Xn6hoaFhxIgR48aN69at27Jly2Sh/Cy/+kIhyem+TtO9Y8cO/wCe9fssv9NctCbL/84778TExKjTwsLC7OxsSz0AAAAAAADQBrkn3rW1ZPnDkTXl2tDQUFxcXFBQkJKSIr8+XtV+8cUXGzZsOHfunGgzf/580UDV5uXl1dTUnDhxYtCgQTNmzLBedejQIXHw7rvvisKSkpLhw4db87lFRUUDBgxo3779P/7xDzUeqzvuuCM/P//UqVO+pvS9zGVrc8TWvHZOTk5ubq78jnsxpFmzZmmbKdoO/bP8PofxaCOjLXSJxs033zxx4sQzZ86Ul5cPHTrU/Y42U6ZMkd937/N7Fqsnn3yyX79+Yqb++te/xsfHf/bZZ7J83Lhx2dnZMqevvpdfe1+n6ZY/QrB3717ZoXUMrZkLbZZ/586dH3zwgfy13n379g0ePPjee+9VtSNHjnz++ef/f2sAAAAAAACgLXJPvGtryfIbr8WfqqioqFi+fHlZWZkqkTnW2NjY+Pj4xMTE733ve7NmzVINVEJ2//79WVlZok10dHRmZqb1G3uWLl2anp4uerjrrrvkT6Ra07jPPvtsly5d4uLihgwZUlRUZM3nVldXi3KXD2VXVVXdd999ycnJolmfPn0WLFjgc8gRW/PapaWlo0ePFkNNSkqaOnWq/OC8fzNF26E2y68djzYy2kKfczRKSkpEHGJiYjIyMsRuioyMbGxsdLqjzZ49e7p37y4T4mo2lcGDB/ua/t2AGMznn38uL3nqqaf69u0rv0tHzIK6Rf/+/eV39Gvv6zTdgoiz/HqfxYsXW+PZmrnQZvm3bdt2ww03iLuLG/Xs2fM3v/mNvNbX9CVFojf5gwctLngAuCC8VYDQwX70BGEEFLYDzMXqDRIBNALT5MI98a6tJctvvMLCQntRs+3bt0+dOrVfv35btmyx1wXKJXXeGo2NjT179nzjjTfsFeFtxYoV8pttWm/KlCmX4LPtQU63V+69917xwpHHLgseAALAWwUIHexHTxBGQGE7wFys3iARQCMwTS7cE+/aWrL8xvPfEhUVFUuWLPnhD3+YlpaWnp7uYYrfF3Tad9WqVampqeoz2uFs37598htvDh8+PGDAgGnTptlbhIAgp/ti8F/wABAM3ipA6GA/eoIwAgrbAeZi9QaJABqBaXLhnnjX1pLlN551S8gP7/fs2XPQoEFpaWnXXXedtyl+X3Bp35SUlNTU1PXr19srwpKYGjFTMTExnTp1KigokN+lE2qCme6LhD8DAHiLtwoQOtiPniCMgMJ2gLlYvUEigEZgmly4J961tWT5jSe2hPrw/vXXX9+nT5/U1NSLlOIHLjv+DADgLd4qQOhgP3qCMAIK2wHmYvUGiQAagWly4Z5419aS5TfeokWLrr322tTU1G7duqUCAAAAAIAm9v//DBiCXyUNEgE0AtPkwj3xrq0ly98W7N+//84777z66qvV/5SZNGlSRkYGn+UHAAAAAAAAAIO4J961tWT5246GhobFixcPHjxYJvpHjhxJoh8AAAAAAAAADOKeeNfWkuVvg9RH+7t163bttdeS6AcAAAAAAAAAI7gn3rW1ZPnbLPnR/nHjxvXr149EPwAAAAAAAACEPvfEu7aWLL/xWvypioqKiuXLl5eVldkrAAO1uOAB4ILwVgFCB/vRE4QRUNgOMBerN0gE0AhMkwv3xLu2liy/8QoLC+1FQNvFggfgLd4qQOhgP3qCMAIK2wHmYvUGiQAagWly4Z5419aS5TceWwJhhQUPwFu8VYDQwX70BGEEFLYDzMXqDRIBNALT5MI98a6tJctvPLYEwgoLHoC3eKsAoYP96AnCCChsB5iL1RskAmgEpsmFe+JdWxtsll944oknxKn4L8eX5fi2227TlnPMMcccc8wxxy0ei/9lqS3nmGOOL/0x+9GTY/H/DrTlHHPMMcccG3TMn4lBHpMrM+KYde5yPGrUqIiW0vIeZ/mdanHJ8FMVCCsseADe4iG+eXgAAIAASURBVK0ChA72oycII6CwHWAuVm+QCKARmCYX7ol3bS1ZfgAAAAAAAAAAQoJ74l1b63GWP6LZo48+qk6nT59urbW2DytOj+9UHjxrz053UeXz5s2Tx9pmAAAAAAAAAICLTZt4V7S1bvlc7QWKtlbmiFesWFFcXKxOo6Ojy8rK1Km1fRt27tw5W4nT469oYi/1gvWOTndRbT777DPRwGmQAAAAAAAAAICLTZt4V7S1bvlc7QWKttaWI5anCQkJv/71r221tbW1v/rVr7p169auXbtevXotXrxYFD7zzDOiwSuvvCKO+/bt26FDhzNnzmzdulUUTpw4UXUryd7mzJkTGxs7YMCAAwcOyPLVq1enp6e3b9++Y8eOQ4cO3blzpyz/wx/+cM0110RFRYnxiHKnwhbHcPbsWfE43bt3FyNPS0ubMWOGaCB7k0N67LHHEhMT582bJ0rEqAYOHChG+Pjjj1sf38pa7j8eq0mTJomW77//vjg+evToFVdcITr3OT+ytWfrscuobKcAAAAAAAAAgEtGm3hXtLVu+VztBYq2Vpsy/s1vfhMbG/uvf/3LWltQUCCOx4wZI/rJzc0Vx2vXrt22bZs4uOeee8rKymTjTZs2/fa3vxUHy5YtU91KssF9TSKafnpYlotLxKiKiormzp175ZVXZmZmynIxhj59+rzyyisvvPBCfn6+U2GLY7j33nvF8ciRI5cuXSr+KxvL3mT74cOHv/zyy5s3bxYl8geRxQinTJkia2VLK2u5/3isRJ+i5aRJk8Tx7373O3G8aNGiv/3tb06PbO3ZeuwyKtspEGr4bRYA3uKtAoQO9qMnCCOgsB1gLlZvkAigEZgmF9rEu6Ktdcvnai9QtLXalHF5eXlsbOyjjz5qrY2Pj5enypQpU+rr6xMTE3v16rVq1ark5OShQ4fOmzdPpqS//PJL1a0kr6qurq6qqhIHMTExsnzFihVpaWmq26ioKFk+ZMgQcdMJEyY88cQTW7dudSpscQwJCQni+OTJk+JY/Dei6R8ryN7kHY8cOSJPBTEq6yAjdAl0a7n/eGz69u0rgllTUzNgwIDo6OiKiorCwkKnR7b2bD12GZXtFAg1YsHbiwAgCLxVgNDBfvQEYQQUtgPMxeoNEgE0AtPkQpt4V7S1bvlc7QWKttYpZTxz5kyZHFe18nTRokUbmsmv8h89erQoF/8dM2bMnDlzhg0bFh8f36tXL9WnInurahJhyfInJSWpnq+66ip1x8rKypdfflmM5LrrrhOF69atcyp0H4MceXl5uc8hyy+PJZlPFyMUN/Kvlazl2vFYzZ8/X5TPmjVL/Pfuu+/2NW0Jp0e29mw9dhmV7RQINfwZAMBbvFWA0MF+9ARhBBS2A8zF6g0SATQC0+RCm3hXtLVu+VztBYq21illXFpa2rFjR2ut/JqdQYMGLVmy5KWXXpoyZcoDDzwgyhcuXCjKIyMjFyxY8N5778lL7r//ftWnIqvUN/b85Cc/keXJycni9He/+90vf/lL6x0nTpy4ePHi119/ffjw4aJQ9O9U6D4G+Y09o0aNWrZsmbhpRNO/QpBV1ttJLt+No1jLteOxOnnyZIcOHcTYRO3HH3/sa9oSTo/sdOwyKtspEGr4MwCAt3irAKGD/egJwggobAeYi9UbJAJoBKbJhTbxrmhr3fK52gsUba1Lynj69OnW07q6ujlz5vTo0aNdu3bx8fFZWVnLly8X5Xv37pXNduzYcfr0aVErjletWqX6VGSzxx57zPbruytXrkxJSYmLi5s1a1Z6erq644gRI5KTk6+44oqrrroqLy+vsrLSqdB9DGfPnp05c2ZaWlpUVFS3bt0eeugh26/vymNJjEqMLSYmRn763lYrWcu147EZP368aN+vXz95KraE0yNbe7Yeu4zKdgqEGv4MAOAt3ipA6GA/eoIwAgrbAeZi9QaJABqBaXKhTbwr2lq3fK72AkVbK3PE5eXltbW11vKLgXy05NVPVYgpExNHVBHivFrwACDxVgFCB/vRE4QRUNgOMBerN0gE0AhMkwtt4l3R1rrlc7UXKNpamSMWHn30UWv5xUA+2lvz5s1T02evAwAAAAAAAABcfNrEu6Ktdcvnai9QtLXqp3QPHjxoLUfoO3TokJo+ex0AAAAAAAAA4OLTJt4Vba3HWX4AAAAAAAAAABAY98S7tpYsPwAAAAAAAAAAIcE98a6tJctvPH6qAmGFBQ/AW7xVgNDBfvQEYQQUtgPMxeoNEgE0AtPkwj3xrq0ly2+8wsJCexHQdrHgAXiLtwoQOtiPniCMgMJ2gLlYvUEigEZgmly4J961tWT5jceWQFhhwQPwFm8VIHSwHz1BGAGF7QBzsXqDRACNwDS5cE+8a2vJ8huPLYGwwoIH4C3eKkDoYD96gjACCtsB5mL1BokAGoFpcuGeeNfWkuU3HlsCYYUFD8BbvFWA0MF+9ARhBBS2A8zF6g0SATQC0+TCPfGurSXLbzx+qgJhhQUPwFu8VYDQwX70BGEElIu3HT799NOIiIjz58/bK3BZ7dy5MzY2tq6uzlYu5+vs2bO28lB28VZva7SBFX55A4hWYppcuCfetbVk+QEAAAAAQLjwz/leaE6zxfb+t7gsQmQYF8STMds68aTPsNLiCgdwsbkn3rW1ZPkBAAAAAEC48M/5XmhOs8X2/re49M6dOxcKw7hQnoyZLP8FEUvFVtLiCgdwsbkn3rW1ZPkBAAAAAEC48M/5qpymPFi6dGl6enpcXNzkyZNVs2PHjt16660xMTEZGRkLFy5UOdCioqK+ffuKxomJiWPHji0tLa2srIyOjhYNYpu8+OKLoll1dXVBQUFSUpJoJrqtra1Vd5e0iWl5iwULFnTv3l30mZaWpr7GWtuhvOq1117r3bt3hw4dtm3bpvrUdmLl/yCy/PTp0w888EBKSop4lv79++/atcup8MSJE+LC+Pj4zp07T5s2TeaOnZ5LHqxZs0bcVIxq8ODBxcXF2tApa9euFc8lj+fOnSuaHTp0SBxv3749ISFB9VlWVmbrRHsva8++5oFp22hD3eJgmjv+N5d15RR27Xz5F7ZmGC7zopaKaOm0wgFcFu6Jd20tWX4AAAAAABAuWszyjx8/vqamprS0dODAgTNnzpRtcnJyxo4dK8rLysqGDBmicqBvv/32wYMHfU251FtuueX222/X3iI3N3fMmDFVVVXV1dWi2fTp01WV5JQNP3z4sDj44IMPRKG4fM+ePbKBtkN5VV5enig/c+ZMc98+p06stA8iiKceNmzY0aNHxfGBAweOHDniVCiuUiESoZs9e7bP+bnkQX5+fkVFRV1d3aRJk2688Ub/9laiZVRUVElJiTgWjXv37v3HP/5RHD/99NO2sGtv6n8vK5c22lC3OBgrl3WlDbt2vrSFrRmGy7xYl4rTCgdwWbgn3rW1ZPmNx09VIKyw4AF4i7cKEDrYj54gjIDitB3888i21PO+fftk+cqVK1NTU8VBaWmptXzVqlXaHOimTZuio6N9frcoLy+PjIzcv3+/PH3nnXeSk5PVVZI2MS1ucfz48aioqEWLFlVWVqrGTh3Kqw4cOKBaStpOXKgHOXnypOhw9+7d1lptoS1EKnROzyUPZHpa2Lx5c7t27fzb2wwZMmTZsmVVVVWJiYni4Gc/+5kozM7Olrkpda32pv73snJq4xRqX0uDsXJaVzYq7GK+rrjiCtt8OU2i+zDc50UtlVaucIM4bX+EFKbJhXviXVtLlt942n9qB7RVLHgA3uKtAoQO9qMnCCOgOG2Hv//97xEREdbvzNm+fbsoaWhokKnPmpoaWb5169bIyEhxsGvXLlu5yoGuXbs2KyurU6dOCQkJcXFxory+vt6WZd69e7c4TWwmWnbs2FHcTtZK2sS0ukV2drbofOjQoR9++KHPuUOXFLl/JzbaB5E3Ug8uaQv9QyRD5/RcrSy3mTNnzsSJE9etWzdq1KjS0tKkpKTTp09feeWVe/fu9bWU5fe/l+rWpY1TqH0tDcbKaV35HMIuyidPnuw/X9pJdB9GK+fFv5l/iMzitP0RUpgmF+6Jd20tWX7jsSUQVljwALzFWwUIHexHTxBGQHHaDsePH4+wfGzZ5/cBZ1X15ptvdu3a1ef8SWf58eoVK1bU1dWJ8o0bN8ryHTt2WFOoZWVl4vTYsWPyVKu4uFi0KS8vl6d//vOfbWlWcYt58+Z17tzZ59yhe4rc9+1OrJweRH5s3/YNP9pCW4hE6GRInZ7LKatuC52NGJiYkQcffPC5554TpxkZGU899VRaWpqsVX3aOnG6lzx1b+MUal9Lg7FyWldOYfc1r17tfNkK3YfhNC+253Va4fLURE7bHyGFaXLhnnjX1pLlNx5bAmGFBQ/AW7xVgNDBfvQEYQQUl+1wyy23jB49+uTJk+L44MGDAwcOfOSRR3zNqc+8vLyampoTJ04MGjRoxowZ8pLs7Ozc3Nza2lpRnpWVJXOghw4dEgfvvvuuaFBSUjJ8+HBZLr9C3fqZ7jvuuCM/P//UqVO+pozqhg0bVJV09uzZxMTEJ598sr6+/siRI0OHDpVdffHFF6LxuXPnGhoa5s+fn5KSIttrO3TK8jt1ojg9iDgdN26ceHaZ5lZfwa8tzMnJUSESoZs1a5bP+bmcsur+obOqq6uLjo5OSEiQf8fw0EMPieNJkybJWtWnrROne8nTFttoQ+1raTBWTuvKKexivu6//37bfDlNYovD0M6L/1LRrnBVaxyX7Y/QwTS5cE+8a2vJ8huPLYGwwoIH4C3eKkDoYD96gjACist2+Ne//vWLX/yiS5cusbGx11xzzW9+85uvv/7a15z6XLp0aXp6uqi666671Bf7HD16NCcnJyYmJiMjY+HChSoH+uyzz4p+4uLihgwZUlRUpMqnTp0qv+Nl8eLFvqafS73vvvuSk5NFyz59+ixYsOD/j6bZ+vXre/bsKW6RlZX10ksvya72798vTuPj46OjozMzM9X3tGg79E/dSk6dWDk9SHV1tbpR//795dfxawtLS0tHjx4t7pKUlCQeX34+3efwXC5ZdVvobEaMGJGSktLY2CiO//KXv4irXn31VVll7dPaicu9FJc22lBLLoOxcllX2rCL+RLL0jZfLpPoPgztvPgvFacVbiiX7Y+LraysbPny5RUVFfYKP0yTC/fEu7aWLL/x+KkKhBUWPABv8VYBQgf70ROEEVAC2A7+qU8geAGsqwBWL6wI4OW1ZcuWfv36Pfjgg9u3b7fXWTBNLtwT79pasvwAAAAAAACBZGOBFrGuEIY2btz4ne98Jy0tbdiwYUuWLGnNR/th5Z5419aS5QcAAAAAACAbi4uCdYXwJBP9PXr0+NGPftSrV68WP9oPK/fEu7aWLD8AAAAAAAAAwEsy0Z/a5Ac/+MGgQYP4aH8ruSfetbVk+QEAAAAAQBskU0sAgBDRo0cP8d/rrrtu06ZN9lc2LNwT79pasvzG46cqEFZY8AC8xVsFCB3sR08QRkBhO8BcrN4gEcAQsWXLlr59+1577bUyxd+tW7c+ffrMnTtXfpafaXLhnnjX1pLlN15hYaG9CGi7WPAAvMVbBQgd7EdPEEZAYTvAXKzeIBHAUCBT/Onp6ampqWlpaSNHjrR9fp9pcuGeeNfWkuU3HlsCYYUFD8BbvFWA0MF+9ARhBBS2A8zF6g0SAbzstmzZ0qNHD9uH922YJhfuiXdtLVl+47ElEFZY8AC8xVsFCB3sR08QRkBhO8BcrN4gEcDLS36K/6c//an7l+8zTS7cE+/aWrL8xmNLIKyw4AF4i7cKEDrYj54gjIDCdoC5WL1BIoCXUVlZ2fLly7Uf3rdhmly4J961tWT5jcdPVSCssOABeIu3ChA62I+eIIyAwnaAuVi9QSKARmCaXLgn3rW1ZPkBAAAAAAAAAAgJ7ol3bS1ZfgAAAAAAAAAAQoJ74l1bS5YfAAAAAAAAAICQ4J5419aS5QcAAAAAAAAAICS4J961tWT5jcdPVSCssOABeIu3ChA62I+eIIyAwnaAuVi9QSKARmCaXLgn3rW1ZPmNV1hYaC8C2i4WPABv8VYBQgf70ROEEVDYDjAXqzdIBNAITJML98S7tpYsv/HYEggrLHgA3uKtAoQO9qMnCCOgsB1gLlZvkAigEZgmF+6Jd20tWX7jsSUQVljwALzFWwUIHexHTxBGQGE7wFys3iARQCMwTS7cE+/aWrL8xvN8S+zcuTM2Nraurs5e4erTTz8V6+Hs2bP2CrQhcpbPnz9vr7hwqqsLXW+eL/hL75lnnklKShJPvWTJkgt69sBcaISBcNMG3ipAm8F+9ARhBBS2A8zF6g0SATQC0+TCPfGurSXLb7wAfqpCJlhjY2Pj4+OvuuqqQYMGzZ49u6yszN7uQpDlDwcXI8tvr2iJdsFf6PK70PYeEhstMjJy+/bt9grvXManA0ykfasAuCzYj54gjIDCdoC5WL1BIoBGYJpcuCfetbVk+cORNQlYX1+/e/fuu+++OyUl5dChQ/amrUZiMRy0mJo/d+6cvciBe1et70e60OV3oe099Pe//9391hf67P4u49MBAAAAAAAgSO6Jd20tWf5wpE0Cjhs3bsKECbbaBQsWdO/ePTo6Oi0tTf47Glm7dOnS9PT0uLi4yZMny5bWq4qKivr27StqExMTx44dW1paKgoXL148cOBAdbuDBw9GRUV9+eWXqkRyuqMarTU7fPr06QceeCAlJSU2NrZ///67du1yKqyuri4oKEhKShJDEmOura11up1ToSIHsHr1atF5TEzMDTfcUFxcvG7duoyMDHFJZmbm559/LlsGf1NtJIWjR4/m5OSIu4ubLly4UAXE6Y5W2j7lQ61Zs0ZUiTEMHjxYPJRsf+zYsVtvvdX/Xoq89rXXXuvdu3eHDh1ErdMwtF2p+W19P7Yp/uijj8SYI5r+eYrw4osv+hziKVVWVvq3P3HihIhGfHx8586dp02bpk21a5eW9kKneL711lvq1l27dnV69m3btrVyjfnPpv/TWXfQBY3Wymnj+3RjkOXBrFIAAAAAAICw5Z5419aS5Q9Htry59NZbbyUnJ1trDx8+LA4++OADUVhVVbVnzx5VO378+JqamtLS0oEDB86cOdPW59tvv33w4EFfU0rxlltuuf3222UPsbGxn3zyibzdnDlzRo4c+c29m7ncUZvlHzt27LBhw44ePSqODxw4cOTIEafC3NzcMWPGiD6rq6vFkKZPn+50O22hlRzAhAkTvvrqq7q6usmTJ6enp995553q9KabbpItg7+pNpLC8OHDf/7zn9fW1oryG2+8UQVEe0cbbZ/yofLz8ysqKsRTTJo0SXQr2+fk5IiQiukuKysbMmSIupcir83LyxP3PXPmjM95GNqubJnu1vTjP8W2ReIUT8V/C4j+1djEqp49e7al+Tf87+tzuNAlntZbOz1769eYy2zatow8vdDRKrKN/8b3OYzBF9wqBQAAAAAACFvuiXdtLVn+cOSf4hS2bNlyxRVXWGuPHz8eFRW1aNGiyspK1UzW7tu3T56uXLkyNTXVepVqKW3atCk6OloeT5ky5f777/c1fU1QWlramjVrvtXU53O5o3+W/+TJk+Jg9+7dqqWgLSwvL4+MjNy/f788feedd+TfZ2hvpy20kgMoKSmRpx999JE4PXbsmDpt166dz+ub+iyRLC0tFXdUPa9evVoGxOmOLlSftofavHmzfAp5LzXdq1atkvdq7uDf5LUHDhyQp07DcOrKlulusR/tFNsWSYvxtLW3jU2taivtfZ0udIqnqtJm+dWzt3KN2dhm0z/LH8BoFdnG/1qbi7FKAQAAAAAAwop74l1bS5bfeAH8VIUtCSj5f5ZfHK9duzY7OzsuLm7o0KEffvihqq2pqZFXbd26NTIy0v+qrKysTp06JSQkiGtFeX19vSj/5JNPREltbe369etTUlK+/vrrb+5t4XRH/yz/7t27rSORXAoTm4kxdOzYsaGhwae7nVOh4jQe26knN9VGcteuXdZnlN/u4n5HK22fTg9lu5eYbuvDWhura52G4dSVuryV/bz66qvWfiT/Ja2Np2Jr7z82uaqttEvL6UKneNqqnJ5de+q/xnwXMpviNIDRKrLQ/1qfwxiCXKXApRTAH6MALhL2oycII6CwHWAuVm+QCKARmCYX7ol3bS1ZfuP5f3F8i/xTor6mr9GYOHGitraurm7evHmdO3dWteojvW+++WbXrl2tV8mPUa9YsUJcJco3btxozRhmZma+8soro0ePfuSRR77pXcd6x+LiYtFDeXm5rPrzn/8sO5SfrbZ9GYu2sKysLMLyUWh/1tu5F/r84uOUgQ3+pk6RFOURlk9Jr1mzppV39Dn36fRQTh/AVx2qxupap2E4daUub2U/TzzxRITfFO/YscN6raINss+vvW1sYlX7f1Bdu7ScLnSKp63K6dm1p/5rzGk2bU+negtgtIos9N/4TmMIZpUCl1gAf4wCuEjYj54gjIDCdoC5WL1BIoBGYJpcuCfetbVk+Y0XwJawJvUaGhqKi4sLCgpSUlLkl2ur2i+++GLDhg3nzp0TbebPny8aqNq8vLyampoTJ04MGjRoxowZ1qsOHTokDt59911RWFJSMnz4cGvGsKioaMCAAe3bt//HP/6hxqNo7yj6TExMfPLJJ+vr648cOTJ06FDV4bhx47Kzs2XGUH1PurbwjjvuyM/PP3XqlK8pMyvu4nQ7baGVe0rUehrkTV0iefPNN0+cOPHMmTPl5eXWgGjvaOXUp8tDiWDm5ubKb1fPysqyPqy1sTXD7jQMbVfq8lb2Ixa8/xTLL+Lfu3evvFAbTytbe1/TbwaosYlVPWvWLEvzb/jf1+dwoUs8rVVOz6499V9jTrNpezprbxc6WkUW+m98pzH4glilwCUWwB+jAC4S9qMnCCOgsB1gLlZvkAigEZgmF+6Jd20tWX7jtbglKioqli9fXlZWpkpkwi42NjY+Pj4xMfF73/verFmzVAOV8tu/f39WVpZoEx0dnZmZaf3+nKVLl6anp4se7rrrrtraWutV4vjZZ5/t0qVLXFzckCFDioqKrBnD6upqUZ6dnS1PbbR3FNavX9+zZ8+YmBhR+9JLL6kORW/33XdfcnKy6LN///7yO9O1hVVVVaqwT58+CxYscLqdttDKPSVqPQ3+pk6RLCkpETEUAcnIyBA7MTIysrGx0emONto+XR7q6NGjOTk58l4LFy60Pqy1sTU77zQMbVfq8lb2Ixa8doqnTp0qvwRm8eLFTvG0srb3NaWbR48eLS5JSkoSVfKT6Tba+2ovdImntcrp2bWn2jWmnU3ft5/O2tuFjlaRhf4b3+c8hmBWKXAptfjHKIBLhv3oCcIIKGwHmIvVGyQCaASmyYV74l1bS5bfeC5bYvv27Q8++GC/fv22bNlirwuUfyr2gjQ2Nvbs2fONN96wVyBQK1as8P96mTbMZcHj4gly44fbKoVZeKsAoYP96AnCCChsB5iL1RskAmgEpsmFe+JdW0uW33j+P1VRUVGxZMmSm266KS0tLT093cMUvy/oZN+qVatSU1O1H5RG6+3bt09+H8vhw4cHDBgwbdo0e4u2y3/B4xIIYOOH8yqFWXirAKGD/egJwggobAeYi9UbJAJoBKbJhXviXVtLlr9NkR/e79Wr1w9+8IOrr75aHHib4vcFlOxTUlJSUlNT169fb6/ABRLTKr/CqFOnTgUFBTU1NfYWgKcC2PisUgAAAAAAgAC4J961tWT52wL14f0BAwYMHDgwtcnFSPEDAAAAAAAAAC4e98S7tpYsv/E2bdrUq1ev1NTU7t27y/w+AAAAAACw//9nAABM4J5419aS5W8L/v73v48dO9aa5f+v//qvjIwMPssPAAAAAAAAAAZxT7xra8nyG0/9VEVdXd3vf//7jIwMmegfPXo0iX60Pfw2CwBv8VYBQgf70ROEEVDYDjAXqzdIBNAITJML98S7tpYsv/EKCwttJeqj/Wlpaddeey2JfrQl/gseAILBWwUIHexHTxBGQGE7wFys3iARQCMwTS7cE+/aWrL8xnPaEvKj/ePGjevXrx+JfrQZTgseAALDWwUIHexHTxBGQGE7wFys3iARQCMwTS7cE+/aWrL8xmtxS1RUVCxfvrysrMxeARioxQUPABeEtwoQOtiPniCMgMJ2gLlYvUEigEZgmly4J961tWT5jceWQFhhwQPwFm8VIHSwHz1BGAGF7QBzsXqDRACNwDS5cE+8a2uDzfKPGTPm/+Cyeuihh+xFQNvFggfgLd4qQOhgP3qCMAIK2wHmYvUGiQAagWlyMWbMmBbT8h5n+QEAAAAAAAAAgIfc0/KeZfmPHDnyfwEAAAAAAAAAgKeOHDliz8g30SbtA8/yAwAAAAAAAACAS0abtCfLDwAAAAAAAACAAbRJe7L8xvvb3/5mLwLaLhY8AG/xVgFCB/vRE4QRUNgOMBerN0gE0AhMU8C0SXuy/MYrLCy0FwFtFwsegLd4qwChg/3oCcIIKGwHmIvVGyQCaASmKWDapD1ZfuOxJRBWWPAAvMVbBQgd7EdPEEZAYTvAXKzeIBFAIzBNAdMm7cnyG48tgbDCggfgLd4qQOhgP3qCMAIK2wHmYvUGiQAagWkKmDZp33KWX3jiiSfEqfgvxyF4fNttt2nLOea4TR6LPwO05RxzzDHHHHPMMccci2Px/w605RxzHIbH/H8HjjkO22NyZRy37eNRo0ZFBJDl57P8IY6fqkBYYcED8BZvFSB0sB89QRgBhe0Ac7F6g0QAjcA0BUybtCfLDwAAAAAAAACAAbRJ+wvO8kc0e/TRR62nkZGRnTt3njhxYllZmbV9CJIDtpdeTPOa2EubWcfTmrG12KbFBp4L/o6qBxEoeRxkhwAAAAAAAADQxuiT9tYTG/0FTVasWFFcXGw9fe2118aNGyeOb731Vmv7y+7cuXO2ktZkkP2vCob7Ha21K5p8u97OvTdf6zrxltMdWx9G9VCfffaZ6KrFZwQAAAAAAACAcKNP2ltPbPQXfDv9aj2trq4Wxx06dJCnq1evTk9Pb9++fceOHYcOHbpz505Z/oc//OGaa66JiopKSEgQ5U6FzzzzjOjtlVdeEcd9+/YV3Z45c2br1q2icOLEiaLw7Nmzv/71r7t3796uXbu0tLQZM2aIBrI3OarHHnssMTFRfoj+wIEDAwcOjI2Nffzxx22PoPhfVVtb+6tf/apbt27iFr169Vq8eLFs6T9al8ayW0UWWlnL/Y/nzp0rxtOlS5f//u//trX5n//5HxGWAQMGlJaWyipbA5/DUK20w37jjTdED3l5eeL4l7/8pTieP3++r7nnOXPmiEiK+4qoyk6sd5THrQmjy6TYTgEAAAAAAAAA+qS99cRGf4EuG1teXn78+PHCwkJx3LdvX1m1adMmcW1RUdHcuXOvvPLKzMxMWR4bG9unT59XXnnlhRdeyM/Pdyrctm2b6O2ee+4pKyuTdxEd/va3vxUHy5YtEw3uvfdecTxy5MilS5eK/8rGsjfZfvjw4S+//PLmzZtFifzp4fvuu2/KlCmyVra08r+qoKBAlIwZM0aEIjc3VxyvXbvWpxutS2P1yXSnD7xbx+N/PG7cOBFAcdCjRw9r+VtvvdW+ffsbb7zxvffek+WKtRPtUK2chv2LX/xCHE+dOjUyMvI//uM/Ghsbfc0939ckoukHnWUn1jvK49aE0WVSbKeAwm+zAPAWbxUgdLAfPUEYAYXtAHOxeoNEAI3ANAVMn7S3ntjoL9BlY5Wrr776448/llUrVqxIS0tTVVFRUbJ8yJAh8fHxEyZMeOKJJ7Zu3epUWF9fn5iY2KtXr1WrViUnJw8dOnTevHkyL/zll1+KBgkJCeL45MmT4lj8VxyLEtmbvOORI0fkqRATEyNKqqurq6qqZK2qUvyvEkOShcqUKVN8utG6NFY9q25trLX+x+Xl5efPn49o+uUDa3n79u1vuOGG06dPFxYWynLF2ol2qFZOw66pqfnud78rTsUkijHIxrKBCqOIqrXcetyaMLpMiu0UUPwXPAAEg7cKEDrYj54gjIDCdoC5WL1BIoBGYJoCpk/aW09s9BfosrEbNmzYuHHjnj176uvrVVVSUpKoWrRokai96qqr1FWVlZUvv/zyzJkzr7vuOlG4bt06p8LRo0eLY/HfMWPGzJkzZ9iwYfHx8b169ZL9yCy/TEBrs/zyWJIJ5aqqKnEj/1rJv1zeQj6CJH+NQDtap8banq2sta0//s53vnPllVe+//77/lvC2lg7VCunYYuQyr+kEQ0OHTokG8ueq5pEuGb55bHkdAuXSfHvBJD8FzwABIO3ChA62I+eIIyAwnaAuVi9QSKARmCaAqZP2ltPbPQXtDobm5ycLKp+97vfyS92V80mTpy4ePHi119/ffjw4aJwwYIFToULFy6MaPoMuzh97733ZCf333+/7Ed+Y8+oUaOWLVv2k5/8JML1s/MuXw6j+JfL76UZNGjQkiVLXnrpJXHtAw884HMYrVNjX3Oa+4UXXnj33Xet/UvW+7b+eP/+/SkpKdHR0eouirWxdqhW2mE3NjaKiInIi+lr377997///a+//trX3LP6xh4RdtmJ9Y7WY0l7C5/rpPh3Akj8GQDAW7xVgNDBfvQEYQQUtgPMxeoNEgE0AtMUMH3S3npio7+g1dnYlStXpqSkxMXFzZo1Kz09XTUbMWJEcnLyFVdccdVVV+Xl5VVWVjoV7t27V/a/Y8eO06dPt2vXThyvWrVK9nP27NmZM2empaVFRUV169btoYcesv36rjyWDhw4MGDAgJiYGDEY/1rJv7yurm7OnDk9evQQt46Pj8/Kylq+fLnPYbROjYXf//73iYmJovPrr7/e2r9kve8FHe/atUt02759e/n194q1sXaoVtphiwGLHmbMmCEaPPvss+L44Ycf9jX3/Nhjj7X467vN3f+b9hY+10nx7wSQ+DMAgLd4qwChg/3oCcIIKGwHmIvVGyQCaASmKWD6pL31xEZ/QZPy8vLa2lprOS6XS/lTFZcg+S7WlVhdl+BGMNSlXPAAwgFvFSB0sB89QRgBhe0Ac7F6g0QAjcA0BUyftLee2OgvaPboo49ayxEOLkHyfd68eWqN2esAAAAAAAAAIIzpk/bWExvtBeoHVA8ePGgtBzxx6NAhtcbsdQAAAAAAAAAQxrRJ+wvO8gMAAAAAAAAAgEtPm7Qnyw8AAAAAAAAAgAG0SXuy/MbjpyoQVljwALzFWwUIHexHTxBGQGE7wFys3iARQCMwTQHTJu3J8huvsLDQXgS0XSx4AN7irQKEDvajJwgjoLAdYC5Wb5AIoBGYpoBpk/Zk+Y3HlkBYYcED8BZvFSB0sB89QRgBhe0Ac7F6g0QAjcA0BUybtCfLbzy2BMIKCx6At3irAKGD/egJwggobAeYi9UbJAJoBKYpYNqkPVl+47ElEFZY8AC8xVsFCB3sR08QRkBhO8BcrN4gEUAjME0B0ybtyfIbz/Ofqti5c2dsbGxdXZ29wtWnn34qVsvZs2ftFbg4pkyZ8vzzz9tLL5PA1kzrWR/W8wUPIMzxVgFCB/vRE4QRUNgOMBerN0gE0AhMU8C0SXuy/OFIZuRjY2Pj4+OvuuqqQYMGzZ49u6yszN7uQpDlv5SKi4vT0tLOnTvns8ym8tOf/tR+gdcu0nQ//PDD3/3ud2NiYpKSkvLz80+cOCHLS0pKRElVVdW3mwMAAAAAAADhRZu0J8sfjqwp2vr6+t27d999990pKSmHDh2yN221i5T29SdT206nTlrZzBT33nvvI488Io8vWeStLtJNH3/88T179jQ2Nv7rX/8aO3Zsdna2qrrtttt4FwEAAAAAACDMaZP2ZPnDkTZFO27cuAkTJthqFyxY0L179+jo6LS0NPltWbJ26dKl6enpcXFxkydPli2tVxUVFfXt21fUJiYmjh07trS0VBQuXrx44MCB6nYHDx6Mior68ssvVYlUXV1dUFCQlJQkrhWd19bW+po7f+2113r37t2hQ4dt27ZZT8+fP3/ixAlxo/j4+M6dO0+bNs36IXdrM3UXWbV69er+/fvHxMTccMMNxcXF69aty8jIEA+bmZn5+eefu4zHp4uMU6E2GsLRo0dzcnLE3cVNFy5cKMYjR+h0R6WxsTElJWXDhg3yVDubwvHjx0Wz119/XZ6KrrKzs+vr68Xx6dOnH3jgAVEbGxsrIrBr1y6fw321011ZWSmeMaL5HxC8+OKL1jG4zMWaNWtEKMS1gwcPFgFXQ9XavHmzWCHqdP78+T/+8Y8t9QAAAAAAAEDY0SbtyfKHI21e+K233kpOTrbWHj58WBx88MEHorCqqmrPnj2qdvz48TU1NaWlpQMHDpw5c6atz7fffvvgwYO+poTvLbfccvvtt8seYmNjP/nkE3m7OXPmjBw58pt7W+Tm5o4ZM0Y0rq6uFtdOnz7d19x5Xl6eKD9z5oztVDQQLceOHSuGVFZWJoY0e/Zs/6usd5FVEyZM+Oqrr+rq6iZPnpyenn7nnXeq05tuukm21I5HGxltoc8hGsLw4cN//vOf19bWivIbb7wxojnLr72j1ZEjR0TjY8eOyVPtbEobNmxISEjYt2/fn/70p65du6q/YBCxGjZs2NGjR8XxgQMHRIc+h/u2Zrptpy5zkZ+fX1FRISI8adIk8cjyWiePPfbYDTfcoE7fe++9xMRESz0AAAAAAAAQdrRJe7L8xgvgpyq0eeEtW7ZcccUV1trjx49HRUUtWrSosrJSNZO1+/btk6crV65MTU21XqVaSps2bYqOjpbHU6ZMuf/++31NXxOUlpa2Zs2abzX1+crLyyMjI/fv3y9P33nnHetfPBw4cECW205LS0tdhqSaWcmqkpISefrRRx9FWPLm4rRdu3Y+5/FoI6MttFHRkGNWPa9evTqiKcvvdEerPXv2iManT5+Wp/JZEi0ee+wx1XjevHm9e/eOj4/fuHGjLDl58qRov3v3btXG5/ykrZxudeo+FyrgmzdvlhF28vbbb8fFxam/E/I1rU/RQ0NDQwALHgBc8FYBQgf70ROEEVDYDjAXqzdIBNAITFPAtEl7svzGU98M03rajLz/Z/nF8dq1a7Ozs+Pi4oYOHfrhhx+q2pqaGnnV1q1bIyMj/a/Kysrq1KlTQkKCuFaUyy+K+eSTT0RJbW3t+vXrU1JSvv7662/u3Wz37t3WhLVo3LFjx4aGBqecsjzdtWtXi0Oy0XaovtJHnTqNx6eLjEuhfzRsY5bfQeR+R6X1n+X3Nf11QocOHW6++WZVIm+hbm0t9L9va6bbetrKubAF3EYsRREu9ZVEkvosfwALHgBc8FYBQgf70ROEEVDYDjAXqzdIBNAITFPAtEl7svzGC2BLaPPCubm5EydO1NbW1dXNmzevc+fOqlZ9WPvNN9/s2rWr9Sr5kfYVK1aIq0T5xo0brfnczMzMV155ZfTo0erHY63KysoiLPlrRZsjVqe2z4+LIWk/b26l7dA/y+80HsUaGW2hUzREeYTls/xr1qxp5R19Td/L36VLlxa/l19oaGgYMWLEuHHjunXrtmzZMlkoP8uvvlBIcrqv03Tv2LHDP4Bn/T7L7zQXLln+V199NSkp6aOPPrKVi3Uuf4w3gAUPAC54qwChg/3oCcIIKGwHmIvVGyQCaASmKWDapD1ZfuMFsCWsKdeGhobi4uKCgoKUlBT59fGq9osvvtiwYcO5c+dEm/nz54sGqjYvL6+mpubEiRODBg2aMWOG9apDhw6Jg3fffVcUlpSUDB8+3JrPLSoqGjBgQPv27f/xj3+o8Vjdcccd+fn5p06d8jWl72UuW5sjtua1c3JycnNz5XfciyHNmjVL20zRduif5fc5jEcbGW2hSzRuvvnmiRMnnjlzpry8fOjQoe53tJkyZYr8vnuf37NYPfnkk/369RMz9de//jU+Pv6zzz6T5ePGjcvOzpY5ffW9/Nr7Ok23/BGCvXv3yg6tY2jNXDhl+RcuXJiUlLR9+3ZbuTBy5Mjnn3/eF9CCBwAXvFWA0MF+9ARhBBS2A8zF6g0SATQC0xQwbdKeLL/xWtwSFRUVy5cvLysrUyUyxxobGxsfH5+YmPi9731v1qxZqoFKyO7fvz8rK0u0iY6OzszMtH5jz9KlS9PT00UPd911V21trfUqcfzss8926dIlLi5uyJAhRUVF1nxudXW1KJcfytaqqqq67777kpOTRbM+ffosWLDA55Ajtua1S0tLR48eLYaalJQ0depU+cF5/2aKtkNtll87Hm1ktIU+52iUlJSIOMTExGRkZIi9FhkZ2djY6HRHmz179nTv3v3cuXM+y2wqgwcP9jX9uwExmM8//1xe8tRTT/Xt21d+l46YBXWL/v37y+/o197XaboFEWf59T6LFy+2xrM1c+GU5ReF7dq1sz6L/K6nI0eOiN7kDx60uOAB4ILwVgFCB/vRE4QRUNgOMBerN0gE0AhMU8C0SXuy/MZz+amK7du3T506tV+/flu2bLHXBcoldd4ajY2NPXv2fOONN+wV4W3FihXym21ab8qUKfKz7RdVkNPtlXvvvVe8juSxy4IHgADwVgFCB/vRE4QRUNgOMBerN0gE0AhMU8C0SXuy/G1QRUXFkiVLfvjDH6alpaWnp3uY4vcFnfZdtWpVamqq/Hx3mNu3b5/8xpvDhw8PGDBg2rRp9hYhIMjpBgAAAAAAAOAhbdKeLH+bIj+8f+2112ZmZqalpV133XXepvh9waV9U1JSUlNT169fb68IS2JqevbsGRMT06lTp4KCAvldOqEmmOkGAAAAAAAA4C1t0p4sf1ugPrx//fXX9+nTJzU1tVu3bhcjxQ8AAAAAAAAAuFy0SXuy/MbbtGnTtddeKzP7qQAAAAAAoIn9/z8DAGA+bdKeLL/x/va3v+3fvz8/P//qq69W/1Pm7rvvzsjI4LP8aHv4bRYA3uKtAoQO9qMnCCOgsB1gLlZvkAigEZimgGmT9mT5jVdYWCgP6uvrFy1alJmZKRP9o0aNItGPtkcteADwBG8VIHSwHz1BGAGF7QBzsXqDRACNwDQFTJu0J8tvPP8toT7a361bt2uvvZZEP9oS/wUPAMHgrQKEDvajJwgjoLAdYC5Wb5AIoBGYpoBpk/Zk+Y3ntCXkR/vHjRvXr18/Ev1oM5wWPAAEhrcKEDrYj54gjIDCdoC5WL1BIoBGYJoCpk3ak+U3XotboqKiYvny5WVlZfYKwEAtLngAuCC8VYDQwX70BGEEFLYDzMXqDRIBNALTFDBt0p4sv/H4qQqEFRY8AG/xVgFCB/vRE4QRUNgOMBerN0gE0AhMU8C0SXuy/AAAAAAAAAAAGECbtCfLDwAAAAAAAACAAbRJe7L8AAAAAAAAAAAYQJu0J8sPAAAAAAAAAIABtEl7svzG46cqEFZY8AC8xVsFCB3sR08QRkBhO8BcrN4gEUAjME0B0ybtyfIbr7Cw0F4EtF0seADe4q0ChA72oycII6CwHWAuVm+QCKARmKaAaZP2ZPmNx5ZAWGHBA/AWbxUgdLAfPUEYAYXtAHOxeoNEAI3ANAVMm7Qny288tgTCCgsegLd4qwChg/3oCcIIKGwHmIvVGyQCaASmKWDapD1ZfuOxJdqSTz/9VGy68+fP2yvMt3PnztjY2Lq6OvmMZ8+etbdoHRY8AG/xVgFCB/vRE4QRUNgOMBerN0gE0AhMU8C0SXuy/MbT/lSFTKTGNklISBgxYsTnn39ub3QJBZnYDR+XLMt/GWckyFtrFzwABIy3ChA62I+eIIyAwnaAuVi9QSKARmCaAqZN2pPlb5usidTKysqCgoIBAwbYG11CQSZ226pz587ZSlrM8vtfEpjLOCOX8dYAAAAAAACA0bRJe7L8bZMtkfrxxx9HRUWp2urq6oKCgqSkpMTExMmTJ9fW1sryY8eO3XrrrTExMRkZGQsXLpTpZltX1jS0Uz8LFizo3r17dHR0WlpaYWFhZWWlOI5o/rcFL774omxm7XDNmjV9+/YVzQYPHlxcXCyrtP2vXbu2d+/essHcuXPFtYcOHRLH27dvT0hIsOXHZedLly5NT0+Pi4sTnagHKSoqEncUhaLzsWPHlpaWynLb4J0KWzOMEydOiJ7j4+M7d+48bdo0maCXQ3rttdfE5R06dBAttWGXPUv+l2gj49ON06cLo/uMaC/xNQ9j9erV/fv3F6O94YYbxEytW7dODFv0lpmZqf69iDa2aiGR5QcAAAAAAAACo03ak+Vvm6yJ1FOnTt19990//OEPVW1ubu6YMWOqqqqqq6tvueWW6dOny/KcnJyxY8fW1NSUlZUNGTJEpptdsvzafg4fPiwafPDBB+JYVO3Zs0ddpU3syqr8/PyKioq6urpJkybdeOONskrbv2gWFRVVUlIijkXL3r17//GPfxTHTz/99O23327p+N9k5+PHjxcPVVpaOnDgwJkzZ8qqt99+++DBg76mXLzoXF6rHby2sDXDEN2qeIpbz54929c8pLy8PNHVmTNnfA5hlz1I/pdoI6Mdp1NjlxnxuV4yYcKEr776SszU5MmT09PT77zzTnV60003ycu1sSXLDwAAAAAAAARJm7Qny982yURqYmJiXFycOEhPTz927JisKi8vj4yM3L9/vzx95513kpOTxUFpaalouW/fPlm+atUqmW52yvI79XP8+PGoqKhFixZVVlbKKnWVNrErq2S6XNi8eXO7du18zuMUhgwZsmzZsqqqKvGA4uBnP/uZKMzOzvZfq7Jz9VArV65MTU39dpN/27RpU3R0tM9h8NpCX0vDsMVT3VoO6cCBA7LcKezyVLJd4hQZ7TidGrvMiPslaqY++ugjcarWlTiVE2ejYkuWHwAAAAAAAAiSNmlPlt942p+qUInUxsbGbdu2de7c+fHHH5dVu3fvjmj6CwApISGhY8eODQ0Nu3btEuU1NTWy2datW2W62SnL79SPr+nbbLKzs+Pi4oYOHfrhhx9axyM7sQqg/zlz5kycOHHdunWjRo0qLS1NSko6ffr0lVdeuXfv3m913dyb9aEiIyPlsRhkVlZWp06dRM/y70Lq6+tluW3wToXuw/CPp7y17Xn9m8nHl6eS7RKXyPiP06mxy4y08hI1U/6n2th6leXXLngACBhvFSB0sB89QRgBhe0Ac7F6g0QAjcA0BUybtCfLbzz19etWtkTqSy+91LFjx+PHj4vjsrKyCMtHsBWnD5UXFxeLg/Lycln+5z//WZY79aPU1dXNmzevc+fO4njHjh1OiV2n3LFL/xs3buzateuDDz743HPPidOMjIynnnoqLS3N3q65N/VQb775prjQ1/yx9xUrVohB+po6lDdVF1oH71ToPgxbPMWtrZ/lV8/rFHZ5KtkucYmMZB2nU2OXGXG6xGmmbKdOsfUqy69d8AAQMN4qQOhgP3qCMAIK2wHmYvUGiQAagWkKmDZpT5bfeNotYUuknj9/vnfv3g8//LA8veOOO/Lz80+dOuVryjJv2LBBlmdnZ+fm5tbW1p44cSIrK0smZ0UniYmJTz75ZH19/ZEjR4YOHapyu9p+vvjiC3Fw7ty5hoaG+fPnp6Sk+Jq/Mt7/s/Y+v6Fac8fa/n1NWezo6OiEhAT51fMPPfSQOJ40adI3PVrI3vLy8mpqasRDDRo0aMaMGaL80KFDovzdd98VxyUlJcOHD5c31Q5eW+hrxTBycnJUPMWtZ82apYZkzXFrw65qfbpLtJFxGqe2scuM+BwucZkp66lTbMnyAwhNvFWA0MF+9ARhBBS2A8zF6g0SATQC0xQwbdKeLL/xtFvCP5H6xhtvxMbGyo/kV1VV3XfffcnJyXFxcX369FmwYIFsc/To0ZycnJiYmIyMjIULF6oc7vr163v27CnKs7KyXnrpJVWu7Wf//v2iWXx8fHR0dGZmpvp+m6lTp8pvgFm8eLEskVxyx9r+pREjRqSkpDQ2Norjv/zlL+KSV199VdUqsrelS5emp6eLx7/rrrtqa2tl1bPPPtulSxfR85AhQ4qKiuRNtYPXFkruwygtLR09erS4MCkpSTy+/Gy7/9Q4hV3xv0QbGadxahv7nGfE53CJy0zZTrWxJcsPIDTxVgFCB/vRE4QRUNgOMBerN0gE0AhMU8C0SXuy/Ma7SFvClsM1VJAJZYSgi7TgAYQt3ipA6GA/eoIwIhyUlZUtX768oqLCXvFtbAeYi9UbJAJoBKYpYNqkPVl+412kn6ogy4/QdJEWPICwxVsFCB3sR08QRoSJLVu2XHfddbfffvvHH39sr2vGdoC5WL1BIoBGYJoCpk3ak+WHHll+AAAAAEDI2rJly3e+853U1NS+ffs+/fTTLX60HwCAtkGbtCfLDwAAAAAAzLNly5aePXumNunevbv7R/sBAGgbtEl7svwAAAAAAMBI1kS/kJaWxkf7AQBtmzZpT5bfeOp/zQAAAAAAEM569OgxYsQIcdCnT59NmzbZ//8zAADm0ybtyfIbj5+qQFhhwQPwFm8VIHSwHz1BGBFuZs2aJfP7w4YNu+eee370ox/dfPPNS5YsqaioYDvAXKzeIBFAIzBNAdMm7cnyG6+wsNBeBLRdLHgA3uKtAoQO9qMnCCPCyqxZs7p163brrbdOmDChT58+Dz744Pbt21Ut2wHmYvUGiQAagWkKmDZpT5bfeGwJhBUWPABv8VYBQgf70ROEEeFj4cKF11xzTffu3dWH920N2A4wF6s3SATQCExTwLRJe7L8xmNLIKyw4AF4i7cKEDrYj54gjAgTW7Zs6devn+3D+zZsB5iL1RskAmgEpilg2qQ9WX7jsSUQVljwALzFWwUIHexHTxBGhIOysrLly5f7f3jfhu0Ac7F6g0QAjcA0BUybtCfLbzx+qgJhhQUPwFu8VYDQwX70BGEEFLYDzMXqDRIBNALTFDBt0p4sPwAAAAAAAAAABtAm7cnyAwAAAAAAAABgAG3Sniw/AAAAAAAAAAAG0CbtyfIDAAAAAAAAAGAAbdKeLL/x+KkKhBUWPABv8VYBQgf70ROEEVDYDjAXqzdIBNAITFPAtEl7svzGKywstBcBbRcLHoC3eKsAoYP96AnCCChsB5iL1RskAmgEpilg2qQ9WX7jsSUQVljwALzFWwUIHexHTxBGQGE7wFys3iARQCMwTQHTJu3J8huPLYGwwoIH4C3eKkDoYD96gjACCtshHHz66acRERHnz5+3V1xCcgxnz57duXNnbGxsXV2dvUUz1dJe4YfVGyQCaASmKWDapD1ZfuOxJRBWWPAAvMVbBQgd7EdPEEZAcd8Ou3fvHj9+fEpKSmxsbHJy8qhRo9avX29vdPG1Pu0LrUuW5XeZKZcqm9a3dF+9aBEBNALTFDBt0p4sv/H4qQqEFRY8AG/xVgFCB/vRE4QRUFy2w//+7//Gx8c/99xzp06dEqfV1dVr1qy5//777e08cu7cOXtRs9anfeHTRbLFLL//JYFxmSmXKpvWt3RZvWgNAmgEpilg2qQ9WX4AAAAAABBGBgwY8Mwzz9hLm1VXVxcUFCQlJSUmJk6ePLm2ttbXnJ9ds2ZN3759o6OjBw8eXFxc3GL71157rXfv3h06dDh//nxRUZG4Ni4uTjQbO3ZsaWlpZWWl6Eo0i23y4osvOvVmdaEjWbt2rRiDbDB37lxx7aFDh8Tx9u3bExISbPlx2fnSpUvT09PFUEUnKiXtP35ZvmDBgu7du4uRpKWlqU/m+he2ZhgnTpwQPcfHx3fu3HnatGkyQe8fyWPHjt16660xMTEZGRkLFy70z/L7X6KNjE83Tp8ujNqZUlTu3nbgP0fWLL8o6dGjx/PPP2/tCgBaQ5u0J8sPAAAAAADCxT//+U+VYtbKzc0dM2ZMVVVVdXX1LbfcMn36dF9zfjY/P7+ioqKurm7SpEk33nhji+3z8vJE+ZkzZ0TJ22+/ffDgQV9TLls0u/3221Uz64e7tb1ZXehIRLOoqKiSkhJxLFr27t37j3/8ozh++umn5RisZOfjx4+vqakpLS0dOHDgzJkzZZV2/IcPHxbtP/jgA3Es7rtnzx6nwtYMQ3Q7duxYceuysjJx69mzZ/t0kczJyVHNhgwZEuGQ5bdeoo2MdpxOjf1nSnHK8vvPkWrw/vvvp6amvvXWW/a+AKAVtEl7svwAAAAAACBc7N69OyIi4vTp0/J07dq1iYmJCQkJV155ZX19fXl5eWRk5P79+2XtO++8k5yc7GvOz8oktbB58+Z27dqJA/f2Bw4ckOU2mzZtio6O9vnljp16s7rQkQhDhgxZtmxZVVWVeFJx8LOf/UwUZmdn+yd8ZOf79u2TpytXrkxNTf12k39T4z9+/HhUVNSiRYsqKytVrbbQ19IwSktLtbe2RdLWbNWqVREOWX51iVNktON0ahxAlt9/jmT5Cy+8kJaWtm3btm/1AgCtpk3ak+UHAAAAAADhQvtZfpl+PX/+vPw7gMRmCQkJHTt2bGhosCV5L7S9r+mvE7Kysjp16iTaxMXFidr6+npbM6feVCc+v3RziyMRbebMmTNx4sR169aNGjWqtLQ0KSnp9OnTV1555d69e609q95qamrk6datWyMjI+WxdvyyPDs7W5QMHTr0ww8/VI39C92HsWvXLu2tbc/r30w+vjyVWh9V/3E6NfafUMUpy+8/R/Kga9euDz/88Lf7AIALoE3ak+U3Hj9VgbDCggfgLd4qQOhgP3qCMAKKy3a4/vrrbd/Lr/KwZWVl4uDYsWPWWtXAP2/byvbyY+MrVqyoq6sTpxs3bpSX79ixw9rMqTerCx2Jr+l2Xbt2ffDBB5977jlxmpGR8dRTT6WlpdnbNfemPin/5ptvigt9zuNXF4ryefPmde7cWZX4F7oPw/YhfXFr62f51fO2/rP8rY+qdZxOjW0zZeWf3HeaIxXenj17Pvroo9/u5ltcVi9agwAagWkKmDZpT5bfeOr3YYBwwIIH4C3eKkDoYD96gjACist22LRpU1xc3HPPPXfq1ClfU5J38eLFKll8xx135Ofny6rS0tINGzb4/BLHKm/byvaHDh0Sp++++644LikpGT58uLxcfjW89TP12t6sLnQkvqYHjI6OTkhIkF89/9BDD4njSZMmfdOjhewtLy+vpqbmxIkTgwYNmjFjhs95/F988YW4y7lz5xoaGubPn5+SkiIaaAt9rRhGTk5Obm5ubW2tvPWsWbPUkKzp9ezsbNUsKytLPb7if4k2Mk7j1Db2nynFP7nvNEeq/J///Ge/fv1++ctfNjY2fruzb7isXrQGATQC0xQwbdKeLL/x2BIIKyx4AN7irQKEDvajJwgjoLhvh507d+bm5nbp0iUuLk789yc/+cm6detkVVVV1X333ZecnCyq+vTps2DBAp9f4tiaW29Ne+HZZ5+VtxsyZEhRUZG6fOrUqfLLYRYvXuzUm9WFjkQaMWJESkqKzCn/5S9/EZe8+uqrqlaRvS1dujQ9PT02Nvauu+6qra2VVdrx79+/PysrKz4+Pjo6OjMzU37pjbZQch9GaWnp6NGjxYVJSUkiLPLfDfhH8ujRozk5OTExMRkZGQsXLlSPr/hfoo2M0zi1jX1+M6X4J/ed5shafvLkSXHTe+65x/aNTJL76kWLCKARmKaAaZP2ZPmNx5ZAWGHBA/AWbxUgdLAfPUEYAYXtEAD//DguC1ZvkAigEZimgGmT9mT5jceWQFhhwQPwFm8VIHSwHz1BGAGF7RAAsvwhgtUbJAJoBKYpYNqkPVl+4/FTFQgrLHgA3uKtAoQO9qMnCCOgsB0CQJY/RLB6g0QAjcA0BUybtCfLDwAAAAAAAACAAbRJe7L8AAAAAAAAAAAYQJu0J8sPAAAAAADaoNTLzT4gAACCpk3ak+UHAAAAAADwGFl+AMDFoE3ak+U3Hj9VgbDCggfgLd4qQOhgP3qCMALKZd8OZPkRsMu+ek1HAI3ANAVMm7Qny2+8wsJCexHQdrHgAXiLtwoQOtiPniCMgHLZtwNZfgTssq9e0xFAIzBNAdMm7cnyG48tgbDCggfgLd4qQOhgP/6/9u4EvIrqbvx4WFQCAQQBs6BAISxKVVAEl1coaJe3lYK4opTi+/pqxa21LaKCyqL4GkGWguBSLVRUpPJKAX3UWKFGERWwgmUJGAIkgAgJWxDC/Z9yyvmPM2cmc+dOkjn3fj9PHp+5Z86cmTnnd87c+/OShIJuBJRanw5k+RFYrUev6ehAIzBMgWmT9mT5jceUQEoh4AGEi1UFiA7mYyjoRkCp9elAlh+B1Xr0mo4ONALDFJg2aU+W33hMCaQUAh5AuFhVgOhgPoaCbgSUWp8OZPkRWK1Hr+noQCMwTIFpk/Zk+Y3Hn6pASiHgAYSLVQWIDuZjKOhGQKn16UCWH4HVevSajg40AsMUmDZpT5YfAAAAAACkoj179syZM6e0tNS+Iwxk+QEA1UGbtCfLDwAAAAAAUssLL7wwaNCgLl26FBQU2PeFhCw/AKA6aJP2ZPkBAAAAAEBKKCoqGjZs2JlnnpmVlfW9732v+lL8MbL8AIDqoU3ak+UHAAAAAABJ7oUXXrjwwgszj+vbt2/Xrl2rNcUfI8sPAKge2qQ9WX7j8acqkFIIeADhYlUBooP5GAq6EVDkdFBf3pf5feGaa66pgRR/jCw/EsBiniA60AgMU2DapD1ZfuPl5eXZi4DkRcADCBerChAdzMdQ0I2AIqZDfn6+Su7XCvs1Af6wmCeIDjQCwxSYNmlPlt94TAmkFAIeQLhYVYDoYD6Ggm4EFDkd9uzZM2vWrF69enXp0qVdu3aZmZnZ2dm5ubk18F1+IDAW8wTRgUZgmALTJu3J8huPKYGUQsADCBerChAdzMdQ0I2AYpsOy5cvv+2229q1a3f22WeT6EfEsZgniA40AsMUmDZpT5bfeEwJpBQCHkC4WFWA6GA+hoJuBBTtdFBf7c/Ozm7Tpg2JfkSTNnrhHx1oBIYpMG3Sniy/8fhTFUgpBDyAcLGqANHBfAwF3Qgo3tNh+fLlv/rVr7p06UKiHxHkHb2oEh1oBIYpMG3Sniw/AAAAAABIRXv27JkzZ05paal9BwAAUaVN2pPlBwAAAAAAAADAANqkPVl+AAAAAAAAAAAMoE3ak+UHAAAAAAAAAMAA2qQ9WX7j8acqkFIIeADhYlUBooP5GAq6EVCYDjAX0ZsgOtAIDFNg2qQ9WX7j5eXl2YuA5EXAAwgXqwoQHczHUNCNgMJ0gLmI3gTRgUZgmALTJu3J8huPKYGUQsADCBerChAdzMdQ0I2AwnSAuYjeBNGBRmCYAtMm7cnyG48pgZRCwAMIF6sKEB3Mx1DQjYDCdIC5iN4E0YFGYJgC0ybtyfIbjymBlELAAwgXqwoQHczHUNCNgMJ0gLmI3gTRgUZgmALTJu3J8huPP1WBlELAAwgXqwoQHczHUNCNgFLD02HFihVpaWlHjhyx7zDNZ5991qhRo4qKCnlHhw4dstfwpA63lftpTdVxa0Tx05rRajh6kw8daASGKTBt0p4sPwAAAAAASCEFBQUXX3xxenp6kyZNzjnnnL/85S/2GvFLmiy/kmAm3Xa4n9b81JH81wSA5KNN2pPlBwAAAAAAqWL//v2nnnrqhAkTKioqKisrV6xY8f7779srxY8svw1ZfgCoJtqkPVl+AAAAAACQKlavXp2WlrZ79277jlisvLx82LBhzZs3b9q06dChQw8cOBA7kVB+7bXXOnfunJ6e3r17988//1zW37Zt2+WXX96wYcOuXbtOmTLFmeX3OFZ7rvnz5+fm5soKo0aNEscWFhaK7eXLlzdp0sT5vxC0jciTzps376yzzhLXdv7554uTLliwQFykuIZu3bp98cUX8vAZM2aIC8vIyBCHDxw4sKSkRB1+6NAhbSa9yiuUR5WWlopziY1Gx/3hD3/w6ArFeWq3o6zXJkratm371FNP2VoDgGSlTdqT5QcAAAAAAKniwIEDLVu2/NnPfrZgwYLt27dbdw0aNGjAgAFlZWXl5eX9+vW78847YycSyoMHD96zZ09FRcWQIUN69eol6/ft23fgwIH79+8vLS3t0aNHmkuWX3us9lyiWr169YqKisS2qJmbmztz5kyxPW7cuCuvvNLS8L9pG5Envf7667/55htx0qFDh7Zp0+bGG29ULy+55BJ5+MKFCzdu3Cg2duzYIQ6Xp3Cm2i0nrPoK3Q736ArFeazbUarCW2+9lZmZ+frrr9uaAoAkpk3ak+U3Hn+qAimFgAcQLlYVIDqYj6GgGwHFYzqsW7fuv/7rv9q2bZuWlnbhhReuWbNGFO7atatOnTpil6yzePHiFi1axE4klGVeW1i6dGn9+vXFRklJiShfu3atLH/11VfTXLL8zmPdziX06NHjueeeKysra9q0qdi4+uqrRWGfPn2cyRm3RmwnXbZsmXi5bds29VJeg01+fn56enpMl2q31fS+QrfD3brCynms21GyfOrUqdnZ2R999NF3WkkKHtELP+hAIzBMgWmT9mT5jZeXl2cvApIXAQ8gXKwqQHQwH0NBNwKKn+mwdevWAQMGfP/73xfbq1atSktLa3pCkyZNGjRoIH9xvzNbfeTIkZUrV4qN/fv3y/IPP/xQlqvGVWXnsW7nEnVGjhx5ww03LFiw4Mc//nFJSUnz5s337dt3yimnyP8VYeXWiNtJnS/nz5/fs2fPZs2aiWMzMjJE+dGjR52pdnVGyfsK3Q7XvnTrLueG7Si5cfrpp//mN7+xtpA0/EQvPNCBRmCYAtMm7cnyG48pgZRCwAMIF6sKEB3Mx1DQjYDiczosXbq0bt26YqO0tDTN8p13xS3R7P+7/M5j3c4lvPvuu6effvrw4cOffPJJ8bJr165jx47Nzs6214v/gm0vt2/fXq9evblz51ZUVMSOn9eaQHdm2BXvK1RHffLJJ87LcLsqWx3nhu0ouSE6v127dg888IC1keTgM3rhhg40AsMUmDZpT5bfeEwJpBQCHkC4WFWA6GA+hoJuBBS36fDVV1+JXcXFxWJ77969Q4YMufDCC+Wu/v37Dx48WP5h3pKSkrfffjvmmZ7u06fPoEGDDhw4sGPHjp49e3qkrZ3Has8lVFRUpKenN2nSZPXq1eLlPffcI7bFRf67xe/SNuJxUuvLwsJCsbFkyRJRWFRU1Lt3b2sC3ZlhV7yvUB21efNmsaH+CYL3VdnqODdsR6nyrVu3dunS5a677jp27Ji1KdO5RS98ogONwDAFpk3ak+U3HlMCKYWABxAuVhUgOpiPoaAbAcVtOuzcufPqq6/Oyspq2LBhs2bNfv7zn2/atEnuKisru+WWW1q0aJGRkdGxY8eJEyfGPNPTxcXFffv2Fe107dp1ypQpHmlr57Hac0lXXHFFq1atZNp60aJF4pAXX3xR7bXSNuJxUtvLCRMmtGzZUhzbo0ePGTNm2BLotnasPK7QetTtt98uf5vQ9OnTva/Kdqxzw3aUtVwMaLdu3W6++Wb5K4+Sg1v0wic60AgMU2DapD1ZfuPxpyqQUgh4AOFiVQGig/kYCroRUJgOiJrS0tI5c+bs2bPHvsOB6E0QHWgEhikwbdKeLD8AAAAAAABQ7QoKCnJzc2+++ebly5fb9wGAP9qkPVl+AAAAAAAAoCbk5+fn5ORkZWV179796aef9vPVfgCw0ibtyfIDAAAAAAAANSQ/P/+MM87IzMxs165dmzZt+Go/gLhok/Zk+QEAAAAAAICaoxL9QnZ2dvv27flqPwCftEl7svzG409VIKUQ8ADCxaoCRAfzMRR0I6CI6SBTqIARcnNzxX87duyYn5/PYp4gOtAIDFNg2qQ9WX7j5eXl2YuA5EXAAwgXqwoQHczHUNCNgMJ0QJQ988wzWVlZmZmZOTk5ffr0Of/88y+77LJZs2bJ7/ITvQmiA43AMAWmTdqT5TceUwIphYAHEC5WFSA6mI+hoBsBhemAyJIp/o4dO/bt27dDhw7Dhw+3/V5+ojdBdKARGKbAtEl7svzGY0ogpRDwAMLFqgJEB/MxFHQjoDAdEE3PP/9869ats7OzrV/etyF6E0QHGoFhCkybtCfLbzymBFIKAQ8gXKwqQHQwH0NBNwIK0wERVFBQ0LlzZ+eX922I3gTRgUZgmALTJu3J8huPP1WBlELAAwgXqwoQHczHUNCNgMJ0QNSUlpbOmTNH++V9G6I3QXSgERimwLRJe7L8AAAAAAAAAAAYQJu0J8sPAAAAAAAAAIABtEl7svwAAAAAAAAAABhAm7Qnyw8AAAAAAAAAgAG0SXuy/MbjT1UgpRDwAMLFqgJEB/MxFHQjoDAdYC6iN0F0oBEYpsC0SXuy/MbLy8uzFwHJi4AHEC5WFSA6mI+hoBsBhekAcxG9CaIDjcAwBaZN2pPlNx5TAimFgAcQLlYVIDqYj6GgGwGF6QBzEb0JogONwDAFpk3ak+U3HlMCKYWABxAuVhUgOpiPoaAbAYXpAHMRvQmiA43AMAWmTdqT5TceUwIphYAHEC5WFSA6mI+hoBsBhekAc4UYvStWrEhLSzt06NBnn33WqFGjiooKe43oUZeqLt5eoyohdiCqD8MUmDZpT5bfePypCqQUAh5AuFhVgOhgPoaCbgQUpgPMpY1emfJu1KhR48aNTz311PPOO2/EiBGlpaX2et8VOFEeBYEvXtuBiBqGKTBt0p4sPwAAAAAAABBp1pT30aNHV61a9Ytf/KJVq1aFhYX2qhaBE+Vahw8fthdVp3AvHkga2qQ9WX4AAAAAAAAg0rQp76uuuur666+X2+Xl5cOGDWvevHnTpk2HDh164MAB61FqY9q0aeeee65qYdOmTXXr1t28ebN3C3/6059yc3NPPvnkI0eOqGO9D5k3b95ZZ53VsGHD888///PPP1+wYEHXrl3T09O7dev2xRdfyMNnzJjRuXPnjIwMcfjAgQNLSkrU4dZrtp4RgDZpT5YfAAAAAAAAiDRtyvv1119v0aKF3B40aNCAAQPKysrKy8v79et35513Wo9SG998880pp5yycuVKedTo0aP79u1bZQvXXXedKD948KCsqXgccv3114tzVVRUDB06tE2bNjfeeKN6eckll8jDFy5cuHHjRrGxY8cOcfiVV16pDifLD7jRJu3J8gMAAAAAAACRpk15FxQU1K1bV2zs2rWrTp0669atk+WLFy+W2X9txvzaa6+96667xMaxY8fatGkzZ86cKlvYsGGDLLfyPqSoqEiWL1u2TLzctm2belm/fn25bZWfn5+enh5zuWYAijZpT5bfePypCqQUAh5AuFhVgOhgPoaCbgQUpgPMpY1ebcpbfZd/1apVYm/TE5o0adKgQYPKykptxnzJkiXiqG+//fadd94RleU39KtswXpeyech8qX6VT/Wl/Pnz+/Zs2ezZs3EsRkZGaL86NGj2muOi7YDETUMU2DapD1ZfuPl5eXZi4DkRcADCBerChAdzMdQ0I2AwnSAubTRq015Dxo06IYbbhAbpaWlaZbvyyvajPnRo0dzcnLmz59/00033XrrrbJmlS3YymO+D3HL8m/fvr1evXpz586tqKgQ5e+++64s115zXLQdiKhhmALTJu3J8huPKYGUQsADCBerChAdzMdQ0I2AwnSAubTRa015V1ZWfv7558OGDWvVqpX8vfZC//79Bw8evHv3brFdUlLy9ttvW4+yZcxHjhzZu3fvhg0bLl++/N8nqKoFVc3KzyFuWf7CwkKxsWTJElFYVFQkrocsf0phmALTJu3J8huPKYGUQsADCBerChAdzMdQ0I2AwnSAubTRK1PejRo1aty4cdOmTc8999zf/e53paWlqkJZWdktt9zSokWLjIyMjh07Tpw4UR3lzJivX79evDz77LPV4VW2YK2p+DnELcsvtidMmNCyZUtxbI8ePWbMmEGWP6UwTIFpk/Zk+Y3HlEBKIeABhItVBYgO5mMo6EZAYTrAXESvm9LS0jlz5uzZs8e+47voQCMwTIFpk/Zk+Y3Hn6pASiHgAYSLVQWIDuZjKOhGQGE6wFxEr4eCgoLc3NzbbrvN+ruGbOhAIzBMgWmT9mT5AQAAAAAAAJhh8eLF2dnZWVlZvXr1mjVrVpVf7QeSjDZpT5YfAAAAAAAAgDEWL16ck5OTmZl59tlnt2vXzvur/UCS0SbtyfIDAAAAAAAAMIlK9Avt2rXr3LkzX+1HitAm7cnyAwAAAAAAAFEhM9eIV+vWrcV/O3bsmJ+fb+9TIIlok/Zk+Y3Hn6pASiHgAYSLVQWIDuZjKOhGQGE6wFxErx+vvvpqdna2zO+fe+6555xzzqWXXiq/y08HGoFhCkybtCfLb7y8vDx7EZC8CHgA4WJVAaKD+RgKuhFQmA4wF9FbJZnib9269YUXXti+ffvhw4dbfy8/HWgEhikwbdKeLL/xmBJIKQQ8gHCxqgDRwXwMBd0IKEwHmIvo9fbqq6/m5ORkZ2erL+/bKtCBRmCYAtMm7cnyG48pgZRCwAMIF6sKEB3Mx1DQjYDCdIC5iF4PBQUFnTp1sn1534YONALDFJg2aU+W33hMCaQUAh5AuFhVgOhgPoaCbgQUpgPMRfS6KS0tnTNnjvPL+zZ0oBEYpsC0SXuy/MbjT1UgpRDwAMLFqgJEB/MxFHQjoDAdYC6iN0F0oBEYpsC0SXuy/AAAAAAAAAAAGECbtCfLDwAAAAAAAACAAbRJe7L8AAAAAAAAAAAYQJu0J8sPAAAAAAAAAIABtEl7svzG409VIKUQ8ADCxaoCRAfzMRR0I6AwHWAuojdBdKARGKbAtEl7svzGy8vLsxcByYuABxAuVhUgOpiPoaAbAYXpAHMRvQmiA43AMAWmTdqT5TceUwIphYAHEC5WFSA6mI+hoBsBhekAcxG9CaIDjcAwBaZN2pPlN168U2LFihViWA8dOmTfEY9QGgngs88+a9SoUUVFRW1dAGpdvAEPAN5YVYDoYD6Ggm4EFKYDzEX0JogONALDFJg2aU+W33geU+KTTz75+c9/ftpppzVs2LBNmzZ33HHHrl27QsmPh9JIImr9AlBbPAIeAAJgVQGig/kYCroRUJgOMBfRmyA60AgMU2DapD1ZfuO5/amK9957LyMjQwxfWVmZeFlUVDRixIglS5aEkh8PpZFE1PoFoLa4BTwABMOqAkQH8zEUdCOgMB1gLqI3QXSgERimwLRJe7L8Satr167jx4+3l57Ij7/22mudO3dOT0/v3r37559/LneVl5cPGzasefPmTZs2HTp06IEDB2T5vn37brvttlatWjVq1Oiss85auXKlNckuDm/btu1TTz2lTiFpW5MHzps3T7TTsGHD888/Xxy+YMECcbXiYrp16/bFF1/Iw2fMmCGuMCMjQxw+cODAkpISdbg4L1l+AAAAAAAAAKlGm7Qny5+ctm3bJsausLDQvuNEonzw4MF79uypqKgYMmRIr1695K5BgwYNGDCgrKysvLy8X79+d955pywfOHDgf/zHfxQXF4vtDRs2bNmyRSXZ33rrrczMzNdff121r2hbkwdef/3133zzjTj70KFD27Rpc+ONN6qXl1xyiTx84cKFGzduFBs7duwQh1955ZXqcLL8AAAAAAAAAFKQNmlPlj85rVq1Sozdvn377DtOJMqLiorky6VLl9avX19s7Nq1q06dOuvWrZPlixcvbtGihdjYuXOnqC8aPNHAv8hGpk6dmp2d/dFHH1l3SW6t2c6+bNky8XLbtm3qpbwYm/z8/PT09BhZfgAAAAAAAAApTJu0J8ufnLZu3SrGbtOmTfYdjt9oL18eOXJE/o+Bpic0adKkQYMGlZWVsnz//v3ORk4//fTf/OY31nLFrTW3sztfzp8/v2fPns2aNRPHZmRkiPKjR4+S5QcAAAAAAACQsrRJe7L8xnP7UxVdu3Z99NFH7aXuWf7S0tI0y9fqFfld/tWrV1sL5VFr165t167dAw88YN0lubXmdnbby+3bt9erV2/u3LkVFRWi/N1335XlZPnhFvAAEAyrChAdzMdQ0I2AwnSAuYjeBNGBRmCYAtMm7cnyGy8vL89edNx7773XuHHjadOmlZeXi5fFxcUjR4588803PfLs/fv3Hzx48O7du8V2SUnJ22+/LetcddVVffr0kSl72+/l37p1a5cuXe66665jx47Jyoq2NY+zW18WFhaKjSVLlojCoqKi3r17k+WH5BbwABAMqwoQHczHUNCNgMJ0gLmI3gTRgUZgmALTJu3J8hvPY0p88skn/fv3P+200xo1atSmTZs777zz66+/9sizl5WV3XLLLS1atMjIyOjYsePEiRNlnfLyclV+1llnrVq1ytrIzp07u3XrdvPNN1dWVp44879oW/M4u+3lhAkTWrZsKY7t0aPHjBkzyPJD8gh4AAiAVQWIDuZjKOhGQGE6wFxEb4LoQCMwTIFpk/Zk+Y3HlEBKIeABhItVBYgO5mMo6EZAYTrAXESvm9LS0jlz5uzZs8e+47voQCMwTIFpk/Zk+Y3HlEBKIeABhItVBYgO5mMo6EZAYTrAXESvh4KCgk6dOg0fPnz58uX2fSfQgUZgmALTJu3J8huPP1WBlELAAwgXqwoQHczHUNCNgMJ0gLmIXm/z5s3LycnJzs6+5JJLZs2a5fxqPx1oBIYpMG3Sniw/AAAAAAAAAGPMmzcvOzu7devWF154Yfv27b2/2g8kGW3Sniw/AAAAAAAAAJPIRH/mceecc873v/99t6/2A0lGm7Qny288uZwBAAAAAAAAKSsnJ0f8t2PHjvn5+fb0GZBEtEl7svwAAAAAAAAATLJo0SKZ1hfatWvXpUuXXr168V1+pAJt0p4sv/H4UxVIKQQ8gHCxqgDRwXwMBd0IKEwHmIvorZJK8Z999tnt2rW77bbbrL+Xnw40AsMUmDZpT5bfeHl5efYiIHkR8ADCxaoCRAfzMRR0I6AwHWAuotfbokWLsrOzs7Ky3L68TwcagWEKTJu0J8tvPKYEUgoBDyBcrCpAdDAfQ0E3AgrTAeYiej0UFBTk5ubavrxvQwcagWEKTJu0J8tvPKYEUgoBDyBcrCpAdDAfQ0E3AgrTAeYiet2UlpbOmTPH+eV9GzrQCAxTYNqkPVl+4zElkFIIeADhYlUBooP5GAq6EVCYDjAX0ZsgOtAIDFNg2qR91Vn+AQMGTEKE3XPPPfYiIHkR8ADCxaoCRAfzMRR0I6AwHWAuojdBdKARGKbABgwYECTLDwAAAAAAAAAAIiKOLP+WLVsmAwAAAAAAAACAyNiyZYs1k++V5QcAAAAAAAAAAFFGlh8AAAAAAAAAAFOR5TfeBx98YC8CkhcBDyBcrCpAdDAfQ0E3AgrTAeYiehNEBxqBYQoXWX7j5eXl2YuA5EXAAwgXqwoQHczHUNCNgMJ0gLmI3gTRgUZgmMJFlt94TAmkFAIeQLhYVYDoYD6Ggm4EFKYDzEX0JogONALDFC6y/MZjSiClEPAAwsWqAkQH8zEUdCOgMB1gLqI3QXSgERimcJHlNx5TAimFgAcQLlYVIDqYj6GgGwGF6QBzEb0JogONwDCFiyy/8fhTFUgpBDyAcLGqANHBfAwF3QgoTAeYi+hNEB1oBIYpXGT5AQAAAAAAAAAwFVl+AAAAAAAAAABMRZYfAAAAAAAAAABTkeUHAAAAAAAAAMBUZPmNVzN/quKzzz5r1KhRRUWFfUcgbq2tWLEiLS3t0KFDtnK4kT125MgR+47kVTMBDyB1sKoA0cF8DAXdCChMB5iL6E0QHWgEhilcZPmNl5eXZy8yJ11uu05TLjs6UjDLrw14AAiMVQWIDuZjKOhGQGE6wFxEb4LoQCMwTOEiy2887ZQwJV1Olj8uhw8ftpWQ5QeABLGqANHBfAwF3QgoTAeYi+hNEB1oBIYpXGT5jaedEm7p8h07dgwcOLBx48annXbaHXfcobLGxcXFffv2bdiwYdeuXadMmeJMHKsG5cZrr73WuXPn9PT07t27f/7559aawvz583Nzc+X2qFGjRP3CwkKxvXz58iZNmoiWZSOlpaWiBbHR6Lg//OEPfhr3qFNeXj5s2LDmzZs3bdp06NChBw4ciPm4mBMN/4ts/Nlnn23Tpk1GRoZoRPXhjBkzxBlFoWhc9GFJSYksnzhxYk5OjriS7OxsNRbOQj+XoR0deUl/+tOfxOEnn3yyqLlt27bLL7/cY7CSmzbgASAwVhUgOpiPoaAbAYXpAHMRvQmiA43AMIWLLL/xtFPCLcvfr1+/gQMH7t+/v7S09JxzzhkxYoQs792797XXXnvgwIEdO3b06tXLmTi2ZfkHDx68Z8+eioqKIUOGiPrWmoLYVa9evaKiIrEt9ubm5s6cOVNsjxs37sorr3S2Zvsuv3fjHnUGDRo0YMCAsrKy8vJycad33nlnzMfFWMnGr7nmGtFFJSUloovuvfdeuWvhwoUbN26MHc/Fi8blsZs3bxb133nnHbEtzrt69Wq3Qj+XoR0deUnXXXedaOrgwYOipG/fvqpajx49nIOV3LQBDwCBsaoA0cF8DAXdCChMB5iL6E0QHWgEhilcZPmNp/1TFdosf0lJiShcu3atfPnyyy9nZmaq8nXr1snyefPmORPHtry8zFYLS5curV+/vrWm1KNHj+eee66srKxp06Zi4+qrrxaFffr0mTx5cszRmi3L7924W51du3bVqVNH3cXixYtbtGght70vxko27uwim/z8/PT0dLGxffv2evXqTZs2be/evWqvtjBW1WW4jY68pA0bNshyW7VXX33VOVjJTRvwABAYqwoQHczHUNCNgMJ0gLmI3gTRgUZgmMJFlj85abP8K1euFIX79++XLz/88MM6deo4yz/66CNn4tg7L+/MMo8cOfKGG25YsGDBj3/845KSkubNm+/bt++UU05Zs2aNOsqtNe/G3eqsWrVKbDQ9oUmTJg0aNKisrIxVdTFWsjVnF8WO/8qdnj17NmvWTLSckZEhqh09elSW9+nTR5RcdNFF7733nqrsLPS+DLfRsd2vs5qziwAAAAAAAACkDrL8yUmb5bd9DfyVV16R3xbfvn17muW7/K+99pozceydl3dmmd99993TTz99+PDhTz75pHjZtWvXsWPHZmdny72qkU8++cTZmnfjbnVKS0vFxrZt26yVJe+LsZKtWbtIHBg78fX8uXPnVlRUxI43aLswUf7QQw+ddtppqsRZ6H0ZbqNju1++yw8AAAAAAADAiix/cpKp4b179x464dtvv40d/5XugwYNkr9//7zzzvvd734n61922WU33HDDwYMHd+3addFFFzkTx/Fm+SsqKtLT05s0aSJ/K/0999wjtocMGSL3qkbkr7BX36n307hHnf79+w8ePHj37t2x49nwt99+W9bxvhgr2dp11123f/9+2UW//vWvRXlhYaEoX7JkidguKirq3bu3POmmTZvEWQ4fPlxZWfnEE0+0atVKVNAWxnxchnZ0bPcbO/5LflS1nj17OrsIAAAAAAAAQOogy5+cZGrY6sYbb4wdz33//Oc/b9y4cfPmzW+//Xb5zfTY8cx1nz59GjZs2LVr10mTJtWpU+fYsWPOBv1n+YUrrriiVatWsp1FixaJai+++KLcZW1EXIb8HTvTp0/307hHnbKysltuuaVFixYZGRkdO3acOHGiOsrjYqxka88++2ybNm0aNWp00003HThwQO6aMGFCy5YtRcs9evSYMWOGPOm6det69uwp+jM9Pb1bt27yl/NoCyXvy9COjjPLX1xc3LdvXzlYU6ZMcXYRAAAAkkxpaemcOXP27Nlj3wEAAACQ5U8Cof+pirlz52r/5GwqcKbUETWhBzyAFMeqAkQH89FbQUFB586dhw8fvnz5cvs+C7oRUJgOMBfRmyA60AgMU7jI8hsvLy/PXhS/tWvXyl+bs3nz5u9///t33HGHvUZqIMsffaEEPAAorCpAdDAfq/T888/n5ORkZ2dfdtlls2bN0n61n24EFKYDzEX0JogONALDFC6y/MYLZUoUFBS0a9euYcOGzZo1GzZs2P79++01UgNZ/ugLJeABQGFVAaKD+ejHc889l5WVlZub+4Mf/KBDhw7Or/bTjYDCdIC5iN4E0YFGYJjCRZbfeEwJpBQCHkC4WFWA6GA++iQT/ZmZmTk5Ob179+7evbv1q/10I6AwHWAuojdBdKARGKZwkeU3XiYAAACAFNahQwfx344dO+bn5/OBGVCYDjAX0ZsgOtAIDFO4yPIbjz9VgZRCwAMIF6sKEB3MR5/y8/PPOOMMmd/Pycnp0KHD+eefP3PmTPldfroRUJgOMBfRmyA60AgMU7jI8gMAAACAGVSKv127dm3atLn55pttv5cfAAAAKYgsPwAAAAAYID8/PycnJysry/rlfQAAAIAsPwAAAABEXUFBQW5uLl/eBwAAgBNZfgAAAACItNLS0jlz5vDlfQAAAGiR5Tcef6oCKYWABxAuVhUgOpiPoaAbAYXpAHMRvQmiA43AMIWLLL/x8vLy7EVA8iLgAYSLVQWIDuZjKOhGQGE6wFxEb4LoQCMwTOEiy288pgRSCgEPIFysKkB0MB9DQTcCCtMB5iJ6E0QHGoFhChdZfuMxJZBSCHgA4WJVAaKD+RgKuhFQmA4wF9GbIDrQCAxTuMjyG48pgZRCwAMIF6sKEB3Mx1DQjYDCdIC5iN4E0YFGYJjCRZbfePypCqQUAh5AuFhVgOhgPoaCbgQUpgPMRfQmiA40AsMULrL8AAAAAAAAAACYiiw/AAAAAAAAAACmIssPAAAAAAAAAICpyPIDAAAAAAAAAGAqsvzG409VIKUQ8ADCxaoCRAfzMRR0I6AwHWAuojdBdKARGKZwkeU3Xl5enr0ISF4EPIBwsaoA0cF8DAXdCChMB5iL6E0QHWgEhilcZPmNx//4Qkoh4AGEi1UFiA7mYyjoRkBhOsBcRG+C6EAjMEzhIssPAAAAAAAAAICpzM7yv/fee2lpabt27bLvCM/MmTPbtm1bt25dcSL7PqPUQF/VAHkXe/bsse9IATUwgkQ7oqYGhpKwj5RUXuRrS3JEjmK9nVq/tVq/gEQEm4w+b9lnNVjRaUhKwZYaROphhypFYbxq67zVKsSOTfBwJBPTg6F6kxqyd6zuvvtue6UEOGd1uG8Rtm7dWrdu3RkzZmzbtq2kpMS+OxYrLi7+n//5nzPOOOOkk05q2bLl1Vdf/fHHH9sr1ThtVxw+fFjcwrFjx6yFcZHNfv311/YdOhs3brzmmmtatGhRr16900477bLLLluyZIncpb08nxI5Vkq8BTdEe63QdkUNR7t1aBKkvZ0oI+xrhbYrajjszV3krUHbpEmTH/3oR2vWrLFXMkeV92ulrZx45FjV+pSx3o68X+fiLMsbN2584MABVbh27VoZFT470w+3C6hdn376qbiqiy++2L7ju7TRUiWf4VRltWBnVxI8PCzhBkCVneYkL0Bq1qzZDTfcsHPnTnslJAVzx9pttlrvqFof1m4XYBX6o83PSb1Zl5dwl5qUZQ055csvv7TXC8TPmxOPt9ahCPAQCUWtd6xbuY3PatXEeXZZksgq4c3nu8EaVuVdq3CqU6dO06ZNe/ToMWbMmPLycns9hypbtnIOh1lqIssvHsklJ/gZAP+svR/XsPn0/vvviza/+eYb+47jxELcqlWr/v37i2pbtmz55JNPRo4c+Z//+Z/2ejWuOroidvwbr927d7eX6hw6dKh169Y/+clPPvroo61bt65cuXLy5MkvvfSS3JvI5SVyrJR4C26I9lpRHV0RiyfaY6E+BhK5nSNHjtiL3MVV2QNhXyuqoyti8YS90Yu8NWjFG9wrrriiU6dO9koJC2uKVanK+7WKq3IAUZsy8n6di7MsP+OMM1544QVVeO+995555pnh9o/bBcQr3HD61a9+JT4U1a1bd+3atfZ9FtUdLd78nN2jW/wc7sGj5biEFQCByQuQy92HH3549tlni3XbXglJwZSxdk4ut9lqvaPqe1jH3C9AqY5HW5Unjen6ysq6vARbarzbT0HWkFOOHj1qr5cw7Xh5v7X2L4LDWrsd61Fu47NaNXGeXZZ4rxI+aaPC57vBGlblXVvDad26dXPnzu3WrVuHDh2q/B/bVbZs5RwOs9RElt/ZO+Jj1bnnnnvyySefeuqpN954o+rrysrKxx9/vH379ieddFJWVtYjjzwSczRiHR7rrrTvEiXicPEWRx4lXXzxxXfeeae1JHY86B944AGxqoqTduzY8dlnn1W7nG1a/fCHP3Q+4NW9eDQrL/vNN988//zzTznllJ49e4p3D2JBv+CCC8RL8d/169dba7799tsXXXSR2CU+f06dOtW6S9st373qf1+2tb7cfuutt7p37y5GQZzxn//8p6x2+PDhe+65p0WLFg0bNhwwYIB4tKhmr7rqqoULF8pqTz/9tPh4XK9evezs7IkTJ8pCRby5FEdt3rzZVi599+r+dXke9yK6UXzwltdz5ZVXzp49W+0SxMNP9K3o4ZycnFGjRqmnhccNfvfk/+4c79vxyXYXCtGeltTRHnNcnpVbiGpHP6a7HY97l9uLFy8WT2jRjrxgtzM6K1d5X3643Tthn5bUYW/cIm9luxgxTOKl+HClKnifVDtYaq/P+ejWvW71471ftwmoraw6ZObMma1atbJ+7rrhhhvEoMhtt2uzCjZlPMLD48a1i4mtNVvLiiwXd3HZZZfJkm+//Vbc++jRo9WpY+63LA9PcIJL3qcIfcUWDh482LRp00WLFl1++eVi6ll3eUzGeG+5yoXIWk17a2nfZT3K2i1xhbpbBGpb1l5VvKy3aeVxJR5LtM++tbJdwKuvviruSER7zH2V8LiAmHvEotYFGGttkDsLlyxZkpGRIZNEGzZsEGe59dZbZWURxv369Yt5hrRzcnksNVa2O/L/sHbegnf944vE/6fqK8EebTHPeao9qbavvBvXPuzc7tTZvmoNMUc3Onf5eQi6TTeP8ZK831rHfA/r8OHD3d7LWc/r9iYq5n6iwLT3a91VrR2rraOdlXKX23s2t8m4c+fOzMzMhx9+WL5cvXq1OFaswOpAn5wXL0vknca7rMljPSa7x7tBt9hwK3frGdsdWW/HYxTSvksWWjk7StxLp06dfvWrX8mXbqGibdmtsncwuB0V7zBVH03Hhcg5BtKf/vSnd999d8uWLX/729+6du160003yfLf//73zZo1mzt3rti1YsUK+R2rKuND7po/f77YXrdunfzfg7Hj/7ZOdPHy5cvlgSJ0RAUx8eRL5fbbb2/ZsuUbb7xRVFT0zDPPiFF8/vnn5S5nm8rXX39dp04dEZrWQiuPZuVl9+rVq6CgQFzVxRdfLNa1Pn36iBVNvpRvmFTNDh06ONvx6BbtZVvry21xIvE4+fLLL8WViLPLarfddpuYtGLCi9M999xzp59+umpWEY8fce+PPfbYV199JYZJXJt1ryDKRYUJEybId4Q2zsvzuJe77rpLPKjk7c+cOVO8I1S7HnroITGfxeIlBlrMwLZt295///3WFrQ36Dx7lbfjk+0uFKI9LamjPea4PMUjRLWjH9Pdjse9y+3zzjtPhJa4PFHH44y2yp999lmV9+WH270T9mlJHfZmLfI21ovZu3fvkCFDunTpovZWeVLtYKm9fuajW/e61VeN+79ftwmoraw65JtvvhFvWNU/D9+3b1/Dhg1feeWVmOe1KYGnjEd4eNy4djGxtWZrWZHloh8aNGggPk+Kkr/85S/f+9738vPz/YdfghPczylCX7Fjx2NDfAIRH9XER1AxHDIJKHlMxnhvucqFSFVzmw4esWqdZXGFulsEOlsOq8OtvWHlcSUeS7TPvrWyXcD//d//ifuqqKiIua8SHhfgEbGodfGOtXbqaQvFs6B+/foi0sS2CFexMqjv1F9yySVjx46NeYa0c9p6LDVW1jvy/7DW3oJH/ZjLcqEEfrTFPOep9qTOvqqycefDzuNOne3Lcki2SeTc5echqJ1uqgXneClfeb619j+sGzZscHsvZz2v25sojxMFpr1f665q7VhtHe2slLvc3rN5TMY333zzpJNOErdw8ODBs84665e//KUsj4vz4mWJWBsDLGvyWI/J7vFu0C023MrdesZ2R+p21LZ2FLRro5Wzo4RJkyaJty5y2y1UtC27VfYOBu1RAYap+qTZC0Ile6eRhegjW53XX39dlB87dqy8vFz03R//+EdbhSrjwzpjbW8RfvrTn6qvG4i4vOCCC6x7Y8ffNIg5KcZJlYhq6r2Ltk1JLD1ilxgq+47j/DQrIkO+FFNLvFy6dKl6Kd5Lyf/DI2va2uncubPa5dEttst29pX4NCt3iXVfnFE8UcrKysRli6mrjrrvvvucTYmoTdOl0qwmT54snigZGRmXXnrpvffeKw5Ru5yX53Yv4nrEU8p6+7/97W/lrgMHDqSnp4vFVO166aWXmjdvLrfdblDtsp7dz+34IVsm2mO6ZpM72m2XJ3mEqNvox3S3U+W9q0eIxxmdlf3clx+yWcI+pms2ucPeoEXeRlaQ4So2OnbsKPO8MX+TSDtYaq+f+ajtXo/6scTuV03AmEtlWShHZ8CAAeoN7uzZs5s0aXLo0CHva1MCTxnrBaiX1lB33rjbYhL7bmu2lp11rr32WvlWW6wkY8eOVaf2vmVZLcEJ7ucUoa/YQu/evcXnjdiJf74wb948We4xGWPx37L3QmSt5nZraiychapbbLxD3SMCY46W3a4qXtbeUDyuxHuJ9tm3VtZDxH/F6IvP0rY6MUvXeVyAd8Si1sU71tog1xYKPXv2fPTRR8XGjTfe+PDDDzdo0GD79u0iJMSisWzZMo+Qjjkml/dSYyUPjPdhrb0Fj/ox3XJhFfjRFvOcp9qT2vrKT+O2h52fO3VbQmENOSknJ8e6y89D0Mr5VPJ+c+L21jreYdW+l1M1xXnd3kR5nyiwWu9YZx2PWal9z+Y9GYW77767Xbt2v/zlL9u3b79v3z5V7p/z4mWJWCUCL2sek93t3aBbbLiVe/SM7Y7U7ahtj1FwW5BjjmalJUuWiMLDhw9bC2O6UPFo2VlZGww23k9V72GqPjWR5f/44483nCAH7+9//3u/fv1atmwpVjHxRkHUEXGzfPlyseHMEFUZH9YZaxu2BQsWNG3a9ODBg2J1yMrKmjFjhnVv7MST23rSRYsWiRL53Qdtm5L3I99Pszt27JC75Mvdu3dbX4oJo7a17VjvXdW0dov2fYO1r2wXIM4oL3vLli3qKHk6W1NiEHv06CE6Vjw/xOLrXHklMaZ//etfxcfmyy+/vE6dOpMmTZLlzstzuxdnSKjrEUGV9t2nhQwkuaq63aC1cdWmz9upkmyZaI/pmk3uaLddnuQRom6jH9PdTpX3vm3bNrnL44zOyn7uyw/ZLGEf0zWb3GEfM2eRt5EVRPv//Oc/p0+fLt6bzp8/X+7yc1Ln1VoH3c981HavR33VuP/71U5At8qyUI6OeJcvDjlw/G/S/vjHPx42bFisqmtTAk8Z6wXEvnuRbjfujBzF2pqtZWedt956q3Xr1mJGnHzyyeLK1am9b1l7VfFOcD+nCH3FFkt0vXr11PWITyxilOW2s0uti0O8t+y9EFmrud2arKCNVdUtsXhC3SMCVf3QO9zaG4rHlXgv0dbW5La2b61kuQwwsUpfcMEF69atk7u0XedxAd4Ri1oX71hrg1xbKIwYMeKHP/yh2BALplgrevfu/dJLL7399tsNGzY8fPiwR0jHHJPLe6mxkgfG+7DW3oJHfXUi5wVIgR9tMc95qj2pra/8NG572Pm5U+sSCivZP9YPNZs2bbLu8vMQ1E43Vcf7zUnM5a11vMOqfS+naorzOqeh5H2iwGq9Y511PGaldsZ5T0ZBbHTq1Klu3bqipqoTF+fFyxKxSgRe1twme1zvBr3LPXrGdkfqdtS2xyi4LcgxXUcJixcvTjuR5fcOlbg+MWnvy+2oAMNUfWoiy28bA9GzjRs3Hjp0aEFBwfr161988UXZ3W6h87e//c3ayLvvvquGx9q+dthEX2dlZc2ePfuNN94Qb0TKysqse2OecRlzaVPy/ud7fprVRrztpdx2vtsW7VTZLdr3DdoVUNV3vo+RE8bZA99+++3ChQuHDx/erFmzAQMG2PY6jRkzRsyBysrKmO7y3O5FhoTz9tWlLlu2TD0tJOspnDdo21bivR0t20klot1jLGwv5bZzuKMf7bZTSB4h6jb6Md3tVHnvapfHGZ2VYz7uyw9nszHC3tEttrNYX8ptE8PeJuKLvJXt2LvvvvvMM8+U/1LVz0mdV6sddO+mnN3rXT+u+93jMgG1lVWhbFzci3h7+tJLL4l33vXr15ffrvK+NiXwlHELj5j7jbstJqqOdiI464hbEKPfp08f+fFGte99y25X5Xwpt7UxE9cpYrqYCWDEiBGi2Xon1D1OXp7HZIw5rqfKW9b2v1s17a3ZTmEtVA3GFeoeEajqh97hzmZjnlfivURbW7O17Lxfa7n4kLlx40YxQ1W5W9d5XIB3xKLWxTvWMZcg1xYuWbKkUaNGa9eubdKkydGjRx966KFbbrnlgRO/lN8jpGOOWPVeaqxsB/p/WDtvwbu+2/SRAj/aYo5bsJ5Ie1Jbff+Nq20/d2pbkaB49I9tl2341EuP6aYdrxPN66m31vEOq/a9nLWm25so7xMF5rxCt12qJ20vE+xYjzrWM8pt5+qkns5ukzF2/NfGis+h4p3VS/H/wWTpgw8+EA1u3bpVlcjvpx88eDAWdFlzdoVU5btBZ2y4lXv0TIC397ZtLe2tPfnkk9nZ2THPR56z5Sora4PB46h4h6n61EKWX0aw6rInnnhC9ovbPwP57LPPRIUvv/xSvpw8ebI2PpYuXZpm+V9/ysiRI3/wgx+IXv7FL35h2xU78W9j3f4thjMUrK644oqf/OQntkJZ2U+z2rC2vZTbs2fPlrtix+ekbMejW7RdYT2p2wXsPf4vbl5++WV1lOg9jx6Infh3VXL18bBgwYI6J347pPPy3O5F/qNO6+3/7ne/k7v27dvXoEGDP//5z2qXldsNxnRnt/J5O1q2k0pEu8dY2F7KbROj3XYKySNE3UY/prsdj3u3ndfjjDFHZSu3+/JD2yxh7xZ1zpdy28SwtzFlkY85jhVvTNWbcj8n1Q6W2utzPiqqe73rx3W/bhNQWznmaPzmm2/+6U9/OmXKlNatW8v3oN7XZhVsyriFR8xxberG3RaTmOdE0NaRf3FX/lNl1b73LbtdlfOl3NbGTFynsPI5JZ2OHDmSmZn52GOP/cPivPPOk38/zWMyxhzXU+Uta/vfrZpivTU/sRpXqHtEYMzRslXgDo+5NOtxJd5LtM++tdJeQMy96zwuwDtiUeviHWtrHW2QWwv3Hf/V/L/85S/lH6EV5+rQoYP6pfweIS0rWy/Me6mxsh3o/2Gt+HzCOpcLm2CPtpjjFqzzVHtSZ1/5bFxte9+prX3YePSPx1BaX3pMN+14yWpu1FvrAMPqfC9nren2Jsr7RIFpr1C7S/Wk7WWCHetRx3pGua19z+Y9Gb/99tvu3btff/31kyZNOvXUU52pcD9KS0vFcC9evFiViDdsMnNt5XNZc+uKWFXvBt1iw63co2cCvL2PuayNVs5bO3j8r+/efvvtMc9HnrNlj8oeweBxlOJzmKpPLWT5t23bJh7S4om+efPm119//YwzzlD9ImKiefPm4s3lFsufdDh8+HCLFi0GDx4s6i9ZsqR9+/ba3j2utwAAFGdJREFU+BDTSWyLyNu5c6f1jIWFhXXr1hVvTd5//31VaCX/EPnChQvFSZ999tlTHH/WxjZmyvr161u2bNm/f3/RsjhWxPGoUaPku5+Yj2a1YW17Kbdzc3P/+te/inaee+45ESXy71Z7dIu2K6wn9biA2267TawmYn0RpxP9L5aANMc/AV6+fPnUqVPFjN2wYcOQIUNycnLkr69S/v73v4tlbv78+aKCaEdcvJh4qmecl+dxL3fcccfpp58uWhBHiRsXHa52PfzwwyJaxJoi/86MCBv1l749btB59ipvxyfbSSWi3WMsbC/ltnHRHjvRpvjvSgvxjsojRLWjH9Pdjse9224tFs+k8HNffjivIUbYO7rFdhbrS7ltXNibtcjb2I6NHf8Fpur3F1d5Uu1gqb1+5qNb97rVdzbufb8eE9BZ2dl4fn6+mE1nnXWWaEGWxDyvzSrYlPEID48b1y4mtkOcg+KsIz6b7Tr+pX5Vnkj42V7KbbeY8X8Kt5iJy4IFC8TIWr/kK0yYMKFt27ayNY/JGO8ta/tfW83t1vzEaryh7haBzpbdripestn3HG8PPK7EY4n22bdWtmqKR9d5XIBHxKLWxTvW2iDXFsp2evbsKRaQJ554QmwfOnRILGWi2WXLlsm9HiHtvDCPpcbKeaCfh7XbLbjVj7ksF1bBHm0xxy1Y56n2pM5b9tm4ddvjTp3tw0r2z5o1a+Qf55Tk7wDxGErrS7fpZmtBOxDeb63jHVbtezlrTbc3UR4nCqx2O9a7jvWMctvtPZvHZBwxYoS4JNGIWG1+9KMf9e7dO9g3tcUS16VLF7HOFBcXi9sUAxF4WXPripiPd4NuseFW7tYzwd7ea9dGK1lZhpNYnMX1dOvWrUOHDqJ+zP2RF9O17FHZIxjcjgowTNWnFrL8guimrKws0VP9+vUT8aF6U8yHRx99VESY6DjRL/ILAsJbb70lwkJETN++fUUHucXHuHHjRLN169YVhSdO9S8/+MEPxAhZS6yOHDly//33i9OddNJJHTt2fOaZZ9Qua8BpiSH/7//+b3GsmCri8X/NNdd8+umncleVzWrD2vZSbovbF2+txO2LGJo8ebJqx61bYrqusJ7U4wLEbLz77rtFIDZs2PBnP/uZmAZpln+LJK1du1Z0aePGjcWtiQsTAW3dK2zfvl18SBCLlLg2Uaddu3b33HNPmeU3aTgvz+1exMfvX//616eddlp6evpPfvKT2bNnW29z5syZ55xzzsknn9yoUaMLL7xQdbLHDcYcZ6/ydnyynVQh2j3GwvpSbhsX7bETbdrsO/7b1txC1G30Y7rbcbt3261Jbme0VfZzX35oryFG2LtHne2l3DYu7M1a5G1sx8ZO/BvSFSf+ypn3Sd0Gy9lszKUpj+7V1o85Gq/yft0moLayrXExSVu3bp3m+PtRbtdmE2zKuIWHx427LSbWQ7SDUmV5guFnfSm33WIm5vsUHjHj35VXXnnFFVfYCgsLC+UVxjwnY7y3rO1/bTWPW6syVmNxhrpHBNpa9riquMhmbfYd/9XhblfisUT77FsrZ48pbl3ncQEx94hFrYt3rLVBri2U5G94UA/K3r17y1/KL196hLTzwjyWGivngX4e1h63oK0vOZcLm2CPNu956jyp85Z9Nm470O1One3DSvaPzZIlS9Qut6G0vtRON1sL2oGo8q31008/7X9Yte/lrDXd3kTF3OMnsNrtWO861lPIbbf3bG6T8W9/+5tYFsSx8mVJSYlYIuSfK4+XGO5bb721VatWosE2bdqMGTNG/m73AMuaW1fEfLwbdIsNt3K3nokFensf062NVrKyUKdOnSZNmlxwwQWPPPKIdaa4hUpM17JbZe9g0B4VYJiqj6bjkk+nTp0mTJhgLzWBx/ysGePHjxdLjL0UEUa0B0a0m4uwD4yw96/WBwtAqqn1JbrWLwAI0T/+8Y+//vWv9lIg8ghdAP4leZZ/586df/jDH9LT09VfcDZLzecUVq1aNXv27I0bN27evPmZZ55p1KiRobmzFES0x4toTwKEfbwI+8BqfrAApJpaX6Jr/QKAarJo0aIuXbo4/9EAEHGELoC4JHmWX3wgb9GihfqlUcap+ZyCeHN/wQUXiPf09evX79Chg3hnH+zXiqHmEe3xItqTAGEfL8I+sJofLACpptaX6Fq/AKA6PPnkk1lZWXfccYd9BxBthC6AeCV5lj+JrVu3ftKkyePHTxA/jz32+NSpUzds2GCvBCQLEd5PPTXl0UcfFwEv/iu2CXgAieAxCkQHT3kA1aGiouKWW27Jzc1t3779Rx99ZN8NRBWhCyAYsvzm2bJl6/33j5427bm1a4u3bNkrf8T2rFkvPPLImO3bt9sPAEwmQnr06IenT3/eFvCiRJQT8ADixWMUiA6e8gCqyY4dO/r27duhQ4e2bdteeuml9t1AVBG6AAIjy2+Y5cs/ve++0YWFO9UHIevPpk27Hnlk7KpVq+yHAWZauXLlgw8+7BbwolzsFXXshwGACx6jQHTwlAdQTf7xj3907dq1bdu2mZmZF1988axZs+w1gEgidAEkgiy/Sb76qvi++0Y7PwVZf4qL944ZM46vPiEJiDAWH++dQW77EXUIeAB+8BgFooOnvIdXXnnFXhTU/v37FyxYkPddokSU26sCyaKsrKx9+/ZZWVmZx5155pkPPvggkY/oI3SdeCAmJcai+pDlN8axY7ERIx50+7qT9aeo6OsxY8bYjwdMM2rUQ34CXtQRNe0HA8B38RgFIoWnvAfxWddeFL9NmzaNHz9+4sSnCgo+LS3dt21buehP8V+xLUpEudgr6tgPAwwnonrcuHEDBlwl86TCoEHX5eVN3bVr/8cfr3zqqclEPqKJ0NXigZhkGIvqRpbfGKtXr5k+/Y/ODz/anxdfnLN+/Xp7E4A5RAA//fQLztjW/oiaBDwAbzxGgejgKe8twaRGZWXltGnTpk+fuWXLbmd/Wn52izqipqhvbwIwkIjkKVOmTpkyY9OmXSLCX3jhlZycnMzMzKuuuvaiiy5VkV9aWjZr1jNEPqKD0PXAAzFpMBY1gyy/MZ544inr3yXz/iksLJk+fbq9CcAcU6dO8x/woqaob28CACx4jALRwVPeWyJJjf379z/44KgPP1zl7Entj6gp6vNv5GE6EcMjRz6wdOmn1vB+772P27fvkJOT06lT5zfeeFeVFxeXrV69ZtQoIh+1j9D1xgMxOTAWNYYsvzEeemi8M/TdfrZtK09kNQRq3aOPPu4MbI8fUd/eBABY8BgFooOnvLfA609lZaX4VPzll0XOPvT4EfXFUXxpDuYS0TtixP2ff77ZGd5r1xb36NEzKytr2LBbbbuKikpGjSLyUZsI3SrxQEwCjEVNIstvjNGjxznj3u2nuHhv4NUQiILx4yc4A9vjR9S3NwEAFjxGgejgKe8t8Pozdeq0goKVzg6s8kcclWr/YALJZNKkye+//4kzsOXP5s2777rrt506df7iC3uOafXqNdOmEfmoNYRulXggJgHGoiaR5TcGX0JESuFbfgDCxWMUiA6e8t6CrT+bN2+eOnWGs/d8/ohjRQv2RoHI27ixMC9vmjOkbT/vvPPhCy+8aissLv7XLzon8lErCF0/eCCajrGoYWT5jcEvFEZK4Tf2AggXj1EgOnjKewuW1Bg7dtymTTudHejzRxwrWrA3CkTeqFGPFBb6ivyvvvrGWVhSsnf8+PH2RoHqR+j6wQPRdIxFDSPLb4zVq9dMn/5HZ9Brf158cc769evtTQDmEAH89NMvOGNb+yNqEvAAvPEYBaKDp7y3AEmNffv2Pf74k87ei+tHtCDasTcNRNjevWVjx/6vM5jj+nnqqclEPmoYoesTD0SjMRY1jyy/MY4di40Y8aCf/9lbVPT1mDFj7McDphk16iE/AS/qiJr2gwHgu3iMApHCU95DgKTGG2+88d57y50dGNePaEG0Y28aiLBXX/3LO+985AzmuH4+/nglkY8aRuj6xAPRaIxFzSPLb5KiouL77hvtDHrrT3Hx3jFjxm3fvt1+MGAaEcYPPviwM8htP6IOAQ/ADx6jQHTwlPcQIKnx+OOJfidU/oh27E0DEfbII486wzjen5079weYdEAiCF2fAtwgD8ToYCxqHll+w3z88af33Tfa7atPmzfveuSRsatWrbIfBphp5cqV4uO9W8CLcrFX1LEfBgAueIwC0cFT3k2ApMZjj8X3B43dfkQ79qaBCHvoofHOMI73Z/v28gCTDkgEoetTgBvkgRgdjEXNI8tvni1btt5//+hp056z/tUysT1r1guPPDImBb/uhOQmQnr06IdnzHjeFvCiRJQT8ADixWMUiA6e8lp33313XpzuuuvX1s/DgX/Gj59gvxogwkaPDiFVWlxclhd/JhFIBKHrEw9Eo4k+dHZsgB/Gwj+y/KZat279pEmTRazfdNMvHnvs8alTp27YsMFeCUgWIrwnT57y6KOPi4AX/xXbBDyARPAYBaKDp7xNXvxZGz5IIzWRKoWhCF2fAtwgD8ToYCxqHll+4wVY9QBzEfAAwsWqAkQH81EK0A/8o3ikJn7tCQxF6PoU4AZ5IEYHY1HzyPIbL8CqB5iLgAcQLlYVIDqYj1KAfvjLXxa8885Hzg/Gcf2IFkQ79qaBCJszZ17ikb9s2Yo33njD3jRQnQhdn3ggGo2xqHlk+Y0XYNUDzEXAAwgXqwoQHcxHKUA/7Nu3b9y4J5yfjeP6ES2IduxNAxFWWrp77Nj/dQZzXD95eZOIfNQwQtcnHohGYyxqHll+4wVY9QBzEfAAwsWqAkQH81EK1g+jRj1SWLjT+fHY5484VrRgbxSItqNHK0eMGJ1g5I8bN87eLlDNCF2feCCajrGoYWT5jRds1QMMRcADCBerChAdzEcpWD9s3FiYlzfV+QnZ5484VrRgbxSIvJUrv3ziieCRP2XKjM2bN9sbBaofoesHD0TTMRY1jCy/8YKteoChCHgA4WJVAaKD+SgF7ocnnnjq/fc/cX5IrvJHHCWOtTcHmODo0crx4/OCRf7SpZ9OmTLV3iJQIwhdP3ggJgHGoiaR5Tde4FUPMBEBDyBcrCpAdDAfpcD9cPRo5b333vf555udH5U9fkR9cZQ41t4cYIj9+w/fc8/vA0T+yJEPVFYS+ag1hG6VeCAmAcaiJpHlj65XXnklz4errrrKXqQjWrOfAIgSAh5AuFhVgOhgPsYlL2hSQygr2yc+Ffv/0pyoKeqLo+wNAUbZseObe+75fVyRf9999+/fv9/eEFCzCF1vPBCTA2NRY8jyGy+RVQ8wDgEPIFysKkB0MB+lBPvh6NGjjz8+6Yknpm7atMv5yVn9iL2ijqgp6tubAAy0f//h8ePz/ET+k09OmzRpSop8FRrRR+h64IGYNBiLmkGW33gJrnqAWQh4AOFiVQGig/kohdIPa9asHznyobFj//eddz6yfYQWJaJc7BV17IcBJjt69NjKlWtHjBjtEfmjRj2yYQN/yxHRQui64YGYZBiL6kaW33ihrHqAKQh4AOFiVQGig/kohfgriXbv3vvnP7/68MOPPvTQ+FGjxon/im1RIsrtVYFkcfRo5Y4d38ye/YoI+NGj//UjNsaMefTll18rKyu31wYig9B14oGYlBiL6kOW33h8HEJKIeABhItVBYgO5iMAAAAQDFl+4/FxCCmFgAcQLlYVIDqYjwAAAMnh5ZdfzgtDiP+kI+mR5TdeHh+HkEoIeADhYlUBooP5CAAAAARDlt94fBxCSiHgAYSLVQWIDuYjAAAAEAxZfuPxcQgphYAHEC5WFSA6mI8AAABAMGT5jcfHIaQUAh5AuFhVgOhgPgIAAADBkOU3Hh+HkFIIeADhYlUBooP5CAAAAARDlt94fBxCSiHgAYSLVQWIDuYjAAAAEAxZfuPxcQgphYAHEC5WFSA6mI8AAABAMGT5jcfHIaQUAh5AuFhVgOhgPgIAAADBkOU3Hh+HkFIIeADhYlUBooP5CAAAAARDlt94fBxCSiHgAYSLVQWIDuYjAAAAEAxZfuPxcQgphYAHEC5WFSA6mI8AAABAMGT5jcfHIaQUAh5AuFhVgOhgPgIAAADBkOU3Hh+HkFIIeADhYlUBooP5CAAAAARDlt9sBw8evP7668V/7TuAZETAAwgXqwoQHcxHAAAAIDCy/AarrKwcNWrUmjVrxH/Ftn03kFwIeADhYlUBooP5CAAAACSCLL/B8vLy1q9fLzbEf/kHzkh6BDyAcLGqANHBfAQAAAASQZbfVC+++OIHH3ygXoptUWLZDyQVAh5AuFhVgOhgPgIAAAAJIstvpDfffHP+/Pm2QlEiym2FQBIg4AGEi1UFiA7mIwAAAJA4svzmWbVq1fTp0+2lx4lysddeCpiMgAcQLlYVIDqYjwAAAEAoyPIbpri4eOzYsfZSC7FX1LGXAmYi4AGEi1UFiA7mIwAAABAWsvwmKSsru//++7/99lv7DguxV9QRNe07ANMQ8ADCxaoCRAfzEQAAAAgRWX5j+P+c4+dTExBxBDyAcLGqANHBfAQAAADCRZbfGHH9m+Uq/wU0EHEEPIBwsaoA0cF8BAAAAMJFlt8MAf7+mMdfMwMijoAHEC5WFSA6mI8AAABA6MjyG2D+/PlvvvmmvdQHcZQ41l4KRBsBDyBcrCpAdDAfAQAAgOpAlj/qPvjggxdffNFe6ps4VrRgLwWiioAHEC5WFSA6mI8AAABANSHLH2nr16/Py8uzl8ZJtCDasZcC0UPAAwgXqwoQHcxHAAAAoPqQ5Y+unTt3jho1qrKy0r4jTqIF0Y5ozb4DiBICHkC4WFWA6GA+AgAAANWKLH90/fGPfzx48KC9NBDRjmjNXgpECQEPIFysKkB0MB8BAACAakWWHwAAAAAAAAAAU5HlBwAAAAAAAADAVGT5AQAAAAAAAAAwFVl+AAAAAAAAAABMRZYfAAAAAAAAAABT/T8K0IbB0l5sTwAAAABJRU5ErkJggg==;" vertex="1" parent="1">
                    <mxGeometry width="2039" height="1183" as="geometry"/>
                </mxCell>
                <mxCell id="3" value="sq Reset Password" style="shape=umlFrame;whiteSpace=wrap;html=1;rounded=0;shadow=0;comic=0;labelBackgroundColor=none;strokeWidth=1;fontFamily=Verdana;fontSize=10;align=center;" vertex="1" parent="1">
                    <mxGeometry x="-100" y="-60" width="2250" height="1350" as="geometry"/>
                </mxCell>
            </root>
        </mxGraphModel>
    </diagram>
</mxfile>